M48
;Layer_Color=9474304
;FILE_FORMAT=2:5
INCH
;TYPE=PLATED
T01F00S00C0.01201
T02F00S00C0.01968
T03F00S00C0.02598
T04F00S00C0.02800
T05F00S00C0.03098
T06F00S00C0.03150
T07F00S00C0.03200
T08F00S00C0.03500
T09F00S00C0.03937
T10F00S00C0.04000
T11F00S00C0.04016
T12F00S00C0.04213
T13F00S00C0.09843
T14F00S00C0.12598
T15F00S00C0.17913
%
T01
X0326626Y0240945
X0275096Y0233566
X0236843Y0240158
X0223001Y0233832
X0213779Y0243701
X0205512Y0231102
X0211024Y0221260
X0194488Y0201181
X0224902Y0171752
X0245610Y0176555
X0264961Y0166535
X0278740Y0175197
X0277559Y0182677
X0252901Y0262831
X0255013Y0283958
X0259472Y0282087
X0242913Y0283858
X0234646Y0277953
X0130709Y0224803
T02
X0188976Y0161811
Y0169685
Y0177559
Y0185433
Y0193307
Y0201181
Y0209055
Y0216929
Y0224803
Y0232677
X0102362
Y0224803
Y0216929
Y0209055
Y0201181
Y0193307
Y0185433
Y0177559
Y0169685
Y0161811
T03
X0225512Y0325905
X0230512
X0235512
X0240512
X0245512
X0250512
X0255512
T04
X0368087Y0207283
X0302669Y0242894
X0124016Y0269291
T05
X0215512Y0255906
X0220512
X0225512
X0230512
X0235512
X0240512
X0245512
X0250512
X0255512
T06
X0106893Y0140913
X0114767
X0122641
X0130515
X0220320Y0127307
Y0119433
Y0111559
X0243701Y0111417
Y0119291
Y0127165
X0313386Y0168898
X0318504Y0197441
X0326378
X0334252
X0342126
X0310630
X0302756
X0305512Y0168898
X0297638
X0289764
X0292627Y0298632
X0284753
X0300501
X0308375
X0182677Y0296850
Y0288976
Y0281102
Y0273228
X0151575Y0273228
Y0281102
Y0288976
Y0296850
T07
X0103937Y0270472
T08
X0368110Y0146457
T09
X0144095Y0117717
X0153937
X0163779
X0173622
X0183465
X0209449Y0151575
X0219291
X0229134
X0238976
X0248819
T10
X0265748Y0116583
X0283783Y0122535
X0297001Y0107531
X0307405Y0142201
X0276728Y0154902
X0322153Y0155441
X0316406Y0119335
X0317901Y0107531
T11
X0318386Y0220473
X0328386
X0338386
X0348386
X0308386
X0298386
T12
X0326220Y0293701
X0336221
X0346220
X0268701Y0294131
Y0304132
X0200301Y0312531
Y0322532
T13
X0363386Y0220473
Y0270473
X0283465
Y0220473
T14
X0105905Y0110236
X0367087
X0105905Y0324567
X0367087
T15
X0342520Y0120866
Y0149213
M30
