G04*
G04 #@! TF.GenerationSoftware,Altium Limited,Altium Designer,25.8.1 (18)*
G04*
G04 Layer_Physical_Order=2*
G04 Layer_Color=16711680*
%FSLAX25Y25*%
%MOIN*%
G70*
G04*
G04 #@! TF.SameCoordinates,CEE5F6FD-B113-487D-9DF9-78F472C9FAAA*
G04*
G04*
G04 #@! TF.FilePolarity,Positive*
G04*
G01*
G75*
%ADD12C,0.01000*%
%ADD34R,0.04528X0.04528*%
%ADD67C,0.06000*%
%ADD76C,0.05000*%
%ADD79C,0.04528*%
%ADD80R,0.04528X0.04528*%
%ADD81R,0.06319X0.06319*%
%ADD82C,0.06319*%
%ADD83R,0.23622X0.23622*%
%ADD84C,0.06024*%
%ADD85R,0.05937X0.05937*%
%ADD86R,0.03976X0.03976*%
%ADD87R,0.05150X0.05150*%
%ADD88C,0.03976*%
%ADD89R,0.03969X0.03969*%
%ADD90C,0.05150*%
%ADD91C,0.23622*%
%ADD92C,0.04281*%
%ADD93C,0.05937*%
%ADD94C,0.03969*%
%ADD95R,0.05150X0.05150*%
%ADD96C,0.05200*%
%ADD97R,0.04281X0.04281*%
%ADD98R,0.06319X0.06319*%
%ADD99C,0.12598*%
%ADD100C,0.02000*%
%ADD101C,0.05000*%
%ADD102C,0.07000*%
G36*
X275590Y238740D02*
X276575D01*
X278507Y238356D01*
X280327Y237602D01*
X281965Y236508D01*
X283358Y235115D01*
X284452Y233477D01*
X285206Y231657D01*
X285591Y229725D01*
Y228740D01*
X285591D01*
X285591Y9606D01*
X285591D01*
X285591Y9213D01*
X285515Y8244D01*
X285206Y6689D01*
X284452Y4870D01*
X283358Y3232D01*
X281965Y1839D01*
X280327Y744D01*
X278507Y-9D01*
X276575Y-394D01*
X275590D01*
Y-394D01*
X10079Y-394D01*
X9094Y-394D01*
X7162Y-9D01*
X5342Y744D01*
X3704Y1839D01*
X2311Y3232D01*
X1217Y4870D01*
X463Y6689D01*
X79Y8621D01*
Y9606D01*
X79Y228740D01*
X79D01*
X79Y229134D01*
X154Y230103D01*
X463Y231657D01*
X1217Y233477D01*
X2311Y235115D01*
X3704Y236508D01*
X5342Y237602D01*
X7162Y238356D01*
X9094Y238740D01*
X10079D01*
Y238740D01*
X275590Y238740D01*
D02*
G37*
%LPC*%
G36*
X151311Y230834D02*
X150658Y230659D01*
X149976Y230265D01*
X149611Y229900D01*
X149400Y229712D01*
X148349Y229855D01*
X148221Y229983D01*
X147306Y230362D01*
X146316D01*
X145402Y229983D01*
X144915Y229496D01*
X144311Y229367D01*
X143708Y229496D01*
X143220Y229983D01*
X142306Y230362D01*
X141316D01*
X140402Y229983D01*
X139915Y229496D01*
X139311Y229367D01*
X138707Y229496D01*
X138221Y229983D01*
X137306Y230362D01*
X136316D01*
X135402Y229983D01*
X134915Y229496D01*
X134311Y229367D01*
X133707Y229496D01*
X133221Y229983D01*
X132306Y230362D01*
X131316D01*
X130402Y229983D01*
X129702Y229283D01*
X129323Y228369D01*
Y227379D01*
X129702Y226465D01*
X130402Y225765D01*
X131316Y225386D01*
X132306D01*
X133221Y225765D01*
X133707Y226252D01*
X134311Y226381D01*
X134915Y226252D01*
X135402Y225765D01*
X136316Y225386D01*
X137306D01*
X138221Y225765D01*
X138707Y226252D01*
X139311Y226381D01*
X139915Y226252D01*
X140402Y225765D01*
X141316Y225386D01*
X142306D01*
X143220Y225765D01*
X143708Y226252D01*
X144311Y226381D01*
X144915Y226252D01*
X145402Y225765D01*
X146316Y225386D01*
X147306D01*
X148221Y225765D01*
X148349Y225893D01*
X149400Y226037D01*
X149611Y225848D01*
X149976Y225483D01*
X150658Y225090D01*
X151311Y224914D01*
Y227874D01*
Y230834D01*
D02*
G37*
G36*
X152311Y230834D02*
Y227874D01*
Y224914D01*
X152964Y225090D01*
X153646Y225483D01*
X154011Y225848D01*
X154222Y226037D01*
X155273Y225893D01*
X155402Y225765D01*
X156316Y225386D01*
X157306D01*
X158221Y225765D01*
X158323Y225867D01*
X159323Y225453D01*
Y225386D01*
X164299D01*
Y230362D01*
X159323D01*
Y230295D01*
X158323Y229881D01*
X158221Y229983D01*
X157306Y230362D01*
X156316D01*
X155402Y229983D01*
X155273Y229855D01*
X154222Y229712D01*
X154011Y229900D01*
X153646Y230265D01*
X152964Y230659D01*
X152311Y230834D01*
D02*
G37*
G36*
X274056Y233335D02*
X272716D01*
X271403Y233073D01*
X270165Y232561D01*
X269052Y231817D01*
X268105Y230870D01*
X267360Y229756D01*
X266848Y228519D01*
X266587Y227205D01*
Y225866D01*
X266848Y224552D01*
X267360Y223315D01*
X268105Y222201D01*
X269052Y221254D01*
X270165Y220510D01*
X271403Y219998D01*
X272716Y219736D01*
X274056D01*
X275369Y219998D01*
X276606Y220510D01*
X277720Y221254D01*
X278667Y222201D01*
X279411Y223315D01*
X279924Y224552D01*
X280185Y225866D01*
Y227205D01*
X279924Y228519D01*
X279411Y229756D01*
X278667Y230870D01*
X277720Y231817D01*
X276606Y232561D01*
X275369Y233073D01*
X274056Y233335D01*
D02*
G37*
G36*
X12874D02*
X11535D01*
X10221Y233073D01*
X8984Y232561D01*
X7870Y231817D01*
X6923Y230870D01*
X6179Y229756D01*
X5667Y228519D01*
X5406Y227205D01*
Y225866D01*
X5667Y224552D01*
X6179Y223315D01*
X6923Y222201D01*
X7870Y221254D01*
X8984Y220510D01*
X10221Y219998D01*
X11535Y219736D01*
X12874D01*
X14188Y219998D01*
X15425Y220510D01*
X16539Y221254D01*
X17486Y222201D01*
X18230Y223315D01*
X18743Y224552D01*
X19004Y225866D01*
Y227205D01*
X18743Y228519D01*
X18230Y229756D01*
X17486Y230870D01*
X16539Y231817D01*
X15425Y232561D01*
X14188Y233073D01*
X12874Y233335D01*
D02*
G37*
G36*
X110259Y218160D02*
X102941D01*
Y210841D01*
X110259D01*
Y218160D01*
D02*
G37*
G36*
X175482Y209759D02*
X174518D01*
X173588Y209510D01*
X172753Y209028D01*
X172072Y208347D01*
X171590Y207512D01*
X171341Y206582D01*
Y205618D01*
X171590Y204688D01*
X172072Y203853D01*
X172753Y203172D01*
X173588Y202690D01*
X174518Y202441D01*
X175482D01*
X176412Y202690D01*
X177247Y203172D01*
X177928Y203853D01*
X178410Y204688D01*
X178659Y205618D01*
Y206582D01*
X178410Y207512D01*
X177928Y208347D01*
X177247Y209028D01*
X176412Y209510D01*
X175482Y209759D01*
D02*
G37*
G36*
X217938Y203864D02*
X215174D01*
Y201100D01*
X217938D01*
Y203864D01*
D02*
G37*
G36*
X214174D02*
X211410D01*
Y201100D01*
X214174D01*
Y203864D01*
D02*
G37*
G36*
X89476Y202064D02*
Y199319D01*
X92221D01*
X92018Y200079D01*
X91588Y200823D01*
X90980Y201431D01*
X90236Y201860D01*
X89476Y202064D01*
D02*
G37*
G36*
X88476D02*
X87717Y201860D01*
X86972Y201431D01*
X86365Y200823D01*
X85935Y200079D01*
X85731Y199319D01*
X88476D01*
Y202064D01*
D02*
G37*
G36*
X207164Y203364D02*
X206436D01*
X205733Y203175D01*
X205103Y202812D01*
X204588Y202297D01*
X204225Y201667D01*
X204036Y200964D01*
Y200236D01*
X204225Y199533D01*
X204588Y198903D01*
X205103Y198388D01*
X205733Y198025D01*
X206436Y197836D01*
X207164D01*
X207867Y198025D01*
X208497Y198388D01*
X209012Y198903D01*
X209375Y199533D01*
X209564Y200236D01*
Y200964D01*
X209375Y201667D01*
X209012Y202297D01*
X208497Y202812D01*
X207867Y203175D01*
X207164Y203364D01*
D02*
G37*
G36*
X199290D02*
X198562D01*
X197859Y203175D01*
X197229Y202812D01*
X196714Y202297D01*
X196351Y201667D01*
X196162Y200964D01*
Y200236D01*
X196351Y199533D01*
X196714Y198903D01*
X197229Y198388D01*
X197859Y198025D01*
X198562Y197836D01*
X199290D01*
X199993Y198025D01*
X200623Y198388D01*
X201138Y198903D01*
X201501Y199533D01*
X201690Y200236D01*
Y200964D01*
X201501Y201667D01*
X201138Y202297D01*
X200623Y202812D01*
X199993Y203175D01*
X199290Y203364D01*
D02*
G37*
G36*
X191416D02*
X190688D01*
X189985Y203175D01*
X189355Y202812D01*
X188840Y202297D01*
X188477Y201667D01*
X188288Y200964D01*
Y200236D01*
X188477Y199533D01*
X188840Y198903D01*
X189355Y198388D01*
X189985Y198025D01*
X190688Y197836D01*
X191416D01*
X192119Y198025D01*
X192749Y198388D01*
X193264Y198903D01*
X193627Y199533D01*
X193816Y200236D01*
Y200964D01*
X193627Y201667D01*
X193264Y202297D01*
X192749Y202812D01*
X192119Y203175D01*
X191416Y203364D01*
D02*
G37*
G36*
X217938Y200100D02*
X215174D01*
Y197336D01*
X217938D01*
Y200100D01*
D02*
G37*
G36*
X214174D02*
X211410D01*
Y197336D01*
X214174D01*
Y200100D01*
D02*
G37*
G36*
X233067Y199829D02*
X233020D01*
Y196169D01*
X236679D01*
Y196217D01*
X236396Y197275D01*
X235848Y198223D01*
X235074Y198998D01*
X234125Y199545D01*
X233067Y199829D01*
D02*
G37*
G36*
X232020D02*
X231972D01*
X230914Y199545D01*
X229966Y198998D01*
X229191Y198223D01*
X228644Y197275D01*
X228360Y196217D01*
Y196169D01*
X232020D01*
Y199829D01*
D02*
G37*
G36*
X60638Y201583D02*
X55110D01*
Y196055D01*
X60638D01*
Y201583D01*
D02*
G37*
G36*
X92221Y198319D02*
X89476D01*
Y195574D01*
X90236Y195777D01*
X90980Y196207D01*
X91588Y196815D01*
X92018Y197559D01*
X92221Y198319D01*
D02*
G37*
G36*
X88476D02*
X85731D01*
X85935Y197559D01*
X86365Y196815D01*
X86972Y196207D01*
X87717Y195777D01*
X88476Y195574D01*
Y198319D01*
D02*
G37*
G36*
X178659Y199759D02*
X171341D01*
Y192441D01*
X178659D01*
Y199759D01*
D02*
G37*
G36*
X256179Y199329D02*
X248860D01*
Y192010D01*
X256179D01*
Y199329D01*
D02*
G37*
G36*
X243002D02*
X242038D01*
X241107Y199079D01*
X240273Y198598D01*
X239591Y197916D01*
X239110Y197082D01*
X238860Y196151D01*
Y195187D01*
X239110Y194257D01*
X239591Y193422D01*
X240273Y192741D01*
X241107Y192259D01*
X242038Y192010D01*
X243002D01*
X243932Y192259D01*
X244767Y192741D01*
X245448Y193422D01*
X245930Y194257D01*
X246179Y195187D01*
Y196151D01*
X245930Y197082D01*
X245448Y197916D01*
X244767Y198598D01*
X243932Y199079D01*
X243002Y199329D01*
D02*
G37*
G36*
X236679Y195169D02*
X233020D01*
Y191510D01*
X233067D01*
X234125Y191793D01*
X235074Y192341D01*
X235848Y193115D01*
X236396Y194064D01*
X236679Y195122D01*
Y195169D01*
D02*
G37*
G36*
X232020D02*
X228360D01*
Y195122D01*
X228644Y194064D01*
X229191Y193115D01*
X229966Y192341D01*
X230914Y191793D01*
X231972Y191510D01*
X232020D01*
Y195169D01*
D02*
G37*
G36*
X58238Y193709D02*
X57510D01*
X56807Y193520D01*
X56177Y193157D01*
X55662Y192642D01*
X55299Y192012D01*
X55110Y191309D01*
Y190581D01*
X55299Y189878D01*
X55662Y189248D01*
X56177Y188733D01*
X56807Y188370D01*
X57510Y188181D01*
X58238D01*
X58941Y188370D01*
X59571Y188733D01*
X60086Y189248D01*
X60449Y189878D01*
X60638Y190581D01*
Y191309D01*
X60449Y192012D01*
X60086Y192642D01*
X59571Y193157D01*
X58941Y193520D01*
X58238Y193709D01*
D02*
G37*
G36*
X166272Y186013D02*
Y184555D01*
X167729D01*
X167467Y185188D01*
X166905Y185751D01*
X166272Y186013D01*
D02*
G37*
G36*
X165272D02*
X164639Y185751D01*
X164076Y185188D01*
X163814Y184555D01*
X165272D01*
Y186013D01*
D02*
G37*
G36*
X107082Y228159D02*
X106118D01*
X105187Y227910D01*
X104353Y227428D01*
X103672Y226747D01*
X103190Y225912D01*
X102941Y224982D01*
Y224018D01*
X103190Y223088D01*
X103672Y222253D01*
X104353Y221572D01*
X105187Y221090D01*
X106118Y220841D01*
X107082D01*
X108012Y221090D01*
X108847Y221572D01*
X109528Y222253D01*
X110010Y223088D01*
X110115Y223480D01*
X122317D01*
X159813Y185985D01*
Y185628D01*
X160041Y185077D01*
X160463Y184655D01*
X161014Y184427D01*
X161611D01*
X162162Y184655D01*
X162584Y185077D01*
X162813Y185628D01*
Y186225D01*
X162584Y186776D01*
X162162Y187198D01*
X161611Y187427D01*
X161255D01*
X123460Y225221D01*
X123129Y225442D01*
X122739Y225520D01*
X110115D01*
X110010Y225912D01*
X109528Y226747D01*
X108847Y227428D01*
X108012Y227910D01*
X107082Y228159D01*
D02*
G37*
G36*
X167729Y183555D02*
X166272D01*
Y182097D01*
X166905Y182360D01*
X167467Y182922D01*
X167729Y183555D01*
D02*
G37*
G36*
X165272D02*
X163814D01*
X164076Y182922D01*
X164639Y182360D01*
X165272Y182097D01*
Y183555D01*
D02*
G37*
G36*
X141445Y181879D02*
Y180421D01*
X142903D01*
X142640Y181054D01*
X142078Y181617D01*
X141445Y181879D01*
D02*
G37*
G36*
X140445D02*
X139812Y181617D01*
X139249Y181054D01*
X138987Y180421D01*
X140445D01*
Y181879D01*
D02*
G37*
G36*
X89340Y185835D02*
X88613D01*
X87910Y185646D01*
X87279Y185282D01*
X86765Y184768D01*
X86401Y184138D01*
X86213Y183435D01*
Y182707D01*
X86401Y182004D01*
X86765Y181374D01*
X87279Y180859D01*
X87910Y180495D01*
X88613Y180307D01*
X89340D01*
X90043Y180495D01*
X90673Y180859D01*
X91188Y181374D01*
X91552Y182004D01*
X91740Y182707D01*
Y183435D01*
X91552Y184138D01*
X91188Y184768D01*
X90673Y185282D01*
X90043Y185646D01*
X89340Y185835D01*
D02*
G37*
G36*
X58238Y185835D02*
X57510D01*
X56807Y185646D01*
X56177Y185282D01*
X55662Y184768D01*
X55299Y184138D01*
X55110Y183435D01*
Y182707D01*
X55299Y182004D01*
X55662Y181374D01*
X56177Y180859D01*
X56807Y180495D01*
X57510Y180307D01*
X58238D01*
X58941Y180495D01*
X59571Y180859D01*
X60086Y181374D01*
X60449Y182004D01*
X60638Y182707D01*
Y183435D01*
X60449Y184138D01*
X60086Y184768D01*
X59571Y185282D01*
X58941Y185646D01*
X58238Y185835D01*
D02*
G37*
G36*
X142903Y179421D02*
X141445D01*
Y177964D01*
X142078Y178226D01*
X142640Y178788D01*
X142903Y179421D01*
D02*
G37*
G36*
X140445D02*
X138987D01*
X139249Y178788D01*
X139812Y178226D01*
X140445Y177964D01*
Y179421D01*
D02*
G37*
G36*
X91740Y177961D02*
X86213D01*
Y172433D01*
X91740D01*
Y177961D01*
D02*
G37*
G36*
X58238Y177961D02*
X57510D01*
X56807Y177772D01*
X56177Y177408D01*
X55662Y176894D01*
X55299Y176264D01*
X55110Y175561D01*
Y174833D01*
X55299Y174130D01*
X55662Y173500D01*
X56177Y172985D01*
X56807Y172621D01*
X57510Y172433D01*
X58238D01*
X58941Y172621D01*
X59571Y172985D01*
X60086Y173500D01*
X60449Y174130D01*
X60638Y174833D01*
Y175561D01*
X60449Y176264D01*
X60086Y176894D01*
X59571Y177408D01*
X58941Y177772D01*
X58238Y177961D01*
D02*
G37*
G36*
X30815Y174749D02*
Y171760D01*
X33805D01*
X33576Y172611D01*
X33116Y173409D01*
X32464Y174060D01*
X31666Y174521D01*
X30815Y174749D01*
D02*
G37*
G36*
X29815D02*
X28964Y174521D01*
X28166Y174060D01*
X27514Y173409D01*
X27053Y172611D01*
X26825Y171760D01*
X29815D01*
Y174749D01*
D02*
G37*
G36*
X10644Y175541D02*
X9828D01*
X9040Y175330D01*
X8333Y174922D01*
X7756Y174344D01*
X7348Y173637D01*
X7136Y172849D01*
Y172033D01*
X7348Y171244D01*
X7756Y170537D01*
X8333Y169960D01*
X9040Y169552D01*
X9828Y169341D01*
X10644D01*
X11433Y169552D01*
X12140Y169960D01*
X12717Y170537D01*
X13125Y171244D01*
X13336Y172033D01*
Y172849D01*
X13125Y173637D01*
X12717Y174344D01*
X12140Y174922D01*
X11433Y175330D01*
X10644Y175541D01*
D02*
G37*
G36*
X33805Y170760D02*
X30815D01*
Y167770D01*
X31666Y167998D01*
X32464Y168459D01*
X33116Y169111D01*
X33576Y169909D01*
X33805Y170760D01*
D02*
G37*
G36*
X29815D02*
X26825D01*
X27053Y169909D01*
X27514Y169111D01*
X28166Y168459D01*
X28964Y167998D01*
X29815Y167770D01*
Y170760D01*
D02*
G37*
G36*
X270355Y179240D02*
X269015D01*
X267702Y178979D01*
X266464Y178466D01*
X265351Y177722D01*
X264404Y176775D01*
X263660Y175662D01*
X263147Y174424D01*
X262886Y173111D01*
Y171771D01*
X263147Y170458D01*
X263660Y169220D01*
X264404Y168107D01*
X265351Y167160D01*
X266464Y166416D01*
X267702Y165903D01*
X269015Y165642D01*
X270355D01*
X271668Y165903D01*
X272906Y166416D01*
X274019Y167160D01*
X274966Y168107D01*
X275710Y169220D01*
X276223Y170458D01*
X276484Y171771D01*
Y173111D01*
X276223Y174424D01*
X275710Y175662D01*
X274966Y176775D01*
X274019Y177722D01*
X272906Y178466D01*
X271668Y178979D01*
X270355Y179240D01*
D02*
G37*
G36*
X190433D02*
X189094D01*
X187781Y178979D01*
X186543Y178466D01*
X185430Y177722D01*
X184483Y176775D01*
X183739Y175662D01*
X183226Y174424D01*
X182965Y173111D01*
Y171771D01*
X183226Y170458D01*
X183739Y169220D01*
X184483Y168107D01*
X185430Y167160D01*
X186543Y166416D01*
X187781Y165903D01*
X189094Y165642D01*
X190433D01*
X191747Y165903D01*
X192984Y166416D01*
X194098Y167160D01*
X195045Y168107D01*
X195789Y169220D01*
X196301Y170458D01*
X196563Y171771D01*
Y173111D01*
X196301Y174424D01*
X195789Y175662D01*
X195045Y176775D01*
X194098Y177722D01*
X192984Y178466D01*
X191747Y178979D01*
X190433Y179240D01*
D02*
G37*
G36*
X149511Y187327D02*
X148914D01*
X148363Y187098D01*
X147941Y186676D01*
X147713Y186125D01*
Y185528D01*
X147941Y184977D01*
X148363Y184555D01*
X148914Y184327D01*
X149511D01*
X150062Y184555D01*
X150314Y184807D01*
X150759D01*
X155024Y180542D01*
Y171909D01*
X155101Y171519D01*
X155322Y171188D01*
X159211Y167300D01*
X158902Y166300D01*
X158350Y166072D01*
X158098Y165820D01*
X148737D01*
X148347Y165742D01*
X148016Y165521D01*
X142830Y160335D01*
X142159Y160515D01*
X141463D01*
X140792Y160335D01*
X140327Y160066D01*
X139351Y159809D01*
X139001Y160125D01*
X138739Y160387D01*
X138023Y160801D01*
X137311Y160991D01*
Y157874D01*
Y154757D01*
X138023Y154947D01*
X138739Y155361D01*
X139001Y155623D01*
X139351Y155939D01*
X140327Y155682D01*
X140792Y155413D01*
X141463Y155234D01*
X142159D01*
X142830Y155413D01*
X143432Y155761D01*
X143683Y156011D01*
X144311Y156161D01*
X144939Y156011D01*
X145190Y155761D01*
X145792Y155413D01*
X146463Y155234D01*
X147159D01*
X147830Y155413D01*
X148432Y155761D01*
X148683Y156011D01*
X149311Y156161D01*
X149939Y156011D01*
X150190Y155761D01*
X150792Y155413D01*
X151463Y155234D01*
X152159D01*
X152830Y155413D01*
X153432Y155761D01*
X153683Y156011D01*
X154311Y156161D01*
X154939Y156011D01*
X155190Y155761D01*
X155792Y155413D01*
X156463Y155234D01*
X157159D01*
X157830Y155413D01*
X158170Y155610D01*
X159170Y155234D01*
Y155234D01*
X164452D01*
Y160515D01*
X162831D01*
Y166142D01*
X162753Y166532D01*
X162532Y166863D01*
X157063Y172332D01*
Y180965D01*
X156985Y181355D01*
X156764Y181685D01*
X151902Y186548D01*
X151571Y186769D01*
X151181Y186846D01*
X150314D01*
X150062Y187098D01*
X149511Y187327D01*
D02*
G37*
G36*
X121311Y160991D02*
X120599Y160801D01*
X119883Y160387D01*
X119298Y159802D01*
X118885Y159086D01*
X118694Y158374D01*
X121311D01*
Y160991D01*
D02*
G37*
G36*
X122311Y160991D02*
Y157874D01*
Y154757D01*
X123023Y154947D01*
X123739Y155361D01*
X124001Y155623D01*
X124351Y155939D01*
X125327Y155682D01*
X125792Y155413D01*
X126463Y155234D01*
X127159D01*
X127830Y155413D01*
X128432Y155761D01*
X128683Y156011D01*
X129311Y156161D01*
X129939Y156011D01*
X130190Y155761D01*
X130792Y155413D01*
X131463Y155234D01*
X132159D01*
X132830Y155413D01*
X133296Y155682D01*
X134271Y155939D01*
X134621Y155623D01*
X134883Y155361D01*
X135599Y154947D01*
X136311Y154757D01*
Y157874D01*
Y160991D01*
X135599Y160801D01*
X134883Y160387D01*
X134621Y160125D01*
X134271Y159809D01*
X133296Y160066D01*
X132830Y160335D01*
X132159Y160515D01*
X131463D01*
X130792Y160335D01*
X130190Y159987D01*
X129939Y159737D01*
X129311Y159587D01*
X128683Y159737D01*
X128432Y159987D01*
X127830Y160335D01*
X127159Y160515D01*
X126463D01*
X125792Y160335D01*
X125327Y160066D01*
X124351Y159809D01*
X124001Y160125D01*
X123739Y160387D01*
X123023Y160801D01*
X122311Y160991D01*
D02*
G37*
G36*
X121311Y157374D02*
X118694D01*
X118885Y156662D01*
X119298Y155946D01*
X119883Y155361D01*
X120599Y154947D01*
X121311Y154757D01*
Y157374D01*
D02*
G37*
G36*
X120579Y147627D02*
Y146169D01*
X122036D01*
X121774Y146802D01*
X121212Y147365D01*
X120579Y147627D01*
D02*
G37*
G36*
X119579D02*
X118946Y147365D01*
X118383Y146802D01*
X118121Y146169D01*
X119579D01*
Y147627D01*
D02*
G37*
G36*
X209469Y148352D02*
Y145362D01*
X212458D01*
X212230Y146213D01*
X211769Y147011D01*
X211118Y147663D01*
X210319Y148124D01*
X209469Y148352D01*
D02*
G37*
G36*
X208469D02*
X207618Y148124D01*
X206820Y147663D01*
X206168Y147011D01*
X205707Y146213D01*
X205479Y145362D01*
X208469D01*
Y148352D01*
D02*
G37*
G36*
X122036Y145169D02*
X120579D01*
Y143712D01*
X121212Y143974D01*
X121774Y144536D01*
X122036Y145169D01*
D02*
G37*
G36*
X119579D02*
X118121D01*
X118383Y144536D01*
X118946Y143974D01*
X119579Y143712D01*
Y145169D01*
D02*
G37*
G36*
X233425Y144871D02*
Y143413D01*
X234883D01*
X234621Y144046D01*
X234058Y144609D01*
X233425Y144871D01*
D02*
G37*
G36*
X232425D02*
X231792Y144609D01*
X231230Y144046D01*
X230967Y143413D01*
X232425D01*
Y144871D01*
D02*
G37*
G36*
X212458Y144362D02*
X209469D01*
Y141373D01*
X210319Y141601D01*
X211118Y142061D01*
X211769Y142713D01*
X212230Y143511D01*
X212458Y144362D01*
D02*
G37*
G36*
X208469D02*
X205479D01*
X205707Y143511D01*
X206168Y142713D01*
X206820Y142061D01*
X207618Y141601D01*
X208469Y141373D01*
Y144362D01*
D02*
G37*
G36*
X234883Y142413D02*
X233425D01*
Y140956D01*
X234058Y141218D01*
X234621Y141780D01*
X234883Y142413D01*
D02*
G37*
G36*
X232425D02*
X230967D01*
X231230Y141780D01*
X231792Y141218D01*
X232425Y140956D01*
Y142413D01*
D02*
G37*
G36*
X89340Y193709D02*
X88613D01*
X87910Y193520D01*
X87279Y193157D01*
X86765Y192642D01*
X86401Y192012D01*
X86213Y191309D01*
Y190581D01*
X86401Y189878D01*
X86765Y189248D01*
X87279Y188733D01*
X87910Y188370D01*
X88613Y188181D01*
X89340D01*
X90043Y188370D01*
X90086Y188394D01*
X98880Y179599D01*
Y170100D01*
X98958Y169710D01*
X99179Y169379D01*
X117704Y150854D01*
X118035Y150633D01*
X118425Y150555D01*
X134617D01*
X142028Y143145D01*
Y143133D01*
X141870Y142976D01*
X141642Y142424D01*
Y141828D01*
X141870Y141276D01*
X142292Y140854D01*
X142843Y140626D01*
X143440D01*
X143992Y140854D01*
X144413Y141276D01*
X144642Y141828D01*
Y142424D01*
X144413Y142976D01*
X144067Y143322D01*
Y143567D01*
X143989Y143957D01*
X143768Y144288D01*
X135760Y152296D01*
X135430Y152517D01*
X135039Y152594D01*
X118848D01*
X100920Y170522D01*
Y180021D01*
X100842Y180411D01*
X100621Y180742D01*
X91527Y189836D01*
X91552Y189878D01*
X91740Y190581D01*
Y191309D01*
X91552Y192012D01*
X91188Y192642D01*
X90673Y193157D01*
X90043Y193520D01*
X89340Y193709D01*
D02*
G37*
G36*
X129800Y137758D02*
Y136300D01*
X131258D01*
X130996Y136933D01*
X130433Y137496D01*
X129800Y137758D01*
D02*
G37*
G36*
X128800D02*
X128167Y137496D01*
X127604Y136933D01*
X127342Y136300D01*
X128800D01*
Y137758D01*
D02*
G37*
G36*
X181895Y137492D02*
Y136034D01*
X183352D01*
X183090Y136667D01*
X182528Y137230D01*
X181895Y137492D01*
D02*
G37*
G36*
X180895D02*
X180262Y137230D01*
X179699Y136667D01*
X179437Y136034D01*
X180895D01*
Y137492D01*
D02*
G37*
G36*
X131258Y135300D02*
X129800D01*
Y133842D01*
X130433Y134105D01*
X130996Y134667D01*
X131258Y135300D01*
D02*
G37*
G36*
X128800D02*
X127342D01*
X127604Y134667D01*
X128167Y134105D01*
X128800Y133842D01*
Y135300D01*
D02*
G37*
G36*
X183352Y135034D02*
X181895D01*
Y133577D01*
X182528Y133839D01*
X183090Y134401D01*
X183352Y135034D01*
D02*
G37*
G36*
X180895D02*
X179437D01*
X179699Y134401D01*
X180262Y133839D01*
X180895Y133577D01*
Y135034D01*
D02*
G37*
G36*
X112311Y135029D02*
Y133571D01*
X113769D01*
X113506Y134204D01*
X112944Y134766D01*
X112311Y135029D01*
D02*
G37*
G36*
X111311D02*
X110678Y134766D01*
X110116Y134204D01*
X109853Y133571D01*
X111311D01*
Y135029D01*
D02*
G37*
G36*
X11146Y137130D02*
X6177D01*
Y132161D01*
X11146D01*
Y137130D01*
D02*
G37*
G36*
X113769Y132571D02*
X112311D01*
Y131113D01*
X112944Y131375D01*
X113506Y131938D01*
X113769Y132571D01*
D02*
G37*
G36*
X111311D02*
X109853D01*
X110116Y131938D01*
X110678Y131375D01*
X111311Y131113D01*
Y132571D01*
D02*
G37*
G36*
X95770Y129256D02*
X94781D01*
X93868Y128878D01*
X93169Y128179D01*
X92791Y127266D01*
Y126277D01*
X93169Y125364D01*
X93868Y124666D01*
X94781Y124287D01*
X95770D01*
X96683Y124666D01*
X97382Y125364D01*
X97760Y126277D01*
Y127266D01*
X97382Y128179D01*
X96683Y128878D01*
X95770Y129256D01*
D02*
G37*
G36*
X9156D02*
X8167D01*
X7254Y128878D01*
X6555Y128179D01*
X6177Y127266D01*
Y126277D01*
X6555Y125364D01*
X7254Y124666D01*
X8167Y124287D01*
X9156D01*
X10069Y124666D01*
X10768Y125364D01*
X11146Y126277D01*
Y127266D01*
X10768Y128179D01*
X10069Y128878D01*
X9156Y129256D01*
D02*
G37*
G36*
X215213Y126453D02*
X215185D01*
Y122941D01*
X218697D01*
Y122969D01*
X218424Y123989D01*
X217895Y124904D01*
X217148Y125651D01*
X216234Y126179D01*
X215213Y126453D01*
D02*
G37*
G36*
X214185D02*
X214157D01*
X213137Y126179D01*
X212222Y125651D01*
X211475Y124904D01*
X210947Y123989D01*
X210673Y122969D01*
Y122941D01*
X214185D01*
Y126453D01*
D02*
G37*
G36*
X95770Y137130D02*
X94781D01*
X93868Y136752D01*
X93169Y136053D01*
X92791Y135140D01*
Y134151D01*
X93169Y133238D01*
X93868Y132540D01*
X94781Y132161D01*
X95770D01*
X96683Y132540D01*
X96902Y132759D01*
X107153Y122507D01*
X107484Y122286D01*
X107874Y122209D01*
X116221D01*
X116473Y121957D01*
X117025Y121728D01*
X117621D01*
X118173Y121957D01*
X118595Y122379D01*
X118823Y122930D01*
Y123527D01*
X118595Y124078D01*
X118173Y124500D01*
X117621Y124728D01*
X117025D01*
X116473Y124500D01*
X116221Y124248D01*
X108296D01*
X98051Y134494D01*
X97760Y134688D01*
Y135140D01*
X97382Y136053D01*
X96683Y136752D01*
X95770Y137130D01*
D02*
G37*
G36*
X255147Y125953D02*
X254223D01*
X253330Y125713D01*
X252529Y125251D01*
X251875Y124597D01*
X251413Y123796D01*
X251173Y122903D01*
Y121979D01*
X251413Y121086D01*
X251875Y120285D01*
X252529Y119631D01*
X253330Y119168D01*
X254223Y118929D01*
X255147D01*
X256041Y119168D01*
X256841Y119631D01*
X257495Y120285D01*
X257958Y121086D01*
X258197Y121979D01*
Y122903D01*
X257958Y123796D01*
X257495Y124597D01*
X256841Y125251D01*
X256041Y125713D01*
X255147Y125953D01*
D02*
G37*
G36*
X245147D02*
X244223D01*
X243330Y125713D01*
X242529Y125251D01*
X241875Y124597D01*
X241413Y123796D01*
X241173Y122903D01*
Y121979D01*
X241413Y121086D01*
X241875Y120285D01*
X242529Y119631D01*
X243330Y119168D01*
X244223Y118929D01*
X245147D01*
X246041Y119168D01*
X246841Y119631D01*
X247495Y120285D01*
X247957Y121086D01*
X248197Y121979D01*
Y122903D01*
X247957Y123796D01*
X247495Y124597D01*
X246841Y125251D01*
X246041Y125713D01*
X245147Y125953D01*
D02*
G37*
G36*
X205147D02*
X204223D01*
X203329Y125713D01*
X202529Y125251D01*
X201875Y124597D01*
X201413Y123796D01*
X201173Y122903D01*
Y121979D01*
X201413Y121086D01*
X201875Y120285D01*
X202529Y119631D01*
X203329Y119168D01*
X204223Y118929D01*
X205147D01*
X206041Y119168D01*
X206841Y119631D01*
X207495Y120285D01*
X207958Y121086D01*
X208197Y121979D01*
Y122903D01*
X207958Y123796D01*
X207495Y124597D01*
X206841Y125251D01*
X206041Y125713D01*
X205147Y125953D01*
D02*
G37*
G36*
X218697Y121941D02*
X215185D01*
Y118429D01*
X215213D01*
X216234Y118703D01*
X217148Y119231D01*
X217895Y119978D01*
X218424Y120893D01*
X218697Y121913D01*
Y121941D01*
D02*
G37*
G36*
X214185D02*
X210673D01*
Y121913D01*
X210947Y120893D01*
X211475Y119978D01*
X212222Y119231D01*
X213137Y118703D01*
X214157Y118429D01*
X214185D01*
Y121941D01*
D02*
G37*
G36*
X95770Y121382D02*
X94781D01*
X93868Y121004D01*
X93169Y120305D01*
X92791Y119392D01*
Y118403D01*
X93169Y117490D01*
X93868Y116792D01*
X94781Y116413D01*
X95770D01*
X96683Y116792D01*
X97382Y117490D01*
X97760Y118403D01*
Y119392D01*
X97382Y120305D01*
X96683Y121004D01*
X95770Y121382D01*
D02*
G37*
G36*
X9156D02*
X8167D01*
X7254Y121004D01*
X6555Y120305D01*
X6177Y119392D01*
Y118403D01*
X6555Y117490D01*
X7254Y116792D01*
X8167Y116413D01*
X9156D01*
X10069Y116792D01*
X10768Y117490D01*
X11146Y118403D01*
Y119392D01*
X10768Y120305D01*
X10069Y121004D01*
X9156Y121382D01*
D02*
G37*
G36*
X270355Y129240D02*
X269015D01*
X267702Y128979D01*
X266464Y128466D01*
X265351Y127722D01*
X264404Y126775D01*
X263660Y125662D01*
X263147Y124424D01*
X262886Y123111D01*
Y121771D01*
X263147Y120458D01*
X263660Y119220D01*
X264404Y118107D01*
X265351Y117160D01*
X266464Y116416D01*
X267702Y115903D01*
X269015Y115642D01*
X270355D01*
X271668Y115903D01*
X272906Y116416D01*
X274019Y117160D01*
X274966Y118107D01*
X275710Y119220D01*
X276223Y120458D01*
X276484Y121771D01*
Y123111D01*
X276223Y124424D01*
X275710Y125662D01*
X274966Y126775D01*
X274019Y127722D01*
X272906Y128466D01*
X271668Y128979D01*
X270355Y129240D01*
D02*
G37*
G36*
X190433D02*
X189094D01*
X187781Y128979D01*
X186543Y128466D01*
X185430Y127722D01*
X184483Y126775D01*
X183739Y125662D01*
X183226Y124424D01*
X182965Y123111D01*
Y121771D01*
X183226Y120458D01*
X183739Y119220D01*
X184483Y118107D01*
X185430Y117160D01*
X186543Y116416D01*
X187781Y115903D01*
X189094Y115642D01*
X190433D01*
X191747Y115903D01*
X192984Y116416D01*
X194098Y117160D01*
X195045Y118107D01*
X195789Y119220D01*
X196301Y120458D01*
X196563Y121771D01*
Y123111D01*
X196301Y124424D01*
X195789Y125662D01*
X195045Y126775D01*
X194098Y127722D01*
X192984Y128466D01*
X191747Y128979D01*
X190433Y129240D01*
D02*
G37*
G36*
X274886Y112741D02*
Y109752D01*
X277875D01*
X277647Y110603D01*
X277186Y111401D01*
X276535Y112053D01*
X275737Y112513D01*
X274886Y112741D01*
D02*
G37*
G36*
X273886D02*
X273035Y112513D01*
X272237Y112053D01*
X271585Y111401D01*
X271124Y110603D01*
X270896Y109752D01*
X273886D01*
Y112741D01*
D02*
G37*
G36*
X95770Y113508D02*
X94781D01*
X93868Y113130D01*
X93169Y112431D01*
X92791Y111518D01*
Y110529D01*
X93169Y109616D01*
X93868Y108918D01*
X94781Y108539D01*
X95770D01*
X96683Y108918D01*
X97382Y109616D01*
X97760Y110529D01*
Y111518D01*
X97382Y112431D01*
X96683Y113130D01*
X95770Y113508D01*
D02*
G37*
G36*
X9156D02*
X8167D01*
X7254Y113130D01*
X6555Y112431D01*
X6177Y111518D01*
Y110529D01*
X6555Y109616D01*
X7254Y108918D01*
X8167Y108539D01*
X9156D01*
X10069Y108918D01*
X10768Y109616D01*
X11146Y110529D01*
Y111518D01*
X10768Y112431D01*
X10069Y113130D01*
X9156Y113508D01*
D02*
G37*
G36*
X277875Y108752D02*
X274886D01*
Y105763D01*
X275737Y105991D01*
X276535Y106451D01*
X277186Y107103D01*
X277647Y107901D01*
X277875Y108752D01*
D02*
G37*
G36*
X273886D02*
X270896D01*
X271124Y107901D01*
X271585Y107103D01*
X272237Y106451D01*
X273035Y105991D01*
X273886Y105763D01*
Y108752D01*
D02*
G37*
G36*
X101287Y105107D02*
Y103650D01*
X102745D01*
X102483Y104282D01*
X101920Y104845D01*
X101287Y105107D01*
D02*
G37*
G36*
X100287D02*
X99655Y104845D01*
X99092Y104282D01*
X98830Y103650D01*
X100287D01*
Y105107D01*
D02*
G37*
G36*
X102745Y102650D02*
X101287D01*
Y101192D01*
X101920Y101454D01*
X102483Y102017D01*
X102745Y102650D01*
D02*
G37*
G36*
X100287D02*
X98830D01*
X99092Y102017D01*
X99655Y101454D01*
X100287Y101192D01*
Y102650D01*
D02*
G37*
G36*
X95770Y105634D02*
X94781D01*
X93868Y105256D01*
X93169Y104557D01*
X92791Y103644D01*
Y102655D01*
X93169Y101742D01*
X93868Y101044D01*
X94781Y100665D01*
X95770D01*
X96683Y101044D01*
X97382Y101742D01*
X97760Y102655D01*
Y103644D01*
X97382Y104557D01*
X96683Y105256D01*
X95770Y105634D01*
D02*
G37*
G36*
X9156D02*
X8167D01*
X7254Y105256D01*
X6555Y104557D01*
X6177Y103644D01*
Y102655D01*
X6555Y101742D01*
X7254Y101044D01*
X8167Y100665D01*
X9156D01*
X10069Y101044D01*
X10768Y101742D01*
X11146Y102655D01*
Y103644D01*
X10768Y104557D01*
X10069Y105256D01*
X9156Y105634D01*
D02*
G37*
G36*
X217429Y102976D02*
Y99910D01*
X220496D01*
X220260Y100789D01*
X219790Y101604D01*
X219124Y102270D01*
X218309Y102741D01*
X217429Y102976D01*
D02*
G37*
G36*
X216429D02*
X215549Y102741D01*
X214734Y102270D01*
X214069Y101604D01*
X213598Y100789D01*
X213362Y99910D01*
X216429D01*
Y102976D01*
D02*
G37*
G36*
X248830Y102484D02*
X248020D01*
X247238Y102275D01*
X246537Y101870D01*
X245965Y101297D01*
X245560Y100596D01*
X245350Y99814D01*
Y99005D01*
X245560Y98223D01*
X245965Y97522D01*
X246537Y96949D01*
X247238Y96544D01*
X248020Y96335D01*
X248830D01*
X249612Y96544D01*
X250313Y96949D01*
X250886Y97522D01*
X251290Y98223D01*
X251500Y99005D01*
Y99814D01*
X251290Y100596D01*
X250886Y101297D01*
X250313Y101870D01*
X249612Y102275D01*
X248830Y102484D01*
D02*
G37*
G36*
X240956D02*
X240146D01*
X239364Y102275D01*
X238663Y101870D01*
X238091Y101297D01*
X237686Y100596D01*
X237476Y99814D01*
Y99005D01*
X237686Y98223D01*
X238091Y97522D01*
X238663Y96949D01*
X239364Y96544D01*
X240146Y96335D01*
X240956D01*
X241738Y96544D01*
X242439Y96949D01*
X243012Y97522D01*
X243416Y98223D01*
X243626Y99005D01*
Y99814D01*
X243416Y100596D01*
X243012Y101297D01*
X242439Y101870D01*
X241738Y102275D01*
X240956Y102484D01*
D02*
G37*
G36*
X235147Y125953D02*
X234223D01*
X233330Y125713D01*
X232529Y125251D01*
X231875Y124597D01*
X231413Y123796D01*
X231173Y122903D01*
Y121979D01*
X231413Y121086D01*
X231875Y120285D01*
X232026Y120134D01*
X231956Y120064D01*
X231735Y119734D01*
X231658Y119343D01*
Y102320D01*
X231490Y102275D01*
X230789Y101870D01*
X230217Y101297D01*
X229812Y100596D01*
X229602Y99814D01*
Y99005D01*
X229812Y98223D01*
X230217Y97522D01*
X230789Y96949D01*
X231490Y96544D01*
X232272Y96335D01*
X233082D01*
X233864Y96544D01*
X234565Y96949D01*
X235138Y97522D01*
X235542Y98223D01*
X235752Y99005D01*
Y99814D01*
X235542Y100596D01*
X235138Y101297D01*
X234565Y101870D01*
X233864Y102275D01*
X233697Y102320D01*
Y118035D01*
X234223Y118929D01*
X235147D01*
X236041Y119168D01*
X236841Y119631D01*
X237495Y120285D01*
X237958Y121086D01*
X238197Y121979D01*
Y122903D01*
X237958Y123796D01*
X237495Y124597D01*
X236841Y125251D01*
X236041Y125713D01*
X235147Y125953D01*
D02*
G37*
G36*
X225147D02*
X224223D01*
X223330Y125713D01*
X222529Y125251D01*
X221875Y124597D01*
X221413Y123796D01*
X221173Y122903D01*
Y121979D01*
X221413Y121086D01*
X221875Y120285D01*
X222529Y119631D01*
X223330Y119168D01*
X223725Y119063D01*
Y102304D01*
X223616Y102275D01*
X222915Y101870D01*
X222343Y101297D01*
X221938Y100596D01*
X221728Y99814D01*
Y99005D01*
X221938Y98223D01*
X222343Y97522D01*
X222915Y96949D01*
X223616Y96544D01*
X224398Y96335D01*
X225208D01*
X225990Y96544D01*
X226691Y96949D01*
X227264Y97522D01*
X227668Y98223D01*
X227878Y99005D01*
Y99814D01*
X227668Y100596D01*
X227264Y101297D01*
X226691Y101870D01*
X225990Y102275D01*
X225764Y102335D01*
Y119094D01*
X226041Y119168D01*
X226841Y119631D01*
X227495Y120285D01*
X227958Y121086D01*
X228197Y121979D01*
Y122903D01*
X227958Y123796D01*
X227495Y124597D01*
X226841Y125251D01*
X226041Y125713D01*
X225147Y125953D01*
D02*
G37*
G36*
X212130Y102484D02*
X205980D01*
Y96335D01*
X212130D01*
Y102484D01*
D02*
G37*
G36*
X220496Y98909D02*
X217429D01*
Y95842D01*
X218309Y96078D01*
X219124Y96549D01*
X219790Y97215D01*
X220260Y98030D01*
X220496Y98909D01*
D02*
G37*
G36*
X216429D02*
X213362D01*
X213598Y98030D01*
X214069Y97215D01*
X214734Y96549D01*
X215549Y96078D01*
X216429Y95842D01*
Y98909D01*
D02*
G37*
G36*
X95770Y97760D02*
X94781D01*
X93868Y97382D01*
X93169Y96683D01*
X92791Y95770D01*
Y94781D01*
X93169Y93868D01*
X93868Y93170D01*
X94781Y92791D01*
X95770D01*
X96683Y93170D01*
X97382Y93868D01*
X97760Y94781D01*
Y95770D01*
X97382Y96683D01*
X96683Y97382D01*
X95770Y97760D01*
D02*
G37*
G36*
X9156D02*
X8167D01*
X7254Y97382D01*
X6555Y96683D01*
X6177Y95770D01*
Y94781D01*
X6555Y93868D01*
X7254Y93170D01*
X8167Y92791D01*
X9156D01*
X10069Y93170D01*
X10768Y93868D01*
X11146Y94781D01*
Y95770D01*
X10768Y96683D01*
X10069Y97382D01*
X9156Y97760D01*
D02*
G37*
G36*
X184358Y86603D02*
Y85146D01*
X185816D01*
X185554Y85779D01*
X184991Y86341D01*
X184358Y86603D01*
D02*
G37*
G36*
X183358D02*
X182725Y86341D01*
X182163Y85779D01*
X181901Y85146D01*
X183358D01*
Y86603D01*
D02*
G37*
G36*
X95770Y89886D02*
X94781D01*
X93868Y89508D01*
X93169Y88809D01*
X92791Y87896D01*
Y86907D01*
X93169Y85994D01*
X93868Y85295D01*
X94781Y84917D01*
X95770D01*
X96683Y85295D01*
X97382Y85994D01*
X97760Y86907D01*
Y87896D01*
X97382Y88809D01*
X96683Y89508D01*
X95770Y89886D01*
D02*
G37*
G36*
X9156D02*
X8167D01*
X7254Y89508D01*
X6555Y88809D01*
X6177Y87896D01*
Y86907D01*
X6555Y85994D01*
X7254Y85295D01*
X8167Y84917D01*
X9156D01*
X10069Y85295D01*
X10768Y85994D01*
X11146Y86907D01*
Y87896D01*
X10768Y88809D01*
X10069Y89508D01*
X9156Y89886D01*
D02*
G37*
G36*
X185816Y84146D02*
X184358D01*
Y82688D01*
X184991Y82950D01*
X185554Y83513D01*
X185816Y84146D01*
D02*
G37*
G36*
X183358D02*
X181901D01*
X182163Y83513D01*
X182725Y82950D01*
X183358Y82688D01*
Y84146D01*
D02*
G37*
G36*
X152409Y80481D02*
Y79024D01*
X153867D01*
X153605Y79656D01*
X153042Y80219D01*
X152409Y80481D01*
D02*
G37*
G36*
X151409D02*
X150777Y80219D01*
X150214Y79656D01*
X149952Y79024D01*
X151409D01*
Y80481D01*
D02*
G37*
G36*
X185539Y79123D02*
Y77665D01*
X186997D01*
X186735Y78298D01*
X186172Y78861D01*
X185539Y79123D01*
D02*
G37*
G36*
X184539D02*
X183906Y78861D01*
X183344Y78298D01*
X183082Y77665D01*
X184539D01*
Y79123D01*
D02*
G37*
G36*
X95770Y82012D02*
X94781D01*
X93868Y81634D01*
X93169Y80935D01*
X92791Y80022D01*
Y79033D01*
X93169Y78120D01*
X93868Y77421D01*
X94781Y77043D01*
X95770D01*
X96683Y77421D01*
X97382Y78120D01*
X97760Y79033D01*
Y80022D01*
X97382Y80935D01*
X96683Y81634D01*
X95770Y82012D01*
D02*
G37*
G36*
X9156D02*
X8167D01*
X7254Y81634D01*
X6555Y80935D01*
X6177Y80022D01*
Y79033D01*
X6555Y78120D01*
X7254Y77421D01*
X8167Y77043D01*
X9156D01*
X10069Y77421D01*
X10768Y78120D01*
X11146Y79033D01*
Y80022D01*
X10768Y80935D01*
X10069Y81634D01*
X9156Y82012D01*
D02*
G37*
G36*
X153867Y78024D02*
X152409D01*
Y76566D01*
X153042Y76828D01*
X153605Y77391D01*
X153867Y78024D01*
D02*
G37*
G36*
X151409D02*
X149952D01*
X150214Y77391D01*
X150777Y76828D01*
X151409Y76566D01*
Y78024D01*
D02*
G37*
G36*
X186997Y76665D02*
X185539D01*
Y75208D01*
X186172Y75470D01*
X186735Y76032D01*
X186997Y76665D01*
D02*
G37*
G36*
X184539D02*
X183082D01*
X183344Y76032D01*
X183906Y75470D01*
X184539Y75208D01*
Y76665D01*
D02*
G37*
G36*
X131701Y75678D02*
Y74221D01*
X133159D01*
X132896Y74853D01*
X132334Y75416D01*
X131701Y75678D01*
D02*
G37*
G36*
X130701D02*
X130068Y75416D01*
X129505Y74853D01*
X129243Y74221D01*
X130701D01*
Y75678D01*
D02*
G37*
G36*
X133159Y73220D02*
X131701D01*
Y71763D01*
X132334Y72025D01*
X132896Y72588D01*
X133159Y73220D01*
D02*
G37*
G36*
X130701D02*
X129243D01*
X129505Y72588D01*
X130068Y72025D01*
X130701Y71763D01*
Y73220D01*
D02*
G37*
G36*
X196563Y74111D02*
Y71366D01*
X199308D01*
X199104Y72126D01*
X198675Y72870D01*
X198067Y73478D01*
X197323Y73908D01*
X196563Y74111D01*
D02*
G37*
G36*
X195563D02*
X194803Y73908D01*
X194059Y73478D01*
X193451Y72870D01*
X193022Y72126D01*
X192818Y71366D01*
X195563D01*
Y74111D01*
D02*
G37*
G36*
X95770Y74138D02*
X94781D01*
X93868Y73760D01*
X93169Y73061D01*
X92791Y72148D01*
Y71159D01*
X93169Y70246D01*
X93868Y69547D01*
X94781Y69169D01*
X95770D01*
X96683Y69547D01*
X97382Y70246D01*
X97760Y71159D01*
Y72148D01*
X97382Y73061D01*
X96683Y73760D01*
X95770Y74138D01*
D02*
G37*
G36*
X9156D02*
X8167D01*
X7254Y73760D01*
X6555Y73061D01*
X6177Y72148D01*
Y71159D01*
X6555Y70246D01*
X7254Y69547D01*
X8167Y69169D01*
X9156D01*
X10069Y69547D01*
X10768Y70246D01*
X11146Y71159D01*
Y72148D01*
X10768Y73061D01*
X10069Y73760D01*
X9156Y74138D01*
D02*
G37*
G36*
X171760Y70462D02*
Y69004D01*
X173217D01*
X172955Y69637D01*
X172393Y70200D01*
X171760Y70462D01*
D02*
G37*
G36*
X170760D02*
X170127Y70200D01*
X169564Y69637D01*
X169302Y69004D01*
X170760D01*
Y70462D01*
D02*
G37*
G36*
X222449Y73630D02*
X216921D01*
Y68102D01*
X222449D01*
Y73630D01*
D02*
G37*
G36*
X212175D02*
X211447D01*
X210744Y73442D01*
X210114Y73078D01*
X209599Y72563D01*
X209236Y71933D01*
X209047Y71230D01*
Y70502D01*
X209236Y69799D01*
X209599Y69169D01*
X210114Y68655D01*
X210744Y68291D01*
X211447Y68102D01*
X212175D01*
X212878Y68291D01*
X213508Y68655D01*
X214023Y69169D01*
X214387Y69799D01*
X214575Y70502D01*
Y71230D01*
X214387Y71933D01*
X214023Y72563D01*
X213508Y73078D01*
X212878Y73442D01*
X212175Y73630D01*
D02*
G37*
G36*
X204301D02*
X203573D01*
X202870Y73442D01*
X202240Y73078D01*
X201725Y72563D01*
X201362Y71933D01*
X201173Y71230D01*
Y70502D01*
X201362Y69799D01*
X201725Y69169D01*
X202240Y68655D01*
X202870Y68291D01*
X203573Y68102D01*
X204301D01*
X205004Y68291D01*
X205634Y68655D01*
X206149Y69169D01*
X206512Y69799D01*
X206701Y70502D01*
Y71230D01*
X206512Y71933D01*
X206149Y72563D01*
X205634Y73078D01*
X205004Y73442D01*
X204301Y73630D01*
D02*
G37*
G36*
X199308Y70366D02*
X196563D01*
Y67621D01*
X197323Y67825D01*
X198067Y68255D01*
X198675Y68862D01*
X199104Y69606D01*
X199308Y70366D01*
D02*
G37*
G36*
X195563D02*
X192818D01*
X193022Y69606D01*
X193451Y68862D01*
X194059Y68255D01*
X194803Y67825D01*
X195563Y67621D01*
Y70366D01*
D02*
G37*
G36*
X173217Y68004D02*
X171760D01*
Y66546D01*
X172393Y66808D01*
X172955Y67371D01*
X173217Y68004D01*
D02*
G37*
G36*
X170760D02*
X169302D01*
X169564Y67371D01*
X170127Y66808D01*
X170760Y66546D01*
Y68004D01*
D02*
G37*
G36*
X9161Y66735D02*
Y64280D01*
X11617D01*
X11442Y64931D01*
X11049Y65612D01*
X10494Y66167D01*
X9813Y66560D01*
X9161Y66735D01*
D02*
G37*
G36*
X8161D02*
X7509Y66560D01*
X6829Y66167D01*
X6273Y65612D01*
X5881Y64931D01*
X5706Y64280D01*
X8161D01*
Y66735D01*
D02*
G37*
G36*
X95770Y66264D02*
X94781D01*
X93868Y65886D01*
X93169Y65187D01*
X92791Y64274D01*
Y63285D01*
X93169Y62372D01*
X93868Y61673D01*
X94781Y61295D01*
X95770D01*
X96683Y61673D01*
X97382Y62372D01*
X97760Y63285D01*
Y64274D01*
X97382Y65187D01*
X96683Y65886D01*
X95770Y66264D01*
D02*
G37*
G36*
X11617Y63279D02*
X9161D01*
Y60824D01*
X9813Y60999D01*
X10494Y61392D01*
X11049Y61947D01*
X11442Y62628D01*
X11617Y63279D01*
D02*
G37*
G36*
X8161D02*
X5706D01*
X5881Y62628D01*
X6273Y61947D01*
X6829Y61392D01*
X7509Y60999D01*
X8161Y60824D01*
Y63279D01*
D02*
G37*
G36*
X229045Y61910D02*
X228953D01*
Y57910D01*
X232953D01*
Y58002D01*
X232646Y59146D01*
X232054Y60172D01*
X231216Y61010D01*
X230190Y61603D01*
X229045Y61910D01*
D02*
G37*
G36*
X227953D02*
X227860D01*
X226716Y61603D01*
X225690Y61010D01*
X224852Y60172D01*
X224259Y59146D01*
X223953Y58002D01*
Y57910D01*
X227953D01*
Y61910D01*
D02*
G37*
G36*
X183620Y61370D02*
X183528D01*
Y57370D01*
X187528D01*
Y57463D01*
X187221Y58607D01*
X186628Y59633D01*
X185791Y60471D01*
X184765Y61063D01*
X183620Y61370D01*
D02*
G37*
G36*
X182528D02*
X182435D01*
X181291Y61063D01*
X180264Y60471D01*
X179427Y59633D01*
X178834Y58607D01*
X178528Y57463D01*
Y57370D01*
X182528D01*
Y61370D01*
D02*
G37*
G36*
X155641Y57512D02*
X155618D01*
Y54043D01*
X159087D01*
Y54066D01*
X158816Y55075D01*
X158294Y55980D01*
X157555Y56719D01*
X156650Y57241D01*
X155641Y57512D01*
D02*
G37*
G36*
X154618D02*
X154596D01*
X153586Y57241D01*
X152681Y56719D01*
X151943Y55980D01*
X151420Y55075D01*
X151150Y54066D01*
Y54043D01*
X154618D01*
Y57512D01*
D02*
G37*
G36*
X232953Y56910D02*
X228953D01*
Y52909D01*
X229045D01*
X230190Y53216D01*
X231216Y53809D01*
X232054Y54646D01*
X232646Y55673D01*
X232953Y56817D01*
Y56910D01*
D02*
G37*
G36*
X227953D02*
X223953D01*
Y56817D01*
X224259Y55673D01*
X224852Y54646D01*
X225690Y53809D01*
X226716Y53216D01*
X227860Y52909D01*
X227953D01*
Y56910D01*
D02*
G37*
G36*
X187528Y56370D02*
X183528D01*
Y52370D01*
X183620D01*
X184765Y52677D01*
X185791Y53269D01*
X186628Y54107D01*
X187221Y55133D01*
X187528Y56278D01*
Y56370D01*
D02*
G37*
G36*
X182528D02*
X178528D01*
Y56278D01*
X178834Y55133D01*
X179427Y54107D01*
X180264Y53269D01*
X181291Y52677D01*
X182435Y52370D01*
X182528D01*
Y56370D01*
D02*
G37*
G36*
X145732Y57012D02*
X144819D01*
X143937Y56775D01*
X143146Y56319D01*
X142500Y55673D01*
X142043Y54882D01*
X141807Y54000D01*
Y53087D01*
X142043Y52205D01*
X142500Y51414D01*
X143146Y50768D01*
X143937Y50311D01*
X144819Y50075D01*
X145732D01*
X146614Y50311D01*
X147405Y50768D01*
X148051Y51414D01*
X148508Y52205D01*
X148744Y53087D01*
Y54000D01*
X148508Y54882D01*
X148051Y55673D01*
X147405Y56319D01*
X146614Y56775D01*
X145732Y57012D01*
D02*
G37*
G36*
X135890D02*
X134976D01*
X134094Y56775D01*
X133303Y56319D01*
X132658Y55673D01*
X132201Y54882D01*
X131965Y54000D01*
Y53087D01*
X132201Y52205D01*
X132658Y51414D01*
X133303Y50768D01*
X134094Y50311D01*
X134976Y50075D01*
X135890D01*
X136772Y50311D01*
X137563Y50768D01*
X138209Y51414D01*
X138665Y52205D01*
X138902Y53087D01*
Y54000D01*
X138665Y54882D01*
X138209Y55673D01*
X137563Y56319D01*
X136772Y56775D01*
X135890Y57012D01*
D02*
G37*
G36*
X126047D02*
X125134D01*
X124252Y56775D01*
X123461Y56319D01*
X122815Y55673D01*
X122358Y54882D01*
X122122Y54000D01*
Y53087D01*
X122358Y52205D01*
X122815Y51414D01*
X123461Y50768D01*
X124252Y50311D01*
X125134Y50075D01*
X126047D01*
X126929Y50311D01*
X127720Y50768D01*
X128366Y51414D01*
X128823Y52205D01*
X129059Y53087D01*
Y54000D01*
X128823Y54882D01*
X128366Y55673D01*
X127720Y56319D01*
X126929Y56775D01*
X126047Y57012D01*
D02*
G37*
G36*
X119217D02*
X112279D01*
Y50075D01*
X119217D01*
Y57012D01*
D02*
G37*
G36*
X159087Y53043D02*
X155618D01*
Y49575D01*
X155641D01*
X156650Y49845D01*
X157555Y50368D01*
X158294Y51107D01*
X158816Y52012D01*
X159087Y53021D01*
Y53043D01*
D02*
G37*
G36*
X154618D02*
X151150D01*
Y53021D01*
X151420Y52012D01*
X151943Y51107D01*
X152681Y50368D01*
X153586Y49845D01*
X154596Y49575D01*
X154618D01*
Y53043D01*
D02*
G37*
G36*
X274936Y52425D02*
X274909D01*
Y48925D01*
X278410D01*
Y48952D01*
X278137Y49969D01*
X277610Y50881D01*
X276866Y51626D01*
X275953Y52153D01*
X274936Y52425D01*
D02*
G37*
G36*
X273909D02*
X273883D01*
X272866Y52153D01*
X271953Y51626D01*
X271209Y50881D01*
X270682Y49969D01*
X270409Y48952D01*
Y48925D01*
X273909D01*
Y52425D01*
D02*
G37*
G36*
X214231Y48169D02*
X213178D01*
X212161Y47897D01*
X211249Y47370D01*
X211074Y47195D01*
X207642D01*
X207642Y47195D01*
X206859Y47092D01*
X206129Y46790D01*
X205502Y46309D01*
X205502Y46309D01*
X195136Y35943D01*
X194655Y35316D01*
X194353Y34586D01*
X194250Y33803D01*
Y28115D01*
X193250Y27701D01*
X192846Y28105D01*
X191820Y28697D01*
X190675Y29004D01*
X190583D01*
Y24504D01*
X190083D01*
Y24004D01*
X185583D01*
Y23911D01*
X185889Y22767D01*
X186482Y21741D01*
X187097Y21126D01*
X186804Y20199D01*
X186751Y20126D01*
X175757D01*
X175248Y21007D01*
X174503Y21752D01*
X173591Y22279D01*
X172574Y22551D01*
X171521D01*
X170503Y22279D01*
X169591Y21752D01*
X168846Y21007D01*
X168320Y20095D01*
X168047Y19078D01*
Y18025D01*
X168320Y17007D01*
X168846Y16095D01*
X169591Y15350D01*
X170503Y14824D01*
X171521Y14551D01*
X172433D01*
X172527Y14480D01*
X173257Y14177D01*
X174040Y14074D01*
X194347D01*
X195130Y14177D01*
X195860Y14480D01*
X196486Y14960D01*
X199415Y17889D01*
X199415Y17889D01*
X199896Y18516D01*
X200198Y19246D01*
X200302Y20029D01*
X200302Y20029D01*
Y32550D01*
X208895Y41143D01*
X211074D01*
X211249Y40968D01*
X212161Y40442D01*
X213178Y40169D01*
X214231D01*
X215249Y40442D01*
X216161Y40968D01*
X216905Y41713D01*
X217432Y42625D01*
X217705Y43643D01*
Y44696D01*
X217432Y45713D01*
X216905Y46625D01*
X216161Y47370D01*
X215249Y47897D01*
X214231Y48169D01*
D02*
G37*
G36*
X37306Y128272D02*
X36709D01*
X36158Y128043D01*
X35736Y127621D01*
X35508Y127070D01*
Y126473D01*
X35736Y125922D01*
X35988Y125670D01*
Y59230D01*
X22185Y45427D01*
X22133Y45457D01*
X21430Y45646D01*
X20702D01*
X19999Y45457D01*
X19369Y45094D01*
X18855Y44579D01*
X18491Y43949D01*
X18302Y43246D01*
Y42518D01*
X18491Y41815D01*
X18855Y41185D01*
X19369Y40670D01*
X19999Y40306D01*
X20702Y40118D01*
X21430D01*
X22133Y40306D01*
X22763Y40670D01*
X23278Y41185D01*
X23642Y41815D01*
X23830Y42518D01*
Y43246D01*
X23642Y43949D01*
X23623Y43981D01*
X37729Y58087D01*
X37950Y58418D01*
X38028Y58808D01*
Y125670D01*
X38280Y125922D01*
X38508Y126473D01*
Y127070D01*
X38280Y127621D01*
X37858Y128043D01*
X37306Y128272D01*
D02*
G37*
G36*
X278410Y47925D02*
X274909D01*
Y44425D01*
X274936D01*
X275953Y44698D01*
X276866Y45224D01*
X277610Y45969D01*
X278137Y46881D01*
X278410Y47899D01*
Y47925D01*
D02*
G37*
G36*
X273909D02*
X270409D01*
Y47899D01*
X270682Y46881D01*
X271209Y45969D01*
X271953Y45224D01*
X272866Y44698D01*
X273883Y44425D01*
X273909D01*
Y47925D01*
D02*
G37*
G36*
X37314Y46127D02*
Y43382D01*
X40059D01*
X39856Y44142D01*
X39426Y44886D01*
X38818Y45494D01*
X38074Y45923D01*
X37314Y46127D01*
D02*
G37*
G36*
X36314D02*
X35554Y45923D01*
X34810Y45494D01*
X34203Y44886D01*
X33773Y44142D01*
X33569Y43382D01*
X36314D01*
Y46127D01*
D02*
G37*
G36*
X29304Y45646D02*
X28576D01*
X27873Y45457D01*
X27243Y45094D01*
X26729Y44579D01*
X26365Y43949D01*
X26176Y43246D01*
Y42518D01*
X26365Y41815D01*
X26729Y41185D01*
X27243Y40670D01*
X27873Y40306D01*
X28576Y40118D01*
X29304D01*
X30007Y40306D01*
X30637Y40670D01*
X31152Y41185D01*
X31516Y41815D01*
X31704Y42518D01*
Y43246D01*
X31516Y43949D01*
X31152Y44579D01*
X30637Y45094D01*
X30007Y45457D01*
X29304Y45646D01*
D02*
G37*
G36*
X15956D02*
X10428D01*
Y40118D01*
X15956D01*
Y45646D01*
D02*
G37*
G36*
X40059Y42382D02*
X37314D01*
Y39637D01*
X38074Y39840D01*
X38818Y40270D01*
X39426Y40878D01*
X39856Y41622D01*
X40059Y42382D01*
D02*
G37*
G36*
X36314D02*
X33569D01*
X33773Y41622D01*
X34203Y40878D01*
X34810Y40270D01*
X35554Y39840D01*
X36314Y39637D01*
Y42382D01*
D02*
G37*
G36*
X261130Y63492D02*
X236508D01*
Y38870D01*
X261130D01*
Y63492D01*
D02*
G37*
G36*
X129694Y32350D02*
X123545D01*
Y26201D01*
X129694D01*
Y32350D01*
D02*
G37*
G36*
X153075Y32209D02*
X146925D01*
Y26059D01*
X153075D01*
Y32209D01*
D02*
G37*
G36*
X189583Y29004D02*
X189490D01*
X188346Y28697D01*
X187320Y28105D01*
X186482Y27267D01*
X185889Y26241D01*
X185583Y25096D01*
Y25004D01*
X189583D01*
Y29004D01*
D02*
G37*
G36*
X249827Y35646D02*
X249319D01*
Y23335D01*
X261630D01*
Y23843D01*
X261315Y25835D01*
X260691Y27752D01*
X259776Y29549D01*
X258591Y31181D01*
X257165Y32606D01*
X255533Y33792D01*
X253737Y34707D01*
X251819Y35330D01*
X249827Y35646D01*
D02*
G37*
G36*
X248319D02*
X247811D01*
X245819Y35330D01*
X243901Y34707D01*
X242105Y33792D01*
X240473Y32606D01*
X239047Y31181D01*
X237862Y29549D01*
X236947Y27752D01*
X236323Y25835D01*
X236008Y23843D01*
Y23335D01*
X248319D01*
Y35646D01*
D02*
G37*
G36*
X223297Y25803D02*
X223205D01*
Y21803D01*
X227205D01*
Y21896D01*
X226898Y23040D01*
X226306Y24066D01*
X225468Y24904D01*
X224442Y25497D01*
X223297Y25803D01*
D02*
G37*
G36*
X222205D02*
X222112D01*
X220968Y25497D01*
X219942Y24904D01*
X219104Y24066D01*
X218511Y23040D01*
X218205Y21896D01*
Y21803D01*
X222205D01*
Y25803D01*
D02*
G37*
G36*
X90286Y23654D02*
X90264D01*
Y20185D01*
X93732D01*
Y20208D01*
X93462Y21217D01*
X92939Y22122D01*
X92200Y22861D01*
X91296Y23383D01*
X90286Y23654D01*
D02*
G37*
G36*
X89264D02*
X89241D01*
X88232Y23383D01*
X87327Y22861D01*
X86588Y22122D01*
X86066Y21217D01*
X85795Y20208D01*
Y20185D01*
X89264D01*
Y23654D01*
D02*
G37*
G36*
X127024Y24476D02*
X126215D01*
X125433Y24267D01*
X124732Y23862D01*
X124159Y23290D01*
X123754Y22588D01*
X123545Y21806D01*
Y20997D01*
X123754Y20215D01*
X124159Y19514D01*
X124732Y18941D01*
X125433Y18536D01*
X126215Y18327D01*
X127024D01*
X127806Y18536D01*
X128508Y18941D01*
X129080Y19514D01*
X129485Y20215D01*
X129694Y20997D01*
Y21806D01*
X129485Y22588D01*
X129080Y23290D01*
X128508Y23862D01*
X127806Y24267D01*
X127024Y24476D01*
D02*
G37*
G36*
X150405Y24335D02*
X149595D01*
X148813Y24125D01*
X148112Y23720D01*
X147540Y23148D01*
X147135Y22447D01*
X146925Y21665D01*
Y20855D01*
X147135Y20073D01*
X147540Y19372D01*
X148112Y18799D01*
X148813Y18395D01*
X149595Y18185D01*
X150405D01*
X151187Y18395D01*
X151888Y18799D01*
X152460Y19372D01*
X152865Y20073D01*
X153075Y20855D01*
Y21665D01*
X152865Y22447D01*
X152460Y23148D01*
X151888Y23720D01*
X151187Y24125D01*
X150405Y24335D01*
D02*
G37*
G36*
X227205Y20803D02*
X223205D01*
Y16803D01*
X223297D01*
X224442Y17110D01*
X225468Y17702D01*
X226306Y18540D01*
X226898Y19566D01*
X227205Y20711D01*
Y20803D01*
D02*
G37*
G36*
X222205D02*
X218205D01*
Y20711D01*
X218511Y19566D01*
X219104Y18540D01*
X219942Y17702D01*
X220968Y17110D01*
X222112Y16803D01*
X222205D01*
Y20803D01*
D02*
G37*
G36*
X80378Y23154D02*
X79465D01*
X78583Y22917D01*
X77792Y22460D01*
X77146Y21815D01*
X76689Y21024D01*
X76453Y20142D01*
Y19228D01*
X76689Y18346D01*
X77146Y17555D01*
X77792Y16910D01*
X78583Y16453D01*
X79465Y16217D01*
X80378D01*
X81260Y16453D01*
X82051Y16910D01*
X82697Y17555D01*
X83153Y18346D01*
X83390Y19228D01*
Y20142D01*
X83153Y21024D01*
X82697Y21815D01*
X82051Y22460D01*
X81260Y22917D01*
X80378Y23154D01*
D02*
G37*
G36*
X70535D02*
X69622D01*
X68740Y22917D01*
X67949Y22460D01*
X67303Y21815D01*
X66847Y21024D01*
X66610Y20142D01*
Y19228D01*
X66847Y18346D01*
X67303Y17555D01*
X67949Y16910D01*
X68740Y16453D01*
X69622Y16217D01*
X70535D01*
X71417Y16453D01*
X72208Y16910D01*
X72854Y17555D01*
X73311Y18346D01*
X73547Y19228D01*
Y20142D01*
X73311Y21024D01*
X72854Y21815D01*
X72208Y22460D01*
X71417Y22917D01*
X70535Y23154D01*
D02*
G37*
G36*
X60693D02*
X59780D01*
X58897Y22917D01*
X58106Y22460D01*
X57461Y21815D01*
X57004Y21024D01*
X56768Y20142D01*
Y19228D01*
X57004Y18346D01*
X57461Y17555D01*
X58106Y16910D01*
X58897Y16453D01*
X59780Y16217D01*
X60693D01*
X61575Y16453D01*
X62366Y16910D01*
X63012Y17555D01*
X63468Y18346D01*
X63705Y19228D01*
Y20142D01*
X63468Y21024D01*
X63012Y21815D01*
X62366Y22460D01*
X61575Y22917D01*
X60693Y23154D01*
D02*
G37*
G36*
X53862D02*
X46925D01*
Y16217D01*
X53862D01*
Y23154D01*
D02*
G37*
G36*
X93732Y19185D02*
X90264D01*
Y15717D01*
X90286D01*
X91296Y15987D01*
X92200Y16510D01*
X92939Y17248D01*
X93462Y18153D01*
X93732Y19163D01*
Y19185D01*
D02*
G37*
G36*
X89264D02*
X85795D01*
Y19163D01*
X86066Y18153D01*
X86588Y17248D01*
X87327Y16510D01*
X88232Y15987D01*
X89241Y15717D01*
X89264D01*
Y19185D01*
D02*
G37*
G36*
X127120Y17095D02*
Y14028D01*
X130187D01*
X129951Y14907D01*
X129480Y15723D01*
X128815Y16388D01*
X127999Y16859D01*
X127120Y17095D01*
D02*
G37*
G36*
X126120D02*
X125240Y16859D01*
X124425Y16388D01*
X123759Y15723D01*
X123289Y14907D01*
X123053Y14028D01*
X126120D01*
Y17095D01*
D02*
G37*
G36*
X150500Y16953D02*
Y13886D01*
X153567D01*
X153331Y14766D01*
X152860Y15581D01*
X152195Y16246D01*
X151380Y16717D01*
X150500Y16953D01*
D02*
G37*
G36*
X149500D02*
X148620Y16717D01*
X147805Y16246D01*
X147140Y15581D01*
X146669Y14766D01*
X146433Y13886D01*
X149500D01*
Y16953D01*
D02*
G37*
G36*
X261630Y22335D02*
X249319D01*
Y10024D01*
X249827D01*
X251819Y10339D01*
X253737Y10962D01*
X255533Y11878D01*
X257165Y13063D01*
X258591Y14489D01*
X259776Y16120D01*
X260691Y17917D01*
X261315Y19835D01*
X261630Y21826D01*
Y22335D01*
D02*
G37*
G36*
X248319D02*
X236008D01*
Y21826D01*
X236323Y19835D01*
X236947Y17917D01*
X237862Y16120D01*
X239047Y14489D01*
X240473Y13063D01*
X242105Y11878D01*
X243901Y10962D01*
X245819Y10339D01*
X247811Y10024D01*
X248319D01*
Y22335D01*
D02*
G37*
G36*
X224792Y14000D02*
X224700D01*
Y10000D01*
X228700D01*
Y10092D01*
X228393Y11237D01*
X227801Y12263D01*
X226963Y13101D01*
X225937Y13693D01*
X224792Y14000D01*
D02*
G37*
G36*
X223700D02*
X223608D01*
X222463Y13693D01*
X221437Y13101D01*
X220599Y12263D01*
X220007Y11237D01*
X219700Y10092D01*
Y10000D01*
X223700D01*
Y14000D01*
D02*
G37*
G36*
X203892D02*
X203800D01*
Y10000D01*
X207800D01*
Y10092D01*
X207493Y11237D01*
X206901Y12263D01*
X206063Y13101D01*
X205037Y13693D01*
X203892Y14000D01*
D02*
G37*
G36*
X202800D02*
X202708D01*
X201563Y13693D01*
X200537Y13101D01*
X199699Y12263D01*
X199107Y11237D01*
X198800Y10092D01*
Y10000D01*
X202800D01*
Y14000D01*
D02*
G37*
G36*
X126120Y13028D02*
X123053D01*
X123289Y12148D01*
X123759Y11333D01*
X124425Y10667D01*
X125240Y10196D01*
X126120Y9961D01*
Y13028D01*
D02*
G37*
G36*
X130187D02*
X127120D01*
Y9961D01*
X127999Y10196D01*
X128815Y10667D01*
X129480Y11333D01*
X129951Y12148D01*
X130187Y13028D01*
D02*
G37*
G36*
X153567Y12886D02*
X150500D01*
Y9819D01*
X151380Y10055D01*
X152195Y10525D01*
X152860Y11191D01*
X153331Y12006D01*
X153567Y12886D01*
D02*
G37*
G36*
X149500D02*
X146433D01*
X146669Y12006D01*
X147140Y11191D01*
X147805Y10525D01*
X148620Y10055D01*
X149500Y9819D01*
Y12886D01*
D02*
G37*
G36*
X274056Y19004D02*
X272716D01*
X271403Y18743D01*
X270165Y18230D01*
X269052Y17486D01*
X268105Y16539D01*
X267360Y15425D01*
X266848Y14188D01*
X266587Y12874D01*
Y11535D01*
X266848Y10221D01*
X267360Y8984D01*
X268105Y7870D01*
X269052Y6923D01*
X270165Y6179D01*
X271403Y5667D01*
X272716Y5406D01*
X274056D01*
X275369Y5667D01*
X276606Y6179D01*
X277720Y6923D01*
X278667Y7870D01*
X279411Y8984D01*
X279924Y10221D01*
X280185Y11535D01*
Y12874D01*
X279924Y14188D01*
X279411Y15425D01*
X278667Y16539D01*
X277720Y17486D01*
X276606Y18230D01*
X275369Y18743D01*
X274056Y19004D01*
D02*
G37*
G36*
X12874D02*
X11535D01*
X10221Y18743D01*
X8984Y18230D01*
X7870Y17486D01*
X6923Y16539D01*
X6179Y15425D01*
X5667Y14188D01*
X5406Y12874D01*
Y11535D01*
X5667Y10221D01*
X6179Y8984D01*
X6923Y7870D01*
X7870Y6923D01*
X8984Y6179D01*
X10221Y5667D01*
X11535Y5406D01*
X12874D01*
X14188Y5667D01*
X15425Y6179D01*
X16539Y6923D01*
X17486Y7870D01*
X18230Y8984D01*
X18743Y10221D01*
X19004Y11535D01*
Y12874D01*
X18743Y14188D01*
X18230Y15425D01*
X17486Y16539D01*
X16539Y17486D01*
X15425Y18230D01*
X14188Y18743D01*
X12874Y19004D01*
D02*
G37*
G36*
X228700Y9000D02*
X224700D01*
Y5000D01*
X224792D01*
X225937Y5307D01*
X226963Y5899D01*
X227801Y6737D01*
X228393Y7763D01*
X228700Y8908D01*
Y9000D01*
D02*
G37*
G36*
X223700D02*
X219700D01*
Y8908D01*
X220007Y7763D01*
X220599Y6737D01*
X221437Y5899D01*
X222463Y5307D01*
X223608Y5000D01*
X223700D01*
Y9000D01*
D02*
G37*
G36*
X207800D02*
X203800D01*
Y5000D01*
X203892D01*
X205037Y5307D01*
X206063Y5899D01*
X206901Y6737D01*
X207493Y7763D01*
X207800Y8908D01*
Y9000D01*
D02*
G37*
G36*
X202800D02*
X198800D01*
Y8908D01*
X199107Y7763D01*
X199699Y6737D01*
X200537Y5899D01*
X201563Y5307D01*
X202708Y5000D01*
X202800D01*
Y9000D01*
D02*
G37*
%LPD*%
G36*
X158350Y163528D02*
X158902Y163300D01*
X159498D01*
X159791Y163421D01*
X160552Y163073D01*
X160791Y162856D01*
Y160515D01*
X159170D01*
X159170Y160515D01*
X158170Y160138D01*
X157830Y160335D01*
X157159Y160515D01*
X156463D01*
X155792Y160335D01*
X155190Y159987D01*
X154939Y159737D01*
X154311Y159587D01*
X153683Y159737D01*
X153432Y159987D01*
X152830Y160335D01*
X152159Y160515D01*
X151463D01*
X150792Y160335D01*
X150190Y159987D01*
X149939Y159737D01*
X149311Y159587D01*
X148683Y159737D01*
X148432Y159987D01*
X147830Y160335D01*
X147276Y160483D01*
X147065Y160867D01*
X146894Y161515D01*
X149159Y163780D01*
X158098D01*
X158350Y163528D01*
D02*
G37*
D12*
X106600Y224500D02*
X122739D01*
X161313Y185927D01*
X143047Y142221D02*
Y143567D01*
X135039Y151575D02*
X143047Y143567D01*
Y142221D02*
X143142Y142126D01*
X99900Y170100D02*
Y180021D01*
Y170100D02*
X118425Y151575D01*
X135039D01*
X88976Y190945D02*
X99900Y180021D01*
X37008Y58808D02*
Y126772D01*
X20707Y42507D02*
X37008Y58808D01*
X141811Y157874D02*
X148737Y164800D01*
X159200D01*
X156043Y171909D02*
Y180965D01*
X151181Y185827D02*
X156043Y180965D01*
Y171909D02*
X161811Y166142D01*
X149213Y185827D02*
X151181D01*
X161811Y157874D02*
Y166142D01*
X107874Y123228D02*
X117323D01*
X232677Y119343D02*
X234685Y121351D01*
X232677Y99410D02*
Y119343D01*
X234685Y121351D02*
Y122441D01*
X224685D02*
X224744Y122382D01*
Y99468D02*
Y122382D01*
Y99468D02*
X224803Y99410D01*
X95276Y134646D02*
X96079D01*
X96952Y133773D01*
X97330D01*
X107874Y123228D01*
D34*
X219685Y70866D02*
D03*
X13192Y42882D02*
D03*
X214674Y200600D02*
D03*
D67*
X273386Y12205D02*
D03*
Y226535D02*
D03*
X12205Y12205D02*
D03*
Y226535D02*
D03*
X274410Y48425D02*
D03*
D76*
X172047Y18551D02*
X172588D01*
X174040Y17100D02*
X194347D01*
X197276Y20029D02*
Y33803D01*
X172588Y18551D02*
X174040Y17100D01*
X194347D02*
X197276Y20029D01*
X207642Y44169D02*
X213705D01*
X197276Y33803D02*
X207642Y44169D01*
D79*
X88976Y183071D02*
D03*
Y190945D02*
D03*
Y198819D02*
D03*
X191052Y200600D02*
D03*
X203937Y70866D02*
D03*
X196063D02*
D03*
X36814Y42882D02*
D03*
X21066D02*
D03*
X198926Y200600D02*
D03*
X206800D02*
D03*
X57874Y190945D02*
D03*
Y183071D02*
D03*
Y175197D02*
D03*
X211811Y70866D02*
D03*
X28940Y42882D02*
D03*
D80*
X88976Y175197D02*
D03*
X57874Y198819D02*
D03*
D81*
X175000Y196100D02*
D03*
X106600Y214500D02*
D03*
D82*
X175000Y206100D02*
D03*
X106600Y224500D02*
D03*
X232520Y195669D02*
D03*
X242520D02*
D03*
D83*
X248819Y51181D02*
D03*
D84*
X204685Y122441D02*
D03*
X214685D02*
D03*
X244685D02*
D03*
X254685D02*
D03*
X234685D02*
D03*
X224685D02*
D03*
D85*
X115748Y53543D02*
D03*
X50394Y19685D02*
D03*
D86*
X161811Y227874D02*
D03*
D87*
X209055Y99410D02*
D03*
D88*
X156811Y227874D02*
D03*
X151811D02*
D03*
X131811D02*
D03*
X136811D02*
D03*
X141811D02*
D03*
X146811D02*
D03*
D89*
X8661Y134646D02*
D03*
D90*
X216929Y99410D02*
D03*
X150000Y13386D02*
D03*
X126620Y13528D02*
D03*
X240551Y99410D02*
D03*
X224803D02*
D03*
X232677D02*
D03*
X248425D02*
D03*
X126620Y21402D02*
D03*
X150000Y21260D02*
D03*
D91*
X248819Y22835D02*
D03*
D92*
X121811Y157874D02*
D03*
X136811D02*
D03*
X146811D02*
D03*
X141811D02*
D03*
X151811D02*
D03*
X126811D02*
D03*
X131811D02*
D03*
X156811D02*
D03*
D93*
X155118Y53543D02*
D03*
X89764Y19685D02*
D03*
X145276Y53543D02*
D03*
X125591D02*
D03*
X135433D02*
D03*
X79921Y19685D02*
D03*
X60236D02*
D03*
X70079D02*
D03*
D94*
X8661Y63779D02*
D03*
Y126772D02*
D03*
Y118898D02*
D03*
Y111024D02*
D03*
Y103150D02*
D03*
Y95276D02*
D03*
Y87402D02*
D03*
Y79528D02*
D03*
Y71653D02*
D03*
X95276Y134646D02*
D03*
Y126772D02*
D03*
Y118898D02*
D03*
Y111024D02*
D03*
Y103150D02*
D03*
Y95276D02*
D03*
Y87402D02*
D03*
Y79528D02*
D03*
Y71653D02*
D03*
Y63779D02*
D03*
D95*
X150000Y29134D02*
D03*
X126620Y29276D02*
D03*
D96*
X10236Y172441D02*
D03*
D97*
X161811Y157874D02*
D03*
D98*
X252520Y195669D02*
D03*
D99*
X269685Y172441D02*
D03*
X189764D02*
D03*
Y122441D02*
D03*
X269685D02*
D03*
D100*
X143142Y142126D02*
D03*
X161313Y185927D02*
D03*
X149213Y185827D02*
D03*
X129300Y135800D02*
D03*
X159200Y164800D02*
D03*
X181395Y135534D02*
D03*
X165772Y184055D02*
D03*
X232925Y142913D02*
D03*
X185039Y77165D02*
D03*
X183858Y84646D02*
D03*
X140945Y179921D02*
D03*
X120079Y145669D02*
D03*
X171260Y68504D02*
D03*
X151909Y78524D02*
D03*
X111811Y133071D02*
D03*
X100787Y103150D02*
D03*
X131201Y73721D02*
D03*
X37008Y126772D02*
D03*
X117323Y123228D02*
D03*
D101*
X208968Y144862D02*
D03*
X274386Y109252D02*
D03*
X30315Y171260D02*
D03*
D102*
X190083Y24504D02*
D03*
X213705Y44169D02*
D03*
X172047Y18551D02*
D03*
X224200Y9500D02*
D03*
X203300D02*
D03*
X228453Y57410D02*
D03*
X183028Y56870D02*
D03*
X222705Y21303D02*
D03*
M02*
