G04*
G04 #@! TF.GenerationSoftware,Altium Limited,Altium Designer,25.8.1 (18)*
G04*
G04 Layer_Color=16711935*
%FSLAX25Y25*%
%MOIN*%
G70*
G04*
G04 #@! TF.SameCoordinates,CEE5F6FD-B113-487D-9DF9-78F472C9FAAA*
G04*
G04*
G04 #@! TF.FilePolarity,Negative*
G04*
G01*
G75*
%ADD48R,0.05328X0.05328*%
%ADD50C,0.05328*%
%ADD51R,0.05328X0.05328*%
%ADD52R,0.07119X0.07119*%
%ADD53C,0.07119*%
%ADD54R,0.24422X0.24422*%
%ADD55C,0.06824*%
%ADD56R,0.06737X0.06737*%
%ADD57R,0.04776X0.04776*%
%ADD58R,0.05950X0.05950*%
%ADD59C,0.04776*%
%ADD60R,0.04769X0.04769*%
%ADD61C,0.05950*%
%ADD62C,0.24422*%
%ADD63C,0.05081*%
%ADD64C,0.06737*%
%ADD65C,0.04769*%
%ADD66R,0.05950X0.05950*%
%ADD67C,0.06000*%
%ADD68R,0.05081X0.05081*%
%ADD69R,0.07119X0.07119*%
%ADD70C,0.13398*%
%ADD71C,0.06800*%
%ADD72C,0.02800*%
%ADD73C,0.05800*%
%ADD74C,0.07800*%
D48*
X219685Y70866D02*
D03*
X13192Y42882D02*
D03*
X214674Y200600D02*
D03*
D50*
X88976Y183071D02*
D03*
Y190945D02*
D03*
Y198819D02*
D03*
X191052Y200600D02*
D03*
X203937Y70866D02*
D03*
X196063D02*
D03*
X36814Y42882D02*
D03*
X21066D02*
D03*
X198926Y200600D02*
D03*
X206800D02*
D03*
X57874Y190945D02*
D03*
Y183071D02*
D03*
Y175197D02*
D03*
X211811Y70866D02*
D03*
X28940Y42882D02*
D03*
D51*
X88976Y175197D02*
D03*
X57874Y198819D02*
D03*
D52*
X175000Y196100D02*
D03*
X106600Y214500D02*
D03*
D53*
X175000Y206100D02*
D03*
X106600Y224500D02*
D03*
X232520Y195669D02*
D03*
X242520D02*
D03*
D54*
X248819Y51181D02*
D03*
D55*
X204685Y122441D02*
D03*
X214685D02*
D03*
X244685D02*
D03*
X254685D02*
D03*
X234685D02*
D03*
X224685D02*
D03*
D56*
X115748Y53543D02*
D03*
X50394Y19685D02*
D03*
D57*
X161811Y227874D02*
D03*
D58*
X209055Y99410D02*
D03*
D59*
X156811Y227874D02*
D03*
X151811D02*
D03*
X131811D02*
D03*
X136811D02*
D03*
X141811D02*
D03*
X146811D02*
D03*
D60*
X8661Y134646D02*
D03*
D61*
X216929Y99410D02*
D03*
X150000Y13386D02*
D03*
X126620Y13528D02*
D03*
X240551Y99410D02*
D03*
X224803D02*
D03*
X232677D02*
D03*
X248425D02*
D03*
X126620Y21402D02*
D03*
X150000Y21260D02*
D03*
D62*
X248819Y22835D02*
D03*
D63*
X121811Y157874D02*
D03*
X136811D02*
D03*
X146811D02*
D03*
X141811D02*
D03*
X151811D02*
D03*
X126811D02*
D03*
X131811D02*
D03*
X156811D02*
D03*
D64*
X155118Y53543D02*
D03*
X89764Y19685D02*
D03*
X145276Y53543D02*
D03*
X125591D02*
D03*
X135433D02*
D03*
X79921Y19685D02*
D03*
X60236D02*
D03*
X70079D02*
D03*
D65*
X8661Y63779D02*
D03*
Y126772D02*
D03*
Y118898D02*
D03*
Y111024D02*
D03*
Y103150D02*
D03*
Y95276D02*
D03*
Y87402D02*
D03*
Y79528D02*
D03*
Y71653D02*
D03*
X95276Y134646D02*
D03*
Y126772D02*
D03*
Y118898D02*
D03*
Y111024D02*
D03*
Y103150D02*
D03*
Y95276D02*
D03*
Y87402D02*
D03*
Y79528D02*
D03*
Y71653D02*
D03*
Y63779D02*
D03*
D66*
X150000Y29134D02*
D03*
X126620Y29276D02*
D03*
D67*
X10236Y172441D02*
D03*
D68*
X161811Y157874D02*
D03*
D69*
X252520Y195669D02*
D03*
D70*
X269685Y172441D02*
D03*
X189764D02*
D03*
Y122441D02*
D03*
X269685D02*
D03*
D71*
X273386Y12205D02*
D03*
Y226535D02*
D03*
X12205Y12205D02*
D03*
Y226535D02*
D03*
X274410Y48425D02*
D03*
D72*
X143142Y142126D02*
D03*
X161313Y185927D02*
D03*
X149213Y185827D02*
D03*
X129300Y135800D02*
D03*
X159200Y164800D02*
D03*
X181395Y135534D02*
D03*
X165772Y184055D02*
D03*
X232925Y142913D02*
D03*
X185039Y77165D02*
D03*
X183858Y84646D02*
D03*
X140945Y179921D02*
D03*
X120079Y145669D02*
D03*
X171260Y68504D02*
D03*
X151909Y78524D02*
D03*
X111811Y133071D02*
D03*
X100787Y103150D02*
D03*
X131201Y73721D02*
D03*
X37008Y126772D02*
D03*
X117323Y123228D02*
D03*
D73*
X208968Y144862D02*
D03*
X274386Y109252D02*
D03*
X30315Y171260D02*
D03*
D74*
X190083Y24504D02*
D03*
X213705Y44169D02*
D03*
X172047Y18551D02*
D03*
X224200Y9500D02*
D03*
X203300D02*
D03*
X228453Y57410D02*
D03*
X183028Y56870D02*
D03*
X222705Y21303D02*
D03*
M02*
