G04*
G04 #@! TF.GenerationSoftware,Altium Limited,Altium Designer,25.8.1 (18)*
G04*
G04 Layer_Color=32768*
%FSLAX25Y25*%
%MOIN*%
G70*
G04*
G04 #@! TF.SameCoordinates,C76D9226-5B89-478B-BDFE-737DA55DB7C2*
G04*
G04*
G04 #@! TF.FilePolarity,Positive*
G04*
G01*
G75*
%ADD10C,0.00600*%
%ADD13C,0.00394*%
%ADD104C,0.00197*%
G36*
X261850Y116339D02*
X197520D01*
Y128543D01*
X261850D01*
Y116339D01*
D02*
G37*
G36*
X164795Y130936D02*
X168731D01*
Y127000D01*
X175019D01*
Y93472D01*
X168731D01*
Y89536D01*
X164795D01*
Y83248D01*
X131268D01*
Y89536D01*
X127331D01*
Y93472D01*
X121044D01*
Y127000D01*
X127331D01*
Y130936D01*
X131268D01*
Y137224D01*
X164795D01*
Y130936D01*
D02*
G37*
G36*
X192449Y29236D02*
X194713D01*
Y13260D01*
X187921D01*
Y4872D01*
X173716D01*
Y13260D01*
X166925D01*
Y29236D01*
X169189D01*
Y37624D01*
X192449D01*
Y29236D01*
D02*
G37*
D10*
X194713Y13260D02*
Y29236D01*
X187921Y13260D02*
X194713D01*
X187921Y4872D02*
Y13260D01*
X173716Y4872D02*
X187921D01*
X173716D02*
Y13260D01*
X166925D02*
X173716D01*
X166925D02*
Y29236D01*
X169189D01*
Y37624D01*
X192449D01*
Y29236D02*
Y37624D01*
Y29236D02*
X194713D01*
X127331Y89536D02*
X131268D01*
Y83249D02*
Y89536D01*
Y83249D02*
X164795D01*
Y89536D01*
X168731D01*
Y93473D01*
X175019D01*
Y127000D01*
X168731D02*
X175019D01*
X168731D02*
Y130936D01*
X164795D02*
X168731D01*
X164795D02*
Y137224D01*
X131268D02*
X164795D01*
X131268Y130936D02*
Y137224D01*
X127331Y130936D02*
X131268D01*
X127331Y127000D02*
Y130936D01*
X121044Y127000D02*
X127331D01*
X121044Y93473D02*
Y127000D01*
Y93473D02*
X127331D01*
Y89536D02*
Y93473D01*
D13*
X36614Y156398D02*
Y160138D01*
X34744Y158268D02*
X38484D01*
X31890Y156102D02*
X41339D01*
X31890Y160433D02*
X41339D01*
Y156102D02*
Y160433D01*
X31890Y156102D02*
Y160433D01*
D104*
X128327Y222090D02*
X165295D01*
X128327Y233658D02*
X165295D01*
X128327Y222090D02*
Y233658D01*
X165295Y222090D02*
Y233658D01*
X269488Y88976D02*
Y106693D01*
X279331D01*
Y88976D02*
Y106693D01*
X269488Y88976D02*
X279331D01*
X165748Y39173D02*
Y63779D01*
X105118D02*
X165748D01*
X105118Y39173D02*
Y63779D01*
Y39173D02*
X165748D01*
X244291Y206102D02*
Y215945D01*
X226575D02*
X244291D01*
X226575Y206102D02*
Y215945D01*
Y206102D02*
X244291D01*
X279331Y50787D02*
Y68839D01*
X269488Y50787D02*
X279331D01*
X269488D02*
Y68839D01*
X279331D01*
X263347Y87244D02*
X276811D01*
X263347Y79685D02*
X276811D01*
Y87244D01*
X263347Y79685D02*
Y87244D01*
X265748Y5512D02*
Y68504D01*
X231890Y5512D02*
X265748D01*
X231890D02*
Y68504D01*
X265748D01*
X276870Y70965D02*
Y77854D01*
X261122D02*
X276870D01*
X261122Y70965D02*
Y77854D01*
Y70965D02*
X276870D01*
X245413Y207244D02*
X258878D01*
X245413Y214803D02*
X258878D01*
X245413Y207244D02*
Y214803D01*
X258878Y207244D02*
Y214803D01*
X179528Y212992D02*
X222047D01*
X179528Y189370D02*
Y212992D01*
Y189370D02*
X222047D01*
Y212992D01*
X4252Y178425D02*
X16220D01*
Y166457D02*
Y178425D01*
X4252Y166457D02*
X16220D01*
X4252D02*
Y178425D01*
X226535Y189685D02*
X258504D01*
X226535D02*
Y201654D01*
X258504D01*
Y189685D02*
Y201654D01*
X45276Y165748D02*
Y208268D01*
Y165748D02*
X68898D01*
Y208268D01*
X45276D02*
X68898D01*
X101575Y165748D02*
Y208268D01*
X77953D02*
X101575D01*
X77953Y165748D02*
Y208268D01*
Y165748D02*
X101575D01*
X200394Y87402D02*
X257087D01*
X200394D02*
Y107087D01*
X257087D01*
Y87402D02*
Y107087D01*
X114612Y4866D02*
Y37937D01*
X134297D01*
Y4866D02*
Y37937D01*
X114612Y4866D02*
X134297D01*
X137992Y4724D02*
Y37795D01*
X157677D01*
Y4724D02*
Y37795D01*
X137992Y4724D02*
X157677D01*
X39764Y5315D02*
X100394D01*
X39764D02*
Y29921D01*
X100394D01*
Y5315D02*
Y29921D01*
X218634Y134772D02*
Y148779D01*
X226744Y134772D02*
Y148779D01*
X218634D02*
X226744D01*
X218634Y134772D02*
X226744D01*
X212295Y135984D02*
X218122D01*
X212295Y147677D02*
X218122D01*
Y135984D02*
Y147677D01*
X212295Y135984D02*
Y147677D01*
X114016Y123976D02*
Y135669D01*
X119843Y123976D02*
Y135669D01*
X114016D02*
X119843D01*
X114016Y123976D02*
X119843D01*
X121996Y141799D02*
X135484D01*
X121996Y149539D02*
X135484D01*
X121996Y141799D02*
Y149539D01*
X135484Y141799D02*
Y149539D01*
X116253Y141713D02*
X127946D01*
X116253Y135887D02*
X127946D01*
Y141713D01*
X116253Y135887D02*
Y141713D01*
X3743Y30283D02*
Y53905D01*
X46263D01*
Y30283D02*
Y53905D01*
X3743Y30283D02*
X46263D01*
X166378Y174961D02*
Y186653D01*
X172205Y174961D02*
Y186653D01*
X166378D02*
X172205D01*
X166378Y174961D02*
X172205D01*
X102134Y88945D02*
Y107118D01*
X111252Y88945D02*
Y107118D01*
X102134D02*
X111252D01*
X102134Y88945D02*
X111252D01*
X128405Y75039D02*
X140098D01*
X128405Y80866D02*
X140098D01*
X128405Y75039D02*
Y80866D01*
X140098Y75039D02*
Y80866D01*
X153571Y64634D02*
Y72374D01*
X167059Y64634D02*
Y72374D01*
X153571Y64634D02*
X167059D01*
X153571Y72374D02*
X167059D01*
X163583Y165807D02*
Y185492D01*
X149803D02*
X163583D01*
X149803Y165807D02*
Y185492D01*
Y165807D02*
X163583D01*
X142362Y170925D02*
Y182618D01*
X148189Y170925D02*
Y182618D01*
X142362D02*
X148189D01*
X142362Y170925D02*
X148189D01*
X117874Y163858D02*
X165748D01*
X117874Y151890D02*
Y163858D01*
X165748Y151890D02*
Y163858D01*
X117874Y151890D02*
X165748D01*
X168169Y132520D02*
Y138347D01*
X179862Y132520D02*
Y138347D01*
X168169Y132520D02*
X179862D01*
X168169Y138347D02*
X179862D01*
X112835Y94547D02*
Y106240D01*
X118661Y94547D02*
Y106240D01*
X112835D02*
X118661D01*
X112835Y94547D02*
X118661D01*
X30768Y160866D02*
X42461D01*
X30768Y166693D02*
X42461D01*
X30768Y160866D02*
Y166693D01*
X42461Y160866D02*
Y166693D01*
X169949Y81035D02*
X183437D01*
X169949Y73295D02*
X183437D01*
Y81035D01*
X169949Y73295D02*
Y81035D01*
X153996Y79291D02*
X165689D01*
X153996Y73465D02*
X165689D01*
Y79291D01*
X153996Y73465D02*
Y79291D01*
X181653Y81949D02*
Y93642D01*
X175827Y81949D02*
Y93642D01*
Y81949D02*
X181653D01*
X175827Y93642D02*
X181653D01*
X186614Y83465D02*
X229134D01*
X186614Y59842D02*
Y83465D01*
Y59842D02*
X229134D01*
Y83465D01*
X227414Y132284D02*
X239224D01*
X227414D02*
Y153543D01*
X239224D01*
Y132284D02*
Y153543D01*
X206398Y4233D02*
X221161D01*
X206398D02*
Y12992D01*
X200000D02*
X206398D01*
X200000D02*
Y28740D01*
X201870D01*
Y37500D01*
X225689D01*
Y28740D02*
Y37500D01*
Y28740D02*
X227559D01*
Y12992D02*
Y28740D01*
X221161Y12992D02*
X227559D01*
X221161Y4233D02*
Y12992D01*
X218701Y40701D02*
Y54150D01*
X226441Y40701D02*
Y54150D01*
X218701D02*
X226441D01*
X218701Y40701D02*
X226441D01*
X202028Y50236D02*
Y56063D01*
X213720Y50236D02*
Y56063D01*
X202028Y50236D02*
X213720D01*
X202028Y56063D02*
X213720D01*
X179795Y39531D02*
Y47272D01*
X193283Y39531D02*
Y47272D01*
X179795Y39531D02*
X193283D01*
X179795Y47272D02*
X193283D01*
X168102Y39807D02*
X175842D01*
X168102Y53295D02*
X175842D01*
Y39807D02*
Y53295D01*
X168102Y39807D02*
Y53295D01*
M02*
