G04*
G04 #@! TF.GenerationSoftware,Altium Limited,Altium Designer,25.8.1 (18)*
G04*
G04 Layer_Color=16711935*
%FSLAX25Y25*%
%MOIN*%
G70*
G04*
G04 #@! TF.SameCoordinates,C76D9226-5B89-478B-BDFE-737DA55DB7C2*
G04*
G04*
G04 #@! TF.FilePolarity,Positive*
G04*
G01*
G75*
%ADD11C,0.00787*%
%ADD12C,0.01000*%
%ADD13C,0.00394*%
%ADD16C,0.00500*%
%ADD101C,0.00000*%
%ADD102C,0.01181*%
%ADD103C,0.00100*%
D11*
X162205Y219728D02*
G03*
X162205Y219728I-394J0D01*
G01*
X103347Y53543D02*
G03*
X103347Y53543I-394J0D01*
G01*
X225847Y211024D02*
G03*
X225847Y211024I-394J0D01*
G01*
X274803Y49665D02*
G03*
X274803Y49665I-394J0D01*
G01*
X224016Y200394D02*
G03*
X224016Y200394I-394J0D01*
G01*
X260118Y195669D02*
G03*
X260118Y195669I-394J0D01*
G01*
X58268Y209842D02*
G03*
X58268Y209842I-394J0D01*
G01*
X89370Y164173D02*
G03*
X89370Y164173I-394J0D01*
G01*
X209449Y108858D02*
G03*
X209449Y108858I-394J0D01*
G01*
X136462Y29276D02*
G03*
X136462Y29276I-394J0D01*
G01*
X159843Y29134D02*
G03*
X159843Y29134I-394J0D01*
G01*
X37992Y19685D02*
G03*
X37992Y19685I-394J0D01*
G01*
X2562Y42882D02*
G03*
X2562Y42882I-394J0D01*
G01*
X165354Y182063D02*
G03*
X165354Y182063I-394J0D01*
G01*
X167520Y157874D02*
G03*
X167520Y157874I-394J0D01*
G01*
X231102Y70866D02*
G03*
X231102Y70866I-394J0D01*
G01*
X223228Y38976D02*
G03*
X223228Y38976I-394J0D01*
G01*
D12*
X27374Y115056D02*
X37382Y100043D01*
Y115056D02*
X27374Y100043D01*
X42387Y115056D02*
Y100043D01*
X49893D01*
X52395Y102545D01*
Y105048D01*
X49893Y107550D01*
X42387D01*
X49893D01*
X52395Y110052D01*
Y112554D01*
X49893Y115056D01*
X42387D01*
X64906Y100043D02*
X59901D01*
X57399Y102545D01*
Y107550D01*
X59901Y110052D01*
X64906D01*
X67408Y107550D01*
Y105048D01*
X57399D01*
X79918Y100043D02*
X74914D01*
X72412Y102545D01*
Y107550D01*
X74914Y110052D01*
X79918D01*
X82420Y107550D01*
Y105048D01*
X72412D01*
D13*
X129311Y223074D02*
Y232674D01*
X164311Y223074D02*
Y232674D01*
X129311D02*
X164311D01*
X129311Y223074D02*
X164311D01*
X198701Y117520D02*
X260669D01*
Y127362D01*
X198701D02*
X260669D01*
X198701Y117520D02*
Y127362D01*
X5236Y177441D02*
X15236D01*
Y167441D02*
Y177441D01*
X5236Y167441D02*
X15236D01*
X5236D02*
Y177441D01*
X118858Y162874D02*
X164764D01*
Y152874D02*
Y162874D01*
X118858Y152874D02*
Y162874D01*
Y152874D02*
X164764D01*
X33268Y156398D02*
X39961D01*
X33268Y160138D02*
X39961D01*
Y156398D02*
Y160138D01*
X33268Y156398D02*
Y160138D01*
D16*
X271654Y91929D02*
Y103740D01*
X277165Y91929D02*
Y103740D01*
X271654D02*
X277165D01*
X271654Y91929D02*
X277165D01*
X164764Y40157D02*
Y62795D01*
X106102D02*
X164764D01*
X106102Y40157D02*
Y62795D01*
Y40157D02*
X164764D01*
X241339Y208268D02*
Y213779D01*
X229528Y208268D02*
Y213779D01*
X241339D01*
X229528Y208268D02*
X241339D01*
X277165Y53740D02*
Y65551D01*
X271654Y53740D02*
Y65551D01*
Y53740D02*
X277165D01*
X271654Y65551D02*
X277165D01*
X265748Y86221D02*
X274410D01*
X265748Y80709D02*
X274410D01*
X265748D02*
Y86221D01*
X274410Y80709D02*
Y86221D01*
X246850Y72441D02*
X250787D01*
X248819Y70473D02*
Y74410D01*
Y-394D02*
Y3543D01*
X255118Y6496D02*
X264764Y17520D01*
X232874D02*
X242519Y6496D01*
X232874Y67520D02*
X264764D01*
X232874Y17520D02*
Y67520D01*
X242519Y6496D02*
X255118D01*
X264764Y17520D02*
Y67520D01*
X272933Y71949D02*
Y76870D01*
X265059Y71949D02*
Y76870D01*
Y71949D02*
X272933D01*
X265059Y76870D02*
X272933D01*
X247815Y208268D02*
X256476D01*
X247815Y213779D02*
X256476D01*
Y208268D02*
Y213779D01*
X247815Y208268D02*
Y213779D01*
X180512Y212008D02*
X221063D01*
X180512Y190354D02*
Y212008D01*
Y190354D02*
X221063D01*
Y212008D01*
X227520Y190669D02*
X257520D01*
X227520D02*
Y200669D01*
X257520D01*
Y190669D02*
Y200669D01*
X46260Y166732D02*
Y207283D01*
Y166732D02*
X67913D01*
Y207283D01*
X46260D02*
X67913D01*
X100591Y166732D02*
Y207283D01*
X78937D02*
X100591D01*
X78937Y166732D02*
Y207283D01*
Y166732D02*
X100591D01*
X201378Y88386D02*
X256102D01*
X201378D02*
Y106102D01*
X256102D01*
Y88386D02*
Y106102D01*
X115596Y5850D02*
Y36953D01*
X133313D01*
Y5850D02*
Y36953D01*
X115596Y5850D02*
X133313D01*
X138976Y5709D02*
Y36811D01*
X156693D01*
Y5709D02*
Y36811D01*
X138976Y5709D02*
X156693D01*
X40748Y6299D02*
X99410D01*
X40748D02*
Y28937D01*
X99410D01*
Y6299D02*
Y28937D01*
X219618Y137130D02*
Y146421D01*
X225760Y137130D02*
Y146421D01*
X219618Y137130D02*
X225760D01*
X219618Y146421D02*
X225760D01*
X213319Y145295D02*
X217098D01*
X213319Y138366D02*
X217098D01*
Y145295D01*
X213319Y138366D02*
Y145295D01*
X115039Y126358D02*
Y133287D01*
X118819Y126358D02*
Y133287D01*
X115039Y126358D02*
X118819D01*
X115039Y133287D02*
X118819D01*
X124409Y142835D02*
X133071D01*
X124409Y148504D02*
X133071D01*
Y142835D02*
Y148504D01*
X124409Y142835D02*
Y148504D01*
X118635Y140690D02*
X125565D01*
X118635Y136910D02*
X125565D01*
X118635D02*
Y140690D01*
X125565Y136910D02*
Y140690D01*
X4728Y31268D02*
Y52921D01*
X45279D01*
Y31268D02*
Y52921D01*
X4728Y31268D02*
X45279D01*
X167402Y177342D02*
Y184272D01*
X171181Y177342D02*
Y184272D01*
X167402Y177342D02*
X171181D01*
X167402Y184272D02*
X171181D01*
X103150Y91339D02*
Y104724D01*
X110236Y91339D02*
Y104724D01*
X103150Y91339D02*
X110236D01*
X103150Y104724D02*
X110236D01*
X130787Y76063D02*
X137716D01*
X130787Y79843D02*
X137716D01*
Y76063D02*
Y79843D01*
X130787Y76063D02*
Y79843D01*
X164646Y65669D02*
Y71339D01*
X155984Y65669D02*
Y71339D01*
Y65669D02*
X164646D01*
X155984Y71339D02*
X164646D01*
X162599Y166791D02*
Y184508D01*
X150787D02*
X162599D01*
X150787Y166791D02*
Y184508D01*
Y166791D02*
X162599D01*
X143386Y173307D02*
Y180236D01*
X147165Y173307D02*
Y180236D01*
X143386Y173307D02*
X147165D01*
X143386Y180236D02*
X147165D01*
X177480Y133543D02*
Y137323D01*
X170551Y133543D02*
Y137323D01*
Y133543D02*
X177480D01*
X170551Y137323D02*
X177480D01*
X113858Y96929D02*
Y103858D01*
X117638Y96929D02*
Y103858D01*
X113858Y96929D02*
X117638D01*
X113858Y103858D02*
X117638D01*
X33150Y161890D02*
X40079D01*
X33150Y165669D02*
X40079D01*
Y161890D02*
Y165669D01*
X33150Y161890D02*
Y165669D01*
X172362Y80000D02*
X181024D01*
X172362Y74331D02*
X181024D01*
X172362D02*
Y80000D01*
X181024Y74331D02*
Y80000D01*
X156378Y78268D02*
X163307D01*
X156378Y74488D02*
X163307D01*
X156378D02*
Y78268D01*
X163307Y74488D02*
Y78268D01*
X180630Y84331D02*
Y91260D01*
X176850Y84331D02*
Y91260D01*
X180630D01*
X176850Y84331D02*
X180630D01*
X187598Y82480D02*
X228150D01*
X187598Y60827D02*
Y82480D01*
Y60827D02*
X228150D01*
Y82480D01*
X228398Y133268D02*
X238240D01*
X228398D02*
Y152559D01*
X238240D01*
Y133268D02*
Y152559D01*
X200984Y13976D02*
Y27756D01*
X226575Y13976D02*
Y27756D01*
X200984D02*
X226575D01*
X200984Y13976D02*
X226575D01*
X219736Y43095D02*
Y51756D01*
X225406Y43095D02*
Y51756D01*
X219736Y43095D02*
X225406D01*
X219736Y51756D02*
X225406D01*
X211339Y51260D02*
Y55039D01*
X204409Y51260D02*
Y55039D01*
Y51260D02*
X211339D01*
X204409Y55039D02*
X211339D01*
X190870Y40567D02*
Y46236D01*
X182209Y40567D02*
Y46236D01*
Y40567D02*
X190870D01*
X182209Y46236D02*
X190870D01*
X169138Y50882D02*
X174807D01*
X169138Y42221D02*
X174807D01*
Y50882D01*
X169138Y42221D02*
Y50882D01*
D101*
X193213Y27236D02*
G03*
X193213Y27236I-500J0D01*
G01*
X130544Y125000D02*
G03*
X130544Y125000I-300J0D01*
G01*
X3732Y136224D02*
X33618Y161937D01*
X3732Y32252D02*
Y136224D01*
Y32252D02*
X99713D01*
Y136228D01*
X69831Y161937D02*
X99713Y136228D01*
X33618Y161937D02*
X69831D01*
X24984Y114138D02*
X78134D01*
X24984Y94059D02*
X78134D01*
D102*
X230563Y136614D02*
G03*
X230563Y136614I-394J0D01*
G01*
D103*
X188299Y28236D02*
X191449D01*
Y35224D01*
X188299D02*
X191449D01*
X188299Y28236D02*
Y35224D01*
X179244Y28236D02*
X182394D01*
Y35224D01*
X179244D02*
X182394D01*
X179244Y28236D02*
Y35224D01*
X170189Y28236D02*
X173339D01*
Y35224D01*
X170189D02*
X173339D01*
X170189Y28236D02*
Y35224D01*
X174716Y14260D02*
X186921D01*
X174716Y7272D02*
Y14260D01*
Y7272D02*
X186921D01*
Y14260D01*
X167925Y28236D02*
X193713D01*
X167925Y14260D02*
Y28236D01*
Y14260D02*
X193713D01*
Y28236D01*
X128331Y90536D02*
Y129936D01*
X167731D01*
Y90536D02*
Y129936D01*
X128331Y90536D02*
X167731D01*
X128331Y124936D02*
X133332Y129936D01*
M02*
