G04*
G04 #@! TF.GenerationSoftware,Altium Limited,Altium Designer,25.8.1 (18)*
G04*
G04 Layer_Physical_Order=1*
G04 Layer_Color=255*
%FSLAX25Y25*%
%MOIN*%
G70*
G04*
G04 #@! TF.SameCoordinates,C76D9226-5B89-478B-BDFE-737DA55DB7C2*
G04*
G04*
G04 #@! TF.FilePolarity,Positive*
G04*
G01*
G75*
%ADD12C,0.01000*%
%ADD17R,0.03350X0.06934*%
%ADD18R,0.12405X0.06934*%
%ADD19R,0.05787X0.04567*%
%ADD20R,0.03740X0.08465*%
%ADD21R,0.03622X0.05591*%
%ADD22R,0.01968X0.01968*%
%ADD23R,0.03858X0.03622*%
%ADD24R,0.02323X0.01378*%
%ADD25R,0.06142X0.05039*%
%ADD26R,0.04567X0.05787*%
%ADD27R,0.03622X0.03858*%
%ADD28R,0.04700X0.01200*%
%ADD29R,0.01200X0.04700*%
%ADD30R,0.02756X0.03543*%
%ADD31R,0.07165X0.05669*%
%ADD32R,0.12795X0.08465*%
%ADD33R,0.05512X0.08268*%
%ADD34R,0.04528X0.04528*%
%ADD35R,0.01378X0.02323*%
%ADD66C,0.06000*%
%ADD74R,0.01968X0.01968*%
%ADD75C,0.05000*%
%ADD76C,0.01500*%
%ADD77C,0.03000*%
%ADD78R,0.23622X0.23622*%
%ADD79C,0.06024*%
%ADD80R,0.05937X0.05937*%
%ADD81C,0.04528*%
%ADD82R,0.03976X0.03976*%
%ADD83R,0.05150X0.05150*%
%ADD84C,0.03976*%
%ADD85R,0.04528X0.04528*%
%ADD86R,0.03969X0.03969*%
%ADD87C,0.06319*%
%ADD88C,0.05150*%
%ADD89C,0.23622*%
%ADD90C,0.04281*%
%ADD91C,0.05937*%
%ADD92C,0.03969*%
%ADD93R,0.05150X0.05150*%
%ADD94C,0.05200*%
%ADD95R,0.04281X0.04281*%
%ADD96R,0.06319X0.06319*%
%ADD97C,0.12598*%
%ADD98C,0.05000*%
%ADD99C,0.02000*%
%ADD100C,0.07000*%
G36*
X275590Y238740D02*
X276575D01*
X278507Y238356D01*
X280327Y237602D01*
X281965Y236508D01*
X283358Y235115D01*
X284452Y233477D01*
X285206Y231657D01*
X285591Y229725D01*
Y228740D01*
X285591D01*
X285591Y9606D01*
X285591D01*
X285591Y9213D01*
X285515Y8244D01*
X285206Y6689D01*
X284452Y4870D01*
X283358Y3232D01*
X281965Y1839D01*
X280327Y744D01*
X278507Y-9D01*
X276575Y-394D01*
X275590D01*
Y-394D01*
X10079Y-394D01*
X9094Y-394D01*
X7162Y-9D01*
X5342Y744D01*
X3704Y1839D01*
X2311Y3232D01*
X1217Y4870D01*
X463Y6689D01*
X79Y8621D01*
Y9606D01*
X79Y228740D01*
X79D01*
X79Y229134D01*
X154Y230103D01*
X463Y231657D01*
X1217Y233477D01*
X2311Y235115D01*
X3704Y236508D01*
X5342Y237602D01*
X7162Y238356D01*
X9094Y238740D01*
X10079D01*
Y238740D01*
X275590Y238740D01*
D02*
G37*
%LPC*%
G36*
X158823Y230862D02*
X157823Y230697D01*
X157311Y230834D01*
Y227874D01*
Y224914D01*
X157823Y225051D01*
X158823Y224886D01*
Y224886D01*
X161311D01*
Y227874D01*
Y230862D01*
X158823D01*
X158823Y230862D01*
D02*
G37*
G36*
X156311Y230834D02*
X155658Y230659D01*
X154976Y230265D01*
X154611Y229900D01*
X154400Y229712D01*
X153349Y229855D01*
X153220Y229983D01*
X152306Y230362D01*
X151316D01*
X150402Y229983D01*
X149915Y229496D01*
X149311Y229367D01*
X148707Y229496D01*
X148221Y229983D01*
X147306Y230362D01*
X146316D01*
X145402Y229983D01*
X144915Y229496D01*
X144311Y229367D01*
X143708Y229496D01*
X143220Y229983D01*
X142306Y230362D01*
X141316D01*
X140402Y229983D01*
X139915Y229496D01*
X139311Y229367D01*
X138707Y229496D01*
X138221Y229983D01*
X137306Y230362D01*
X136316D01*
X135402Y229983D01*
X134915Y229496D01*
X134311Y229367D01*
X133707Y229496D01*
X133221Y229983D01*
X132306Y230362D01*
X131316D01*
X130402Y229983D01*
X129702Y229283D01*
X129323Y228369D01*
Y227379D01*
X129702Y226465D01*
X130402Y225765D01*
X130791Y225603D01*
Y198813D01*
X117389Y185411D01*
X117168Y185081D01*
X117091Y184690D01*
Y156693D01*
X117168Y156303D01*
X117389Y155972D01*
X120933Y152429D01*
X121263Y152208D01*
X121653Y152130D01*
X136192D01*
X139994Y148328D01*
Y147328D01*
X138994Y146914D01*
X135186Y150721D01*
X134856Y150942D01*
X134465Y151020D01*
X118533D01*
X115193Y154359D01*
Y162598D01*
X115115Y162989D01*
X114894Y163319D01*
X94422Y183792D01*
X94091Y184013D01*
X93701Y184090D01*
X91564D01*
X91552Y184138D01*
X91188Y184768D01*
X90673Y185282D01*
X90043Y185646D01*
X89340Y185835D01*
X88613D01*
X87910Y185646D01*
X87279Y185282D01*
X86765Y184768D01*
X86401Y184138D01*
X86213Y183435D01*
Y182707D01*
X86401Y182004D01*
X86765Y181374D01*
X87279Y180859D01*
X87910Y180495D01*
X88613Y180307D01*
X89340D01*
X90043Y180495D01*
X90673Y180859D01*
X91188Y181374D01*
X91552Y182004D01*
X91564Y182051D01*
X93278D01*
X113154Y162176D01*
Y153937D01*
X113231Y153547D01*
X113452Y153216D01*
X117389Y149279D01*
X117720Y149058D01*
X118110Y148980D01*
X122492D01*
Y146689D01*
X121180D01*
X120928Y146941D01*
X120377Y147169D01*
X119780D01*
X119229Y146941D01*
X118807Y146519D01*
X118579Y145968D01*
Y145371D01*
X118807Y144820D01*
X119229Y144398D01*
X119780Y144169D01*
X120377D01*
X120928Y144398D01*
X121180Y144650D01*
X122492D01*
X122492Y143175D01*
Y142924D01*
X122340Y142289D01*
X122076Y141982D01*
X122034Y141952D01*
X121676Y141823D01*
X121395Y141729D01*
X119549Y141729D01*
Y138800D01*
X119049D01*
Y138300D01*
X116238D01*
Y136185D01*
X116238Y135871D01*
X115522Y135185D01*
X114500D01*
Y134090D01*
X112913D01*
X112661Y134343D01*
X112109Y134571D01*
X111513D01*
X110961Y134343D01*
X110539Y133921D01*
X110311Y133369D01*
Y132773D01*
X110539Y132221D01*
X110961Y131799D01*
X111513Y131571D01*
X112109D01*
X112661Y131799D01*
X112913Y132051D01*
X114500D01*
Y130583D01*
X114500Y130563D01*
X114453Y129583D01*
X114000D01*
Y127272D01*
X116929D01*
Y126272D01*
X114000D01*
Y126150D01*
X113076Y125767D01*
X86846Y151997D01*
Y170866D01*
X86833Y170933D01*
X87322Y171755D01*
X87519Y171933D01*
X88476D01*
Y174697D01*
X85713D01*
Y173729D01*
X84789Y173346D01*
X60638Y197497D01*
Y201583D01*
X55110D01*
Y196055D01*
X59196D01*
X84807Y170444D01*
Y152604D01*
X83807Y152190D01*
X82516Y153481D01*
Y167323D01*
X82438Y167713D01*
X82217Y168044D01*
X60425Y189836D01*
X60449Y189878D01*
X60638Y190581D01*
Y191309D01*
X60449Y192012D01*
X60086Y192642D01*
X59571Y193157D01*
X58941Y193520D01*
X58238Y193709D01*
X57510D01*
X56807Y193520D01*
X56177Y193157D01*
X55662Y192642D01*
X55299Y192012D01*
X55110Y191309D01*
Y190581D01*
X55299Y189878D01*
X55662Y189248D01*
X56177Y188733D01*
X56807Y188370D01*
X57510Y188181D01*
X58238D01*
X58941Y188370D01*
X58983Y188394D01*
X80476Y166901D01*
Y153059D01*
X80554Y152669D01*
X80775Y152338D01*
X94983Y138130D01*
X94888Y137660D01*
X94631Y137068D01*
X93868Y136752D01*
X93169Y136053D01*
X92791Y135140D01*
Y134151D01*
X93169Y133238D01*
X92413Y132651D01*
X79282Y145782D01*
Y162682D01*
X79205Y163072D01*
X78984Y163403D01*
X60425Y181962D01*
X60449Y182004D01*
X60638Y182707D01*
Y183435D01*
X60449Y184138D01*
X60086Y184768D01*
X59571Y185282D01*
X58941Y185646D01*
X58238Y185835D01*
X57510D01*
X56807Y185646D01*
X56177Y185282D01*
X55662Y184768D01*
X55299Y184138D01*
X55110Y183435D01*
Y182707D01*
X55299Y182004D01*
X55662Y181374D01*
X56177Y180859D01*
X56807Y180495D01*
X57510Y180307D01*
X58238D01*
X58941Y180495D01*
X58983Y180520D01*
X77243Y162260D01*
Y145359D01*
X77321Y144969D01*
X77542Y144638D01*
X92586Y129594D01*
X92917Y129373D01*
X92944Y129368D01*
X93295Y128505D01*
X93292Y128302D01*
X93169Y128179D01*
X92791Y127266D01*
Y126277D01*
X92842Y126156D01*
X91994Y125590D01*
X75429Y142155D01*
Y158268D01*
X75351Y158658D01*
X75130Y158989D01*
X60281Y173838D01*
X60449Y174130D01*
X60638Y174833D01*
Y175561D01*
X60449Y176264D01*
X60086Y176894D01*
X59571Y177408D01*
X58941Y177772D01*
X58238Y177961D01*
X57510D01*
X56807Y177772D01*
X56177Y177408D01*
X55662Y176894D01*
X55299Y176264D01*
X55110Y175561D01*
Y174833D01*
X55299Y174130D01*
X55662Y173500D01*
X56177Y172985D01*
X56807Y172621D01*
X57510Y172433D01*
X58238D01*
X58683Y172552D01*
X73390Y157845D01*
Y141732D01*
X73467Y141342D01*
X73689Y141011D01*
X92192Y122507D01*
X92523Y122286D01*
X92913Y122209D01*
X94165D01*
X94363Y121209D01*
X93868Y121004D01*
X93169Y120305D01*
X92791Y119392D01*
Y118403D01*
X93055Y117768D01*
X92689Y116988D01*
X92478Y116768D01*
X84084D01*
X41863Y158989D01*
X41532Y159210D01*
X41445Y159227D01*
Y160539D01*
X41901Y161350D01*
X41976D01*
Y166209D01*
X42433Y167020D01*
X43020D01*
Y176287D01*
X37950D01*
X36745Y177493D01*
X36414Y177714D01*
X36024Y177791D01*
X14567D01*
X14177Y177714D01*
X13846Y177493D01*
X11591Y175238D01*
X11433Y175330D01*
X10644Y175541D01*
X9828D01*
X9040Y175330D01*
X8333Y174922D01*
X7756Y174344D01*
X7348Y173637D01*
X7136Y172849D01*
Y172033D01*
X7348Y171244D01*
X7756Y170537D01*
X8333Y169960D01*
X9040Y169552D01*
X9828Y169341D01*
X10644D01*
X11433Y169552D01*
X12140Y169960D01*
X12717Y170537D01*
X13125Y171244D01*
X13336Y172033D01*
Y172849D01*
X13125Y173637D01*
X13033Y173796D01*
X14989Y175752D01*
X18791D01*
Y166626D01*
X25303D01*
Y170240D01*
X27482D01*
X27519Y170102D01*
X27914Y169418D01*
X28473Y168859D01*
X29157Y168464D01*
X29920Y168260D01*
X30710D01*
X31473Y168464D01*
X31597Y168536D01*
X32543Y167589D01*
Y166209D01*
X31252D01*
Y162026D01*
X31252Y161350D01*
X31284Y160364D01*
Y158768D01*
X33661D01*
X36039D01*
Y160419D01*
X36039Y161039D01*
X35874Y161971D01*
Y166209D01*
X34583D01*
Y168012D01*
X34505Y168402D01*
X34284Y168733D01*
X33039Y169978D01*
X33110Y170102D01*
X33315Y170865D01*
Y171655D01*
X33110Y172418D01*
X32716Y173102D01*
X32157Y173660D01*
X31473Y174055D01*
X30710Y174260D01*
X29920D01*
X29157Y174055D01*
X28473Y173660D01*
X27914Y173102D01*
X27519Y172418D01*
X27482Y172279D01*
X25303D01*
Y175752D01*
X35601D01*
X36508Y174846D01*
Y167020D01*
X36898D01*
X37354Y166209D01*
Y161401D01*
X37354Y161350D01*
X37354D01*
X37689Y160539D01*
X37689Y160539D01*
Y155996D01*
X41445D01*
Y155996D01*
X41817Y156150D01*
X81851Y116117D01*
X81468Y115193D01*
X52785D01*
X40485Y127493D01*
X40154Y127714D01*
X39764Y127791D01*
X38110D01*
X37858Y128043D01*
X37306Y128272D01*
X36709D01*
X36158Y128043D01*
X35906Y127791D01*
X10928D01*
X10768Y128179D01*
X10069Y128878D01*
X9156Y129256D01*
X8167D01*
X7254Y128878D01*
X6555Y128179D01*
X6177Y127266D01*
Y126277D01*
X6555Y125364D01*
X7254Y124666D01*
X8167Y124287D01*
X9156D01*
X10069Y124666D01*
X10768Y125364D01*
X10928Y125752D01*
X35906D01*
X36158Y125500D01*
X36709Y125272D01*
X37306D01*
X37858Y125500D01*
X38110Y125752D01*
X39341D01*
X51641Y113452D01*
X51972Y113231D01*
X52362Y113154D01*
X92478D01*
X92689Y112933D01*
X93055Y112154D01*
X92791Y111518D01*
Y110529D01*
X93169Y109616D01*
X93286Y109500D01*
X92872Y108500D01*
X51603D01*
X42059Y118044D01*
X40485Y119619D01*
X40154Y119840D01*
X39764Y119917D01*
X10928D01*
X10768Y120305D01*
X10069Y121004D01*
X9156Y121382D01*
X8167D01*
X7254Y121004D01*
X6555Y120305D01*
X6177Y119392D01*
Y118403D01*
X6555Y117490D01*
X7254Y116792D01*
X8167Y116413D01*
X9156D01*
X10069Y116792D01*
X10768Y117490D01*
X10928Y117878D01*
X39341D01*
X40319Y116901D01*
Y55703D01*
X30049Y45433D01*
X30007Y45457D01*
X29304Y45646D01*
X28576D01*
X27873Y45457D01*
X27243Y45094D01*
X26729Y44579D01*
X26365Y43949D01*
X26176Y43246D01*
Y42518D01*
X26365Y41815D01*
X26729Y41185D01*
X27243Y40670D01*
X27873Y40306D01*
X28576Y40118D01*
X29304D01*
X30007Y40306D01*
X30637Y40670D01*
X31152Y41185D01*
X31516Y41815D01*
X31704Y42518D01*
Y43246D01*
X31516Y43949D01*
X31491Y43991D01*
X42059Y54559D01*
X42281Y54890D01*
X42358Y55280D01*
Y113555D01*
X43282Y113937D01*
X50460Y106759D01*
X50791Y106538D01*
X51181Y106461D01*
X94165D01*
X94363Y105461D01*
X93868Y105256D01*
X93169Y104557D01*
X92791Y103644D01*
Y102655D01*
X93169Y101742D01*
X93868Y101044D01*
X94781Y100665D01*
X95770D01*
X96683Y101044D01*
X97382Y101742D01*
X97760Y102655D01*
Y103644D01*
X97382Y104557D01*
X96683Y105256D01*
X96188Y105461D01*
X96387Y106461D01*
X102610D01*
Y104842D01*
X101637Y104421D01*
X101086Y104650D01*
X100489D01*
X99938Y104421D01*
X99516Y103999D01*
X99287Y103448D01*
Y102851D01*
X99516Y102300D01*
X99938Y101878D01*
X100489Y101650D01*
X101086D01*
X101637Y101878D01*
X102610Y101457D01*
Y99957D01*
X110776D01*
Y102272D01*
X113319D01*
Y101134D01*
X113319D01*
X113271Y100154D01*
X112819D01*
Y98362D01*
X112012D01*
X111622Y98285D01*
X111291Y98063D01*
X109834Y96606D01*
X107193D01*
Y93272D01*
X111276D01*
Y94944D01*
X111867Y95410D01*
X112819Y94988D01*
Y94532D01*
X115248D01*
Y97342D01*
X116248D01*
Y94532D01*
X118666D01*
Y83206D01*
X98760Y63300D01*
X97760Y63714D01*
Y64274D01*
X97382Y65187D01*
X96683Y65886D01*
X95770Y66264D01*
X94781D01*
X93868Y65886D01*
X93169Y65187D01*
X92791Y64274D01*
Y63285D01*
X93169Y62372D01*
X93868Y61673D01*
X94781Y61295D01*
X95341D01*
X95755Y60295D01*
X63645Y28185D01*
X57874D01*
X57484Y28107D01*
X57153Y27886D01*
X52420Y23154D01*
X46925D01*
Y16217D01*
X53862D01*
Y21712D01*
X58296Y26146D01*
X64067D01*
X64457Y26223D01*
X64788Y26444D01*
X119428Y81084D01*
X120507Y80749D01*
X120577Y80369D01*
X62517Y22309D01*
X62366Y22460D01*
X61575Y22917D01*
X60693Y23154D01*
X59780D01*
X58897Y22917D01*
X58106Y22460D01*
X57461Y21815D01*
X57004Y21024D01*
X56768Y20142D01*
Y19228D01*
X57004Y18346D01*
X57461Y17555D01*
X58106Y16910D01*
X58897Y16453D01*
X59780Y16217D01*
X60693D01*
X61575Y16453D01*
X62366Y16910D01*
X63012Y17555D01*
X63468Y18346D01*
X63705Y19228D01*
Y20142D01*
X63605Y20514D01*
X122390Y79298D01*
X123390Y78884D01*
Y77800D01*
X69836Y24247D01*
X69615Y23916D01*
X69538Y23526D01*
Y23131D01*
X68740Y22917D01*
X67949Y22460D01*
X67303Y21815D01*
X66847Y21024D01*
X66610Y20142D01*
Y19228D01*
X66847Y18346D01*
X67303Y17555D01*
X67949Y16910D01*
X68740Y16453D01*
X69622Y16217D01*
X70535D01*
X71417Y16453D01*
X72208Y16910D01*
X72854Y17555D01*
X73311Y18346D01*
X73547Y19228D01*
Y20142D01*
X73311Y21024D01*
X72854Y21815D01*
X72208Y22460D01*
X72132Y23659D01*
X124019Y75546D01*
X125104Y75217D01*
X125141Y75035D01*
X79200Y29095D01*
X78979Y28764D01*
X78902Y28374D01*
Y23003D01*
X78583Y22917D01*
X77792Y22460D01*
X77146Y21815D01*
X76689Y21024D01*
X76453Y20142D01*
Y19228D01*
X76689Y18346D01*
X77146Y17555D01*
X77792Y16910D01*
X78583Y16453D01*
X79465Y16217D01*
X80378D01*
X81260Y16453D01*
X82051Y16910D01*
X82697Y17555D01*
X83153Y18346D01*
X83390Y19228D01*
Y20142D01*
X83153Y21024D01*
X82697Y21815D01*
X82051Y22460D01*
X81260Y22917D01*
X80941Y23003D01*
Y27952D01*
X110977Y57987D01*
X111779Y57376D01*
X111779Y56568D01*
Y54043D01*
X115248D01*
Y57512D01*
X112770D01*
X111915Y57512D01*
X111304Y58315D01*
X127493Y74503D01*
X127714Y74834D01*
X127791Y75224D01*
Y81467D01*
X131168Y84844D01*
X132168Y84748D01*
Y84749D01*
X134217D01*
Y82529D01*
X132070Y80382D01*
X128890D01*
Y75524D01*
X129468D01*
X129929Y74570D01*
X129701Y74019D01*
Y73422D01*
X129929Y72871D01*
X130351Y72449D01*
X130902Y72220D01*
X131499D01*
X132051Y72449D01*
X132472Y72871D01*
X132701Y73422D01*
Y74019D01*
X132472Y74570D01*
X132706Y75054D01*
X133512Y75524D01*
X134492Y75476D01*
Y75024D01*
X136803D01*
Y77953D01*
X137803D01*
Y75024D01*
X140114D01*
X140122Y74027D01*
Y69517D01*
X127216Y56610D01*
X126929Y56775D01*
X126047Y57012D01*
X125134D01*
X124252Y56775D01*
X123461Y56319D01*
X122815Y55673D01*
X122358Y54882D01*
X122122Y54000D01*
Y53087D01*
X122358Y52205D01*
X122815Y51414D01*
X123461Y50768D01*
X124252Y50311D01*
X125134Y50075D01*
X126047D01*
X126929Y50311D01*
X127720Y50768D01*
X128366Y51414D01*
X128823Y52205D01*
X129059Y53087D01*
Y54000D01*
X128823Y54882D01*
X128657Y55168D01*
X140258Y66769D01*
X141343Y66440D01*
X141349Y66412D01*
X134712Y59776D01*
X134491Y59445D01*
X134414Y59055D01*
Y56861D01*
X134094Y56775D01*
X133303Y56319D01*
X132658Y55673D01*
X132201Y54882D01*
X131965Y54000D01*
Y53087D01*
X132201Y52205D01*
X132658Y51414D01*
X133303Y50768D01*
X134094Y50311D01*
X134976Y50075D01*
X135890D01*
X136772Y50311D01*
X137563Y50768D01*
X138209Y51414D01*
X138665Y52205D01*
X138902Y53087D01*
Y54000D01*
X138665Y54882D01*
X138209Y55673D01*
X137563Y56319D01*
X136772Y56775D01*
X136453Y56861D01*
Y58633D01*
X143059Y65239D01*
X144059Y64825D01*
Y56808D01*
X143937Y56775D01*
X143146Y56319D01*
X142500Y55673D01*
X142043Y54882D01*
X141807Y54000D01*
Y53087D01*
X142043Y52205D01*
X142500Y51414D01*
X143146Y50768D01*
X143937Y50311D01*
X144819Y50075D01*
X145732D01*
X146614Y50311D01*
X147224Y50663D01*
X147844Y50449D01*
X148224Y50173D01*
Y46911D01*
X131609Y30295D01*
X129694D01*
Y32350D01*
X123545D01*
Y26201D01*
X129694D01*
Y28256D01*
X132032D01*
X132422Y28334D01*
X132753Y28555D01*
X148844Y44646D01*
X149768Y44263D01*
Y32209D01*
X146925D01*
Y26059D01*
X153075D01*
Y32209D01*
X151807D01*
Y50535D01*
X152807Y50949D01*
X152988Y50768D01*
X153779Y50311D01*
X154662Y50075D01*
X155575D01*
X156457Y50311D01*
X157248Y50768D01*
X157894Y51414D01*
X158350Y52205D01*
X158587Y53087D01*
Y54000D01*
X158350Y54882D01*
X157894Y55673D01*
X157248Y56319D01*
X156457Y56775D01*
X155575Y57012D01*
X154662D01*
X153779Y56775D01*
X152988Y56319D01*
X152807Y56137D01*
X151807Y56552D01*
Y65748D01*
X151729Y66138D01*
X151508Y66469D01*
X150036Y67942D01*
Y76862D01*
X151035Y77276D01*
X151060Y77252D01*
X151611Y77024D01*
X152208D01*
X152759Y77252D01*
X152980Y77473D01*
X153916Y77208D01*
X153980Y77167D01*
Y76878D01*
X156791D01*
Y75878D01*
X153980D01*
Y73449D01*
X155772D01*
Y72398D01*
X153567D01*
Y69004D01*
X156850D01*
Y68504D01*
X157350D01*
Y64610D01*
X160134D01*
Y64778D01*
X160996Y65110D01*
Y65110D01*
X166563D01*
Y67484D01*
X170158D01*
X170410Y67232D01*
X170961Y67004D01*
X171558D01*
X172109Y67232D01*
X172531Y67654D01*
X172760Y68206D01*
Y68802D01*
X172531Y69354D01*
X172109Y69776D01*
X171558Y70004D01*
X170961D01*
X170410Y69776D01*
X170158Y69524D01*
X166563D01*
Y71898D01*
X164799D01*
Y73949D01*
X165205D01*
Y77999D01*
X165921Y78505D01*
X166205Y78592D01*
X166471Y78540D01*
X170445D01*
Y73772D01*
X176012D01*
Y80559D01*
X171543D01*
X171445Y80579D01*
X166893D01*
X164367Y83105D01*
X164696Y84190D01*
X164751Y84201D01*
X164929Y84023D01*
X165259Y83802D01*
X165650Y83724D01*
X176311D01*
Y82433D01*
X181169D01*
Y83626D01*
X182756D01*
X183009Y83374D01*
X183560Y83146D01*
X184157D01*
X184708Y83374D01*
X185130Y83796D01*
X185358Y84347D01*
Y84944D01*
X185130Y85495D01*
X184708Y85917D01*
X184157Y86146D01*
X183560D01*
X183009Y85917D01*
X182756Y85665D01*
X181169D01*
Y87035D01*
X181169Y87055D01*
X181217Y88035D01*
X181669D01*
Y90346D01*
X178740D01*
X175811D01*
Y88035D01*
X176263D01*
X176311Y87055D01*
X176311Y87035D01*
Y85764D01*
X166072D01*
X163895Y87940D01*
Y90448D01*
X161846D01*
Y98425D01*
X161769Y98815D01*
X161548Y99146D01*
X138224Y122470D01*
Y130024D01*
X163895D01*
Y135682D01*
X176694Y148480D01*
X196350D01*
X196741Y148558D01*
X197071Y148779D01*
X240755Y192463D01*
X241107Y192259D01*
X242038Y192010D01*
X243002D01*
X243932Y192259D01*
X244767Y192741D01*
X245448Y193422D01*
X245930Y194257D01*
X246179Y195187D01*
Y196151D01*
X245930Y197082D01*
X245448Y197916D01*
X245425Y197940D01*
X255214Y207728D01*
X258394D01*
Y214319D01*
X253772D01*
Y209170D01*
X243734Y199133D01*
X243002Y199329D01*
X242038D01*
X241107Y199079D01*
X240273Y198598D01*
X239591Y197916D01*
X239110Y197082D01*
X238860Y196151D01*
Y195187D01*
X239110Y194257D01*
X239313Y193904D01*
X195928Y150520D01*
X176272D01*
X175882Y150442D01*
X175551Y150221D01*
X162074Y136745D01*
X161853Y136414D01*
X161776Y136024D01*
Y135724D01*
X159878D01*
Y142294D01*
X182175Y164591D01*
X182396Y164922D01*
X182474Y165312D01*
Y169662D01*
X183474Y169860D01*
X183739Y169220D01*
X184483Y168107D01*
X185430Y167160D01*
X186543Y166416D01*
X187781Y165903D01*
X189094Y165642D01*
X190433D01*
X191747Y165903D01*
X192984Y166416D01*
X194098Y167160D01*
X195045Y168107D01*
X195789Y169220D01*
X196301Y170458D01*
X196563Y171771D01*
Y173111D01*
X196301Y174424D01*
X195789Y175662D01*
X195045Y176775D01*
X194098Y177722D01*
X192984Y178466D01*
X191747Y178979D01*
X190433Y179240D01*
X189094D01*
X187781Y178979D01*
X186543Y178466D01*
X185430Y177722D01*
X184483Y176775D01*
X183739Y175662D01*
X183474Y175021D01*
X182474Y175220D01*
Y176701D01*
X203615Y197843D01*
X203658Y197818D01*
X204361Y197630D01*
X205088D01*
X205791Y197818D01*
X206421Y198182D01*
X206936Y198697D01*
X207300Y199327D01*
X207488Y200030D01*
Y200758D01*
X207300Y201461D01*
X206936Y202091D01*
X206421Y202605D01*
X205791Y202969D01*
X205088Y203157D01*
X204361D01*
X203658Y202969D01*
X203027Y202605D01*
X202513Y202091D01*
X202149Y201461D01*
X201961Y200758D01*
Y200030D01*
X202149Y199327D01*
X202173Y199285D01*
X180733Y177844D01*
X180512Y177513D01*
X180434Y177123D01*
Y166720D01*
X180366Y166675D01*
X179366Y167209D01*
Y181467D01*
X195741Y197843D01*
X195784Y197818D01*
X196486Y197630D01*
X197214D01*
X197917Y197818D01*
X198547Y198182D01*
X199062Y198697D01*
X199426Y199327D01*
X199614Y200030D01*
Y200758D01*
X199426Y201461D01*
X199062Y202091D01*
X198547Y202605D01*
X197917Y202969D01*
X197214Y203157D01*
X196486D01*
X195784Y202969D01*
X195153Y202605D01*
X194639Y202091D01*
X194275Y201461D01*
X194087Y200758D01*
Y200030D01*
X194275Y199327D01*
X194299Y199285D01*
X177626Y182611D01*
X177404Y182280D01*
X177327Y181890D01*
Y165777D01*
X176656Y165106D01*
X176126Y165235D01*
X175606Y165471D01*
X175428Y165901D01*
X175006Y166323D01*
X174455Y166552D01*
X173858D01*
X173307Y166323D01*
X172885Y165901D01*
X172656Y165350D01*
Y164753D01*
X172740Y164550D01*
X165375Y157185D01*
X164452Y157568D01*
Y160515D01*
X159170D01*
X159170Y160515D01*
X158772Y160364D01*
X157772Y161030D01*
Y162768D01*
X157814Y162824D01*
X158772Y163354D01*
X158902Y163300D01*
X159498D01*
X160050Y163528D01*
X160110Y163589D01*
X162640D01*
X163030Y163667D01*
X163361Y163888D01*
X165682Y166208D01*
X165903Y166539D01*
X165980Y166929D01*
Y171296D01*
X165903Y171686D01*
X165682Y172017D01*
X163486Y174213D01*
X163155Y174434D01*
X162941Y174477D01*
Y175929D01*
X163441D01*
Y176599D01*
X166362D01*
Y174945D01*
X168791D01*
Y177756D01*
X169291D01*
Y178256D01*
X172221D01*
Y180567D01*
X171768D01*
X171721Y181547D01*
X171721D01*
Y186169D01*
X166862D01*
Y186169D01*
X166070Y185555D01*
X165473D01*
X164922Y185327D01*
X164500Y184905D01*
X164272Y184353D01*
Y183757D01*
X164500Y183205D01*
X164922Y182783D01*
X165148Y182690D01*
X165449Y181796D01*
X165441Y181568D01*
X164479Y180606D01*
X162941D01*
Y182744D01*
X159618D01*
Y180417D01*
X159319D01*
X158929Y180340D01*
X158598Y180119D01*
X156759Y178280D01*
X156538Y177949D01*
X156461Y177559D01*
Y174559D01*
X156490Y174412D01*
Y173526D01*
X156568Y173136D01*
X156789Y172805D01*
X158511Y171082D01*
X158842Y170861D01*
X159232Y170783D01*
X159618D01*
Y168555D01*
X162941D01*
Y169407D01*
X163027Y169519D01*
X163941Y169899D01*
X163941Y169899D01*
Y167351D01*
X162218Y165628D01*
X160480D01*
X160472Y165650D01*
X160050Y166072D01*
X159498Y166300D01*
X158902D01*
X158803Y166259D01*
X157882Y166910D01*
Y169772D01*
X155504D01*
X155287Y170682D01*
Y180617D01*
X155311Y180717D01*
X155987Y181488D01*
X155990Y181489D01*
X155990Y181489D01*
X155990Y181489D01*
Y181489D01*
X156974Y181527D01*
X157882D01*
Y184850D01*
X155504D01*
Y182310D01*
X155452Y182288D01*
Y182288D01*
X154595Y181933D01*
X153768Y182466D01*
Y182744D01*
X150445D01*
X150232Y183656D01*
Y184725D01*
X150484Y184977D01*
X150713Y185528D01*
Y186125D01*
X150484Y186676D01*
X150062Y187098D01*
X149511Y187327D01*
X148914D01*
X148363Y187098D01*
X147941Y186676D01*
X147713Y186125D01*
Y185528D01*
X147941Y184977D01*
X148193Y184725D01*
Y182932D01*
X147705Y182134D01*
X147193Y182134D01*
X142847D01*
Y181424D01*
X141847Y181141D01*
X141795Y181193D01*
X141243Y181421D01*
X140647D01*
X140095Y181193D01*
X139673Y180771D01*
X139445Y180220D01*
Y179623D01*
X139673Y179072D01*
X140095Y178650D01*
X140647Y178421D01*
X141243D01*
X141795Y178650D01*
X141847Y178701D01*
X142847Y178418D01*
Y177532D01*
X142847Y177512D01*
X142799Y176532D01*
X142347D01*
Y174221D01*
X145276D01*
Y173721D01*
X145776D01*
Y170910D01*
X148205D01*
Y172661D01*
X149945D01*
Y171992D01*
X150445D01*
Y168555D01*
X151087D01*
Y163592D01*
X147830Y160335D01*
X147159Y160515D01*
X146463D01*
X145792Y160335D01*
X145190Y159987D01*
X144939Y159737D01*
X144311Y159587D01*
X143683Y159737D01*
X143432Y159987D01*
X142830Y160335D01*
X142159Y160515D01*
X141463D01*
X140792Y160335D01*
X140190Y159987D01*
X139939Y159737D01*
X139311Y159587D01*
X138683Y159737D01*
X138432Y159987D01*
X137830Y160335D01*
X137159Y160515D01*
X136463D01*
X135792Y160335D01*
X135190Y159987D01*
X134939Y159737D01*
X134311Y159587D01*
X133683Y159737D01*
X133432Y159987D01*
X132830Y160335D01*
X132159Y160515D01*
X131463D01*
X130792Y160335D01*
X130190Y159987D01*
X129939Y159737D01*
X129311Y159587D01*
X128683Y159737D01*
X128432Y159987D01*
X127830Y160335D01*
X127159Y160515D01*
X126463D01*
X125792Y160335D01*
X125190Y159987D01*
X124939Y159737D01*
X124311Y159587D01*
X123683Y159737D01*
X123432Y159987D01*
X122830Y160335D01*
X122159Y160515D01*
X121463D01*
X120792Y160335D01*
X120190Y159987D01*
X120130Y159927D01*
X119130Y160341D01*
Y184268D01*
X132532Y197670D01*
X132753Y198001D01*
X132831Y198391D01*
Y225603D01*
X133221Y225765D01*
X133707Y226252D01*
X134311Y226381D01*
X134915Y226252D01*
X135402Y225765D01*
X136215Y225428D01*
Y225364D01*
X136292Y224974D01*
X136513Y224643D01*
X165823Y195334D01*
Y194977D01*
X166051Y194426D01*
X166473Y194004D01*
X167025Y193776D01*
X167621D01*
X168173Y194004D01*
X168595Y194426D01*
X168823Y194977D01*
Y195574D01*
X168595Y196125D01*
X168173Y196547D01*
X167621Y196776D01*
X167265D01*
X138733Y225308D01*
X139004Y226037D01*
X140048Y226118D01*
X140402Y225765D01*
X141316Y225386D01*
X142306D01*
X143220Y225765D01*
X143708Y226252D01*
X144311Y226381D01*
X144915Y226252D01*
X145402Y225765D01*
X146316Y225386D01*
X147306D01*
X148221Y225765D01*
X148707Y226252D01*
X149311Y226381D01*
X149915Y226252D01*
X150402Y225765D01*
X151316Y225386D01*
X152306D01*
X153220Y225765D01*
X153349Y225893D01*
X154400Y226037D01*
X154611Y225848D01*
X154976Y225483D01*
X155658Y225090D01*
X156311Y224914D01*
Y227874D01*
Y230834D01*
D02*
G37*
G36*
X164799Y230862D02*
X162311D01*
Y228374D01*
X164799D01*
Y230862D01*
D02*
G37*
G36*
Y227374D02*
X162311D01*
Y224886D01*
X164799D01*
Y227374D01*
D02*
G37*
G36*
X274056Y233335D02*
X272716D01*
X271403Y233073D01*
X270165Y232561D01*
X269052Y231817D01*
X268105Y230870D01*
X267360Y229756D01*
X266848Y228519D01*
X266587Y227205D01*
Y225866D01*
X266848Y224552D01*
X267360Y223315D01*
X268105Y222201D01*
X269052Y221254D01*
X270165Y220510D01*
X271403Y219998D01*
X272716Y219736D01*
X274056D01*
X275369Y219998D01*
X276606Y220510D01*
X277720Y221254D01*
X278667Y222201D01*
X279411Y223315D01*
X279924Y224552D01*
X280185Y225866D01*
Y227205D01*
X279924Y228519D01*
X279411Y229756D01*
X278667Y230870D01*
X277720Y231817D01*
X276606Y232561D01*
X275369Y233073D01*
X274056Y233335D01*
D02*
G37*
G36*
X12874D02*
X11535D01*
X10221Y233073D01*
X8984Y232561D01*
X7870Y231817D01*
X6923Y230870D01*
X6179Y229756D01*
X5667Y228519D01*
X5406Y227205D01*
Y225866D01*
X5667Y224552D01*
X6179Y223315D01*
X6923Y222201D01*
X7870Y221254D01*
X8984Y220510D01*
X10221Y219998D01*
X11535Y219736D01*
X12874D01*
X14188Y219998D01*
X15425Y220510D01*
X16539Y221254D01*
X17486Y222201D01*
X18230Y223315D01*
X18743Y224552D01*
X19004Y225866D01*
Y227205D01*
X18743Y228519D01*
X18230Y229756D01*
X17486Y230870D01*
X16539Y231817D01*
X15425Y232561D01*
X14188Y233073D01*
X12874Y233335D01*
D02*
G37*
G36*
X243307Y215502D02*
X240551D01*
X240168Y215343D01*
X240010Y214961D01*
Y213533D01*
X238976D01*
X238594Y213375D01*
X238435Y212992D01*
Y209055D01*
X238594Y208672D01*
X238976Y208514D01*
X240010D01*
Y207087D01*
X240168Y206704D01*
X240551Y206545D01*
X243307D01*
X243690Y206704D01*
X243848Y207087D01*
Y210004D01*
X245898D01*
Y207728D01*
X250520D01*
Y214319D01*
X245898D01*
Y212043D01*
X243848D01*
Y214961D01*
X243690Y215343D01*
X243307Y215502D01*
D02*
G37*
G36*
X43020Y212114D02*
X36508D01*
Y202847D01*
X43020D01*
Y212114D01*
D02*
G37*
G36*
X25303D02*
X18791D01*
Y202847D01*
X25303D01*
Y212114D01*
D02*
G37*
G36*
X189476Y203639D02*
Y200894D01*
X192221D01*
X192018Y201654D01*
X191588Y202398D01*
X190980Y203005D01*
X190236Y203435D01*
X189476Y203639D01*
D02*
G37*
G36*
X188476Y203639D02*
X187717Y203435D01*
X186972Y203005D01*
X186365Y202398D01*
X185935Y201654D01*
X185731Y200894D01*
X188476D01*
Y203639D01*
D02*
G37*
G36*
X215362Y203157D02*
X209835D01*
Y197630D01*
X215362D01*
Y203157D01*
D02*
G37*
G36*
X188476Y199894D02*
X185731D01*
X185935Y199134D01*
X186365Y198390D01*
X186972Y197782D01*
X187717Y197352D01*
X188476Y197149D01*
Y199894D01*
D02*
G37*
G36*
X192221D02*
X189476D01*
Y197149D01*
X190236Y197352D01*
X190980Y197782D01*
X191588Y198390D01*
X192018Y199134D01*
X192221Y199894D01*
D02*
G37*
G36*
X89340Y201583D02*
X88613D01*
X87910Y201394D01*
X87279Y201030D01*
X86765Y200516D01*
X86401Y199886D01*
X86213Y199183D01*
Y198455D01*
X86401Y197752D01*
X86765Y197122D01*
X87279Y196607D01*
X87910Y196244D01*
X88613Y196055D01*
X89340D01*
X90043Y196244D01*
X90673Y196607D01*
X91188Y197122D01*
X91552Y197752D01*
X91740Y198455D01*
Y199183D01*
X91552Y199886D01*
X91188Y200516D01*
X90673Y201030D01*
X90043Y201394D01*
X89340Y201583D01*
D02*
G37*
G36*
X236811Y213533D02*
X230315D01*
X229932Y213375D01*
X229835Y213140D01*
X227559D01*
X227176Y212981D01*
X227018Y212598D01*
Y209449D01*
X227176Y209066D01*
X227559Y208908D01*
X229835D01*
X229932Y208672D01*
X230315Y208514D01*
X231166D01*
Y199095D01*
X231107Y199079D01*
X230273Y198598D01*
X229591Y197916D01*
X229110Y197082D01*
X228860Y196151D01*
Y195187D01*
X229110Y194257D01*
X229591Y193422D01*
X230273Y192741D01*
X231107Y192259D01*
X232038Y192010D01*
X233001D01*
X233932Y192259D01*
X234767Y192741D01*
X235448Y193422D01*
X235930Y194257D01*
X236179Y195187D01*
Y196151D01*
X235930Y197082D01*
X235448Y197916D01*
X234767Y198598D01*
X233932Y199079D01*
X233205Y199274D01*
Y208514D01*
X236811D01*
X237194Y208672D01*
X237352Y209055D01*
Y212992D01*
X237194Y213375D01*
X236811Y213533D01*
D02*
G37*
G36*
X89340Y193709D02*
X88613D01*
X87910Y193520D01*
X87279Y193157D01*
X86765Y192642D01*
X86401Y192012D01*
X86213Y191309D01*
Y190581D01*
X86401Y189878D01*
X86765Y189248D01*
X87279Y188733D01*
X87910Y188370D01*
X88613Y188181D01*
X89340D01*
X90043Y188370D01*
X90673Y188733D01*
X91188Y189248D01*
X91552Y189878D01*
X91740Y190581D01*
Y191309D01*
X91552Y192012D01*
X91188Y192642D01*
X90673Y193157D01*
X90043Y193520D01*
X89340Y193709D01*
D02*
G37*
G36*
X92240Y178461D02*
X89476D01*
Y175697D01*
X92240D01*
Y178461D01*
D02*
G37*
G36*
X88476D02*
X85713D01*
Y175697D01*
X88476D01*
Y178461D01*
D02*
G37*
G36*
X172221Y177256D02*
X169791D01*
Y174945D01*
X172221D01*
Y177256D01*
D02*
G37*
G36*
X92240Y174697D02*
X89476D01*
Y171933D01*
X92240D01*
Y174697D01*
D02*
G37*
G36*
X144776Y173221D02*
X142347D01*
Y170910D01*
X144776D01*
Y173221D01*
D02*
G37*
G36*
X270355Y179240D02*
X269015D01*
X267702Y178979D01*
X266464Y178466D01*
X265351Y177722D01*
X264404Y176775D01*
X263660Y175662D01*
X263147Y174424D01*
X262886Y173111D01*
Y171771D01*
X263147Y170458D01*
X263660Y169220D01*
X264404Y168107D01*
X265351Y167160D01*
X266464Y166416D01*
X267702Y165903D01*
X269015Y165642D01*
X270355D01*
X271668Y165903D01*
X272906Y166416D01*
X274019Y167160D01*
X274966Y168107D01*
X275710Y169220D01*
X276223Y170458D01*
X276484Y171771D01*
Y173111D01*
X276223Y174424D01*
X275710Y175662D01*
X274966Y176775D01*
X274019Y177722D01*
X272906Y178466D01*
X271668Y178979D01*
X270355Y179240D01*
D02*
G37*
G36*
X36039Y157768D02*
X34161D01*
Y155496D01*
X36039D01*
Y157768D01*
D02*
G37*
G36*
X33161D02*
X31284D01*
Y155496D01*
X33161D01*
Y157768D01*
D02*
G37*
G36*
X118549Y141729D02*
X116238D01*
Y139300D01*
X118549D01*
Y141729D01*
D02*
G37*
G36*
X214709Y138279D02*
X212280D01*
Y135968D01*
X214709D01*
Y138279D01*
D02*
G37*
G36*
X170465Y138362D02*
X168154D01*
Y135933D01*
X170465D01*
Y138362D01*
D02*
G37*
G36*
X11646Y137630D02*
X9161D01*
Y135146D01*
X11646D01*
Y137630D01*
D02*
G37*
G36*
X8161D02*
X5677D01*
Y135146D01*
X8161D01*
Y137630D01*
D02*
G37*
G36*
X256179Y199329D02*
X248860D01*
Y193452D01*
X242528Y187120D01*
X239900D01*
X239510Y187042D01*
X239179Y186821D01*
X177776Y125417D01*
X176776Y125832D01*
Y133004D01*
X179378D01*
Y134310D01*
X180378Y134430D01*
X180545Y134263D01*
X181096Y134034D01*
X181693D01*
X182245Y134263D01*
X182667Y134685D01*
X182895Y135236D01*
Y135833D01*
X182667Y136384D01*
X182245Y136806D01*
X181693Y137034D01*
X181096D01*
X180545Y136806D01*
X180378Y136639D01*
X179378Y136759D01*
Y137862D01*
X174756D01*
Y137862D01*
X173776Y137910D01*
Y138362D01*
X171465D01*
Y135433D01*
X170965D01*
Y134933D01*
X168154D01*
Y132504D01*
X169945D01*
Y126600D01*
X167319D01*
Y125500D01*
X170669D01*
Y124500D01*
X167319D01*
Y123400D01*
X167819D01*
Y119963D01*
Y116026D01*
Y112089D01*
Y108152D01*
Y104215D01*
Y100278D01*
Y97073D01*
X167319D01*
Y95973D01*
X170669D01*
Y95473D01*
X171169D01*
Y93873D01*
X174019D01*
X174019Y93873D01*
Y93873D01*
X174787Y93357D01*
X175811Y92334D01*
Y91347D01*
X178240D01*
Y93657D01*
X177371D01*
X175607Y95421D01*
X176021Y96421D01*
X176575D01*
X176965Y96499D01*
X177296Y96720D01*
X183099Y102524D01*
X205480D01*
Y99910D01*
X209055D01*
X212630D01*
Y102524D01*
X214281D01*
X214695Y101524D01*
X214469Y101297D01*
X214064Y100596D01*
X213854Y99814D01*
Y99005D01*
X214064Y98223D01*
X214469Y97522D01*
X215041Y96949D01*
X215742Y96544D01*
X216524Y96335D01*
X217334D01*
X218116Y96544D01*
X218817Y96949D01*
X219390Y97522D01*
X219794Y98223D01*
X220004Y99005D01*
Y99814D01*
X219794Y100596D01*
X219474Y101152D01*
X219638Y101725D01*
X219910Y102191D01*
X220501Y102269D01*
X222024Y100746D01*
X221938Y100596D01*
X221728Y99814D01*
Y99005D01*
X221938Y98223D01*
X222343Y97522D01*
X222915Y96949D01*
X223616Y96544D01*
X224398Y96335D01*
X225208D01*
X225990Y96544D01*
X226691Y96949D01*
X227264Y97522D01*
X227668Y98223D01*
X227878Y99005D01*
Y99814D01*
X227668Y100596D01*
X227264Y101297D01*
X226691Y101870D01*
X225990Y102275D01*
X225208Y102484D01*
X224398D01*
X223616Y102275D01*
X223466Y102188D01*
X222162Y103492D01*
X222576Y104492D01*
X226152D01*
X229899Y100746D01*
X229812Y100596D01*
X229602Y99814D01*
Y99005D01*
X229812Y98223D01*
X230217Y97522D01*
X230789Y96949D01*
X231490Y96544D01*
X232272Y96335D01*
X233082D01*
X233864Y96544D01*
X234565Y96949D01*
X235138Y97522D01*
X235542Y98223D01*
X235752Y99005D01*
Y99814D01*
X235542Y100596D01*
X235138Y101297D01*
X234565Y101870D01*
X233864Y102275D01*
X233082Y102484D01*
X232272D01*
X231490Y102275D01*
X231340Y102188D01*
X228068Y105461D01*
X228482Y106461D01*
X232058D01*
X237772Y100746D01*
X237686Y100596D01*
X237476Y99814D01*
Y99005D01*
X237686Y98223D01*
X238091Y97522D01*
X238663Y96949D01*
X239364Y96544D01*
X240146Y96335D01*
X240956D01*
X241738Y96544D01*
X242439Y96949D01*
X243012Y97522D01*
X243416Y98223D01*
X243626Y99005D01*
Y99814D01*
X243416Y100596D01*
X243012Y101297D01*
X242439Y101870D01*
X241738Y102275D01*
X240956Y102484D01*
X240146D01*
X239364Y102275D01*
X239214Y102188D01*
X233973Y107429D01*
X234387Y108429D01*
X237964D01*
X243767Y102626D01*
X243767Y102626D01*
X245647Y100746D01*
X245560Y100596D01*
X245350Y99814D01*
Y99005D01*
X245560Y98223D01*
X245965Y97522D01*
X246537Y96949D01*
X247238Y96544D01*
X248020Y96335D01*
X248830D01*
X249612Y96544D01*
X250313Y96949D01*
X250886Y97522D01*
X251290Y98223D01*
X251500Y99005D01*
Y99814D01*
X251290Y100596D01*
X250886Y101297D01*
X250313Y101870D01*
X249612Y102275D01*
X248830Y102484D01*
X248020D01*
X247238Y102275D01*
X247088Y102188D01*
X245209Y104068D01*
X245209Y104068D01*
X240196Y109080D01*
X240579Y110004D01*
X243268D01*
X243658Y110082D01*
X243989Y110303D01*
X253028Y119342D01*
X253330Y119168D01*
X254223Y118929D01*
X255147D01*
X256041Y119168D01*
X256841Y119631D01*
X257495Y120285D01*
X257958Y121086D01*
X258197Y121979D01*
Y122903D01*
X257958Y123796D01*
X257495Y124597D01*
X256841Y125251D01*
X256041Y125713D01*
X255705Y125803D01*
Y134379D01*
X255627Y134769D01*
X255406Y135100D01*
X236949Y153557D01*
X236618Y153778D01*
X236228Y153856D01*
X231824D01*
X231434Y153778D01*
X231103Y153557D01*
X229449Y151902D01*
X229227Y151572D01*
X229150Y151181D01*
Y150697D01*
X228685D01*
X228685Y147728D01*
X227953Y147082D01*
X226260D01*
Y148295D01*
X219118D01*
Y145902D01*
X217638D01*
Y147193D01*
X212780D01*
Y145902D01*
X211796D01*
X211764Y146020D01*
X211369Y146704D01*
X210811Y147263D01*
X210126Y147658D01*
X209364Y147862D01*
X208574D01*
X207811Y147658D01*
X207126Y147263D01*
X206568Y146704D01*
X206173Y146020D01*
X205968Y145257D01*
Y144467D01*
X206173Y143704D01*
X206568Y143020D01*
X207126Y142462D01*
X207811Y142067D01*
X208574Y141862D01*
X209364D01*
X210126Y142067D01*
X210811Y142462D01*
X211369Y143020D01*
X211764Y143704D01*
X211806Y143862D01*
X212780D01*
Y142571D01*
X212779D01*
X212732Y141591D01*
X212280D01*
Y139279D01*
X215209D01*
Y138779D01*
X215709D01*
Y135968D01*
X218138D01*
X218618Y135168D01*
Y134756D01*
X222189D01*
Y138276D01*
X223189D01*
Y134756D01*
X226760D01*
Y135217D01*
X227760Y135825D01*
X228078Y135660D01*
X228185Y135521D01*
Y134630D01*
X229669D01*
Y136614D01*
X230669D01*
Y134630D01*
X232154D01*
Y135130D01*
X234484D01*
Y134630D01*
X235969D01*
Y136614D01*
X236969D01*
Y134630D01*
X237313D01*
X237727Y133630D01*
X228902Y124804D01*
X227388D01*
X227305Y124788D01*
X226841Y125251D01*
X226041Y125713D01*
X225147Y125953D01*
X224223D01*
X223330Y125713D01*
X222529Y125251D01*
X221875Y124597D01*
X221413Y123796D01*
X221173Y122903D01*
Y121979D01*
X221413Y121086D01*
X221875Y120285D01*
X222529Y119631D01*
X223330Y119168D01*
X224223Y118929D01*
X225147D01*
X226041Y119168D01*
X226841Y119631D01*
X227495Y120285D01*
X227958Y121086D01*
X228197Y121979D01*
Y122765D01*
X229324D01*
X229714Y122843D01*
X230045Y123064D01*
X230231Y123249D01*
X230867Y123016D01*
X231173Y122778D01*
Y121979D01*
X231413Y121086D01*
X231875Y120285D01*
X232529Y119631D01*
X233330Y119168D01*
X234223Y118929D01*
X235147D01*
X236041Y119168D01*
X236841Y119631D01*
X237495Y120285D01*
X237958Y121086D01*
X238197Y121979D01*
Y122903D01*
X237958Y123796D01*
X237784Y124098D01*
X243520Y129834D01*
X243741Y130165D01*
X243819Y130555D01*
Y138028D01*
X243741Y138418D01*
X243520Y138749D01*
X239119Y143150D01*
X238788Y143371D01*
X238398Y143449D01*
X237953Y143894D01*
X237953Y144398D01*
Y145213D01*
X238877Y145596D01*
X245835Y138638D01*
Y126804D01*
X245147Y125953D01*
X244223D01*
X243330Y125713D01*
X242529Y125251D01*
X241875Y124597D01*
X241413Y123796D01*
X241173Y122903D01*
Y121979D01*
X241413Y121086D01*
X241586Y120784D01*
X234814Y114012D01*
X179532D01*
X179142Y113934D01*
X178811Y113713D01*
X174443Y109345D01*
X173519Y109728D01*
Y112089D01*
Y116026D01*
Y120044D01*
X174863D01*
X175253Y120121D01*
X175584Y120342D01*
X240322Y185080D01*
X242950D01*
X243341Y185158D01*
X243671Y185379D01*
X250302Y192010D01*
X256179D01*
Y199329D01*
D02*
G37*
G36*
X11646Y134146D02*
X9161D01*
Y131661D01*
X11646D01*
Y134146D01*
D02*
G37*
G36*
X8161D02*
X5677D01*
Y131661D01*
X8161D01*
Y134146D01*
D02*
G37*
G36*
X205213Y126453D02*
X205185D01*
Y122941D01*
X208697D01*
Y122969D01*
X208423Y123989D01*
X207895Y124904D01*
X207148Y125651D01*
X206234Y126179D01*
X205213Y126453D01*
D02*
G37*
G36*
X204185D02*
X204157D01*
X203137Y126179D01*
X202222Y125651D01*
X201475Y124904D01*
X200947Y123989D01*
X200673Y122969D01*
Y122941D01*
X204185D01*
Y126453D01*
D02*
G37*
G36*
X215147Y125953D02*
X214223D01*
X213330Y125713D01*
X212529Y125251D01*
X211875Y124597D01*
X211413Y123796D01*
X211173Y122903D01*
Y121979D01*
X211413Y121086D01*
X211875Y120285D01*
X212529Y119631D01*
X213330Y119168D01*
X214223Y118929D01*
X215147D01*
X216041Y119168D01*
X216841Y119631D01*
X217495Y120285D01*
X217957Y121086D01*
X218197Y121979D01*
Y122903D01*
X217957Y123796D01*
X217495Y124597D01*
X216841Y125251D01*
X216041Y125713D01*
X215147Y125953D01*
D02*
G37*
G36*
X208697Y121941D02*
X205185D01*
Y118429D01*
X205213D01*
X206234Y118703D01*
X207148Y119231D01*
X207895Y119978D01*
X208423Y120893D01*
X208697Y121913D01*
Y121941D01*
D02*
G37*
G36*
X204185D02*
X200673D01*
Y121913D01*
X200947Y120893D01*
X201475Y119978D01*
X202222Y119231D01*
X203137Y118703D01*
X204157Y118429D01*
X204185D01*
Y121941D01*
D02*
G37*
G36*
X270355Y129240D02*
X269015D01*
X267702Y128979D01*
X266464Y128466D01*
X265351Y127722D01*
X264404Y126775D01*
X263660Y125662D01*
X263147Y124424D01*
X262886Y123111D01*
Y121771D01*
X263147Y120458D01*
X263660Y119220D01*
X264404Y118107D01*
X265351Y117160D01*
X266464Y116416D01*
X267702Y115903D01*
X269015Y115642D01*
X270355D01*
X271668Y115903D01*
X272906Y116416D01*
X274019Y117160D01*
X274966Y118107D01*
X275710Y119220D01*
X276223Y120458D01*
X276484Y121771D01*
Y123111D01*
X276223Y124424D01*
X275710Y125662D01*
X274966Y126775D01*
X274019Y127722D01*
X272906Y128466D01*
X271668Y128979D01*
X270355Y129240D01*
D02*
G37*
G36*
X190433D02*
X189094D01*
X187781Y128979D01*
X186543Y128466D01*
X185430Y127722D01*
X184483Y126775D01*
X183739Y125662D01*
X183226Y124424D01*
X182965Y123111D01*
Y121771D01*
X183226Y120458D01*
X183739Y119220D01*
X184483Y118107D01*
X185430Y117160D01*
X186543Y116416D01*
X187781Y115903D01*
X189094Y115642D01*
X190433D01*
X191747Y115903D01*
X192984Y116416D01*
X194098Y117160D01*
X195045Y118107D01*
X195789Y119220D01*
X196301Y120458D01*
X196563Y121771D01*
Y123111D01*
X196301Y124424D01*
X195789Y125662D01*
X195045Y126775D01*
X194098Y127722D01*
X192984Y128466D01*
X191747Y128979D01*
X190433Y129240D01*
D02*
G37*
G36*
X9156Y113508D02*
X8167D01*
X7254Y113130D01*
X6555Y112431D01*
X6177Y111518D01*
Y110529D01*
X6555Y109616D01*
X7254Y108918D01*
X8167Y108539D01*
X9156D01*
X10069Y108918D01*
X10768Y109616D01*
X11146Y110529D01*
Y111518D01*
X10768Y112431D01*
X10069Y113130D01*
X9156Y113508D01*
D02*
G37*
G36*
Y105634D02*
X8167D01*
X7254Y105256D01*
X6555Y104557D01*
X6177Y103644D01*
Y102655D01*
X6555Y101742D01*
X7254Y101044D01*
X8167Y100665D01*
X9156D01*
X10069Y101044D01*
X10768Y101742D01*
X11146Y102655D01*
Y103644D01*
X10768Y104557D01*
X10069Y105256D01*
X9156Y105634D01*
D02*
G37*
G36*
X212630Y98909D02*
X209555D01*
Y95835D01*
X212630D01*
Y98909D01*
D02*
G37*
G36*
X208555D02*
X205480D01*
Y95835D01*
X208555D01*
Y98909D01*
D02*
G37*
G36*
X170169Y94973D02*
X167319D01*
Y93873D01*
X170169D01*
Y94973D01*
D02*
G37*
G36*
X106193Y96606D02*
X102110D01*
Y93272D01*
X106193D01*
Y96606D01*
D02*
G37*
G36*
X95770Y97760D02*
X94781D01*
X93868Y97382D01*
X93169Y96683D01*
X92791Y95770D01*
Y94781D01*
X93169Y93868D01*
X93868Y93170D01*
X94781Y92791D01*
X95770D01*
X96683Y93170D01*
X97382Y93868D01*
X97760Y94781D01*
Y95770D01*
X97382Y96683D01*
X96683Y97382D01*
X95770Y97760D01*
D02*
G37*
G36*
X9156D02*
X8167D01*
X7254Y97382D01*
X6555Y96683D01*
X6177Y95770D01*
Y94781D01*
X6555Y93868D01*
X7254Y93170D01*
X8167Y92791D01*
X9156D01*
X10069Y93170D01*
X10768Y93868D01*
X11146Y94781D01*
Y95770D01*
X10768Y96683D01*
X10069Y97382D01*
X9156Y97760D01*
D02*
G37*
G36*
X181669Y93657D02*
X179240D01*
Y91347D01*
X181669D01*
Y93657D01*
D02*
G37*
G36*
X111276Y92272D02*
X107193D01*
Y88937D01*
X111276D01*
Y92272D01*
D02*
G37*
G36*
X106193D02*
X102110D01*
Y88937D01*
X106193D01*
Y92272D01*
D02*
G37*
G36*
X95770Y89886D02*
X94781D01*
X93868Y89508D01*
X93169Y88809D01*
X92791Y87896D01*
Y86907D01*
X93169Y85994D01*
X93868Y85295D01*
X94781Y84917D01*
X95770D01*
X96683Y85295D01*
X97382Y85994D01*
X97760Y86907D01*
Y87896D01*
X97382Y88809D01*
X96683Y89508D01*
X95770Y89886D01*
D02*
G37*
G36*
X9156D02*
X8167D01*
X7254Y89508D01*
X6555Y88809D01*
X6177Y87896D01*
Y86907D01*
X6555Y85994D01*
X7254Y85295D01*
X8167Y84917D01*
X9156D01*
X10069Y85295D01*
X10768Y85994D01*
X11146Y86907D01*
Y87896D01*
X10768Y88809D01*
X10069Y89508D01*
X9156Y89886D01*
D02*
G37*
G36*
X268953Y87260D02*
X266642D01*
Y83965D01*
X268953D01*
Y87260D01*
D02*
G37*
G36*
X265642D02*
X263331D01*
Y83965D01*
X265642D01*
Y87260D01*
D02*
G37*
G36*
X274781Y112252D02*
X273991D01*
X273228Y112048D01*
X272544Y111653D01*
X271985Y111094D01*
X271590Y110410D01*
X271386Y109647D01*
Y108857D01*
X271590Y108094D01*
X271985Y107410D01*
X272289Y107106D01*
X272452Y106091D01*
X272293Y105709D01*
Y103433D01*
X272058Y103335D01*
X271900Y102953D01*
Y96457D01*
X272058Y96074D01*
X272076Y96066D01*
X272485Y95139D01*
X272498Y94915D01*
X272441Y94832D01*
X272058Y94674D01*
X271900Y94291D01*
Y93783D01*
X271789Y93639D01*
X271631Y93258D01*
X270472D01*
X270090Y93099D01*
X269931Y92716D01*
Y89961D01*
X270090Y89578D01*
X270472Y89419D01*
X271384D01*
Y86553D01*
X271285Y85805D01*
Y84712D01*
X271093Y84248D01*
X270990Y83465D01*
X271093Y82681D01*
X271395Y81952D01*
X271705Y81548D01*
Y80169D01*
X276327D01*
Y81496D01*
X276451Y81620D01*
X276932Y82247D01*
X277234Y82977D01*
X277337Y83760D01*
Y85156D01*
X277435Y85903D01*
Y89419D01*
X278346D01*
X278729Y89578D01*
X278888Y89961D01*
Y92716D01*
X278729Y93099D01*
X278346Y93258D01*
X277188D01*
X277030Y93639D01*
X276919Y93783D01*
Y94291D01*
X276761Y94674D01*
X276378Y94832D01*
X276321Y94915D01*
X276334Y95139D01*
X276743Y96066D01*
X276761Y96074D01*
X276919Y96457D01*
Y102953D01*
X276761Y103335D01*
X276525Y103433D01*
Y105709D01*
X276367Y106091D01*
X276497Y107120D01*
X276786Y107410D01*
X277181Y108094D01*
X277386Y108857D01*
Y109647D01*
X277181Y110410D01*
X276786Y111094D01*
X276228Y111653D01*
X275544Y112048D01*
X274781Y112252D01*
D02*
G37*
G36*
X268953Y82965D02*
X266642D01*
Y79669D01*
X268953D01*
Y82965D01*
D02*
G37*
G36*
X265642D02*
X263331D01*
Y79669D01*
X265642D01*
Y82965D01*
D02*
G37*
G36*
X95770Y82012D02*
X94781D01*
X93868Y81634D01*
X93169Y80935D01*
X92791Y80022D01*
Y79033D01*
X93169Y78120D01*
X93868Y77421D01*
X94781Y77043D01*
X95770D01*
X96683Y77421D01*
X97382Y78120D01*
X97760Y79033D01*
Y80022D01*
X97382Y80935D01*
X96683Y81634D01*
X95770Y82012D01*
D02*
G37*
G36*
X9156D02*
X8167D01*
X7254Y81634D01*
X6555Y80935D01*
X6177Y80022D01*
Y79033D01*
X6555Y78120D01*
X7254Y77421D01*
X8167Y77043D01*
X9156D01*
X10069Y77421D01*
X10768Y78120D01*
X11146Y79033D01*
Y80022D01*
X10768Y80935D01*
X10069Y81634D01*
X9156Y82012D01*
D02*
G37*
G36*
X182941Y80559D02*
X177374D01*
Y73772D01*
X182941D01*
Y76138D01*
X183941Y76143D01*
X184190Y75894D01*
X184741Y75665D01*
X185338D01*
X185889Y75894D01*
X186311Y76316D01*
X186539Y76867D01*
Y77464D01*
X186311Y78015D01*
X185889Y78437D01*
X185338Y78665D01*
X184741D01*
X184190Y78437D01*
X183941Y78188D01*
X182941Y78193D01*
Y80559D01*
D02*
G37*
G36*
X216142Y81766D02*
X215359Y81663D01*
X214629Y81361D01*
X214002Y80880D01*
X209682Y76560D01*
X209202Y75933D01*
X208899Y75204D01*
X208796Y74420D01*
Y70950D01*
X208785Y70866D01*
Y69434D01*
X205747Y66396D01*
X173350D01*
X172567Y66293D01*
X171837Y65991D01*
X171211Y65510D01*
X160959Y55258D01*
X160478Y54631D01*
X160176Y53901D01*
X160073Y53118D01*
Y31202D01*
X153156Y24286D01*
X150587D01*
X150405Y24335D01*
X149595D01*
X149413Y24286D01*
X127736D01*
X127024Y24476D01*
X126215D01*
X125433Y24267D01*
X124732Y23862D01*
X124159Y23290D01*
X123754Y22588D01*
X123545Y21806D01*
Y20997D01*
X123754Y20215D01*
X124159Y19514D01*
X124732Y18941D01*
X125230Y18653D01*
X125249Y18639D01*
X125269Y18631D01*
X125433Y18536D01*
X125615Y18487D01*
X125978Y18337D01*
X126761Y18234D01*
X149413D01*
X149595Y18185D01*
X150405D01*
X150587Y18234D01*
X154410D01*
X155193Y18337D01*
X155922Y18639D01*
X156549Y19120D01*
X165238Y27809D01*
X165719Y28436D01*
X166021Y29166D01*
X166124Y29949D01*
Y51865D01*
X174604Y60344D01*
X179431D01*
X179845Y59344D01*
X179827Y59326D01*
X179300Y58414D01*
X179028Y57397D01*
Y56344D01*
X179300Y55326D01*
X179827Y54414D01*
X180002Y54239D01*
Y53042D01*
X171972D01*
X171189Y52938D01*
X170853Y52799D01*
X168579D01*
Y47232D01*
X170853D01*
X171189Y47093D01*
X171972Y46990D01*
X179791D01*
Y44220D01*
X178691Y43120D01*
X178210Y42493D01*
X177908Y41763D01*
X177805Y40980D01*
Y33067D01*
X177908Y32284D01*
X178144Y31714D01*
Y28691D01*
X179569D01*
Y33158D01*
X182069D01*
Y28691D01*
X183494D01*
Y31657D01*
X183754Y32284D01*
X183857Y33067D01*
Y39508D01*
X186358D01*
Y39675D01*
X187221Y40008D01*
Y40008D01*
X192787D01*
Y42282D01*
X192927Y42618D01*
X193030Y43402D01*
Y47087D01*
X193030Y47087D01*
X192927Y47870D01*
X192624Y48600D01*
X192144Y49226D01*
X192143Y49226D01*
X189215Y52155D01*
X188588Y52636D01*
X187858Y52938D01*
X187075Y53042D01*
X186053D01*
Y54239D01*
X186228Y54414D01*
X186755Y55326D01*
X187028Y56344D01*
Y57397D01*
X186755Y58414D01*
X186228Y59326D01*
X186210Y59344D01*
X186625Y60344D01*
X201797D01*
Y53799D01*
X201698Y53051D01*
Y32283D01*
X201802Y31500D01*
X202104Y30770D01*
X202354Y30444D01*
Y27551D01*
X207095D01*
Y30444D01*
X207345Y30770D01*
X207647Y31500D01*
X207750Y32283D01*
Y50392D01*
X208614Y50721D01*
X208750Y50721D01*
X209163D01*
X209412Y50529D01*
X210142Y50227D01*
X210925Y50124D01*
X211708Y50227D01*
X212438Y50529D01*
X212687Y50721D01*
X213236D01*
Y51181D01*
X216438Y54384D01*
X218525D01*
X219177Y53654D01*
Y48101D01*
X219177Y48087D01*
X219143Y47101D01*
X216430D01*
X216161Y47370D01*
X215249Y47897D01*
X214231Y48169D01*
X213178D01*
X212161Y47897D01*
X211249Y47370D01*
X210504Y46625D01*
X209977Y45713D01*
X209705Y44696D01*
Y43643D01*
X209977Y42625D01*
X210504Y41713D01*
X211249Y40968D01*
X212161Y40442D01*
X213178Y40169D01*
X214231D01*
X215249Y40442D01*
X216161Y40968D01*
X216241Y41049D01*
X219710D01*
Y31201D01*
X219813Y30418D01*
X220116Y29688D01*
X220464Y29233D01*
Y27551D01*
X225205D01*
Y29263D01*
X225455Y29589D01*
X225757Y30319D01*
X225861Y31102D01*
X225762Y31850D01*
Y41049D01*
X236508D01*
Y38870D01*
X261130D01*
Y63492D01*
X240787D01*
X231274Y73006D01*
X230647Y73487D01*
X229917Y73789D01*
X229134Y73892D01*
X219685D01*
X218902Y73789D01*
X218518Y73630D01*
X216921D01*
Y72033D01*
X216762Y71649D01*
X216659Y70866D01*
X216762Y70083D01*
X216921Y69699D01*
Y68102D01*
X218518D01*
X218902Y67943D01*
X219685Y67840D01*
X227881D01*
X236508Y59213D01*
Y47101D01*
X225998D01*
X225965Y48087D01*
X225965Y48101D01*
Y49807D01*
X227788Y51631D01*
X227788Y51631D01*
X228269Y52258D01*
X228374Y52510D01*
X229381Y53517D01*
X229997Y53682D01*
X230909Y54209D01*
X231654Y54953D01*
X232180Y55866D01*
X232453Y56883D01*
Y57936D01*
X232180Y58953D01*
X231654Y59865D01*
X230909Y60610D01*
X229997Y61137D01*
X228979Y61409D01*
X227926D01*
X226909Y61137D01*
X225997Y60610D01*
X225822Y60435D01*
X215185D01*
X214402Y60332D01*
X213672Y60030D01*
X213045Y59549D01*
X209075Y55579D01*
X208614Y55579D01*
X207849Y56145D01*
Y59939D01*
X209120Y61211D01*
X213951Y66041D01*
X214432Y66668D01*
X214734Y67398D01*
X214837Y68181D01*
Y70793D01*
X214848Y70877D01*
Y73167D01*
X217395Y75714D01*
X234967D01*
X238411Y72270D01*
X239038Y71789D01*
X239768Y71487D01*
X240551Y71384D01*
X264370D01*
X265153Y71487D01*
X265537Y71646D01*
X267134D01*
Y73242D01*
X267293Y73626D01*
X267396Y74410D01*
X267293Y75193D01*
X267134Y75577D01*
Y77173D01*
X265537D01*
X265153Y77332D01*
X264370Y77435D01*
X241805D01*
X238360Y80880D01*
X237733Y81361D01*
X237004Y81663D01*
X236221Y81766D01*
X216142D01*
X216142Y81766D01*
D02*
G37*
G36*
X204437Y74111D02*
Y71366D01*
X207182D01*
X206978Y72126D01*
X206549Y72870D01*
X205941Y73478D01*
X205197Y73908D01*
X204437Y74111D01*
D02*
G37*
G36*
X203437Y74111D02*
X202677Y73908D01*
X201933Y73478D01*
X201325Y72870D01*
X200896Y72126D01*
X200692Y71366D01*
X203437D01*
Y74111D01*
D02*
G37*
G36*
X95770Y74138D02*
X94781D01*
X93868Y73760D01*
X93169Y73061D01*
X92791Y72148D01*
Y71159D01*
X93169Y70246D01*
X93868Y69547D01*
X94781Y69169D01*
X95770D01*
X96683Y69547D01*
X97382Y70246D01*
X97760Y71159D01*
Y72148D01*
X97382Y73061D01*
X96683Y73760D01*
X95770Y74138D01*
D02*
G37*
G36*
X9156D02*
X8167D01*
X7254Y73760D01*
X6555Y73061D01*
X6177Y72148D01*
Y71159D01*
X6555Y70246D01*
X7254Y69547D01*
X8167Y69169D01*
X9156D01*
X10069Y69547D01*
X10768Y70246D01*
X11146Y71159D01*
Y72148D01*
X10768Y73061D01*
X10069Y73760D01*
X9156Y74138D01*
D02*
G37*
G36*
X196427Y73630D02*
X195699D01*
X194996Y73442D01*
X194366Y73078D01*
X193851Y72563D01*
X193488Y71933D01*
X193299Y71230D01*
Y70502D01*
X193488Y69799D01*
X193851Y69169D01*
X194366Y68655D01*
X194996Y68291D01*
X195699Y68102D01*
X196427D01*
X197130Y68291D01*
X197760Y68655D01*
X198275Y69169D01*
X198638Y69799D01*
X198827Y70502D01*
Y71230D01*
X198638Y71933D01*
X198275Y72563D01*
X197760Y73078D01*
X197130Y73442D01*
X196427Y73630D01*
D02*
G37*
G36*
X207182Y70366D02*
X204437D01*
Y67621D01*
X205197Y67825D01*
X205941Y68255D01*
X206549Y68862D01*
X206978Y69606D01*
X207182Y70366D01*
D02*
G37*
G36*
X203437D02*
X200692D01*
X200896Y69606D01*
X201325Y68862D01*
X201933Y68255D01*
X202677Y67825D01*
X203437Y67621D01*
Y70366D01*
D02*
G37*
G36*
X156350Y68004D02*
X153567D01*
Y64610D01*
X156350D01*
Y68004D01*
D02*
G37*
G36*
X9156Y66264D02*
X8167D01*
X7254Y65886D01*
X6555Y65187D01*
X6177Y64274D01*
Y63285D01*
X6555Y62372D01*
X7254Y61673D01*
X8167Y61295D01*
X9156D01*
X10069Y61673D01*
X10768Y62372D01*
X11146Y63285D01*
Y64274D01*
X10768Y65187D01*
X10069Y65886D01*
X9156Y66264D01*
D02*
G37*
G36*
X116248Y57512D02*
Y54043D01*
X119717D01*
Y57512D01*
X116248D01*
D02*
G37*
G36*
X119717Y53043D02*
X116248D01*
Y49575D01*
X119717D01*
Y53043D01*
D02*
G37*
G36*
X115248D02*
X111779D01*
Y49575D01*
X115248D01*
Y53043D01*
D02*
G37*
G36*
X273622Y77435D02*
X272839Y77332D01*
X272455Y77173D01*
X270858D01*
Y75577D01*
X270699Y75193D01*
X270596Y74410D01*
X270699Y73626D01*
X270858Y73242D01*
Y71646D01*
X271384D01*
Y68061D01*
X270472D01*
X270090Y67902D01*
X269931Y67520D01*
Y64764D01*
X270090Y64381D01*
X270472Y64223D01*
X271631D01*
X271789Y63841D01*
X271900Y63697D01*
Y63189D01*
X272058Y62806D01*
X272441Y62648D01*
X272498Y62565D01*
X272485Y62341D01*
X272076Y61414D01*
X272058Y61406D01*
X271900Y61024D01*
Y54528D01*
X272058Y54145D01*
X272293Y54048D01*
Y51772D01*
X272370Y51586D01*
Y51289D01*
X272260Y51226D01*
X271609Y50574D01*
X271148Y49776D01*
X270910Y48886D01*
Y47964D01*
X271148Y47074D01*
X271609Y46276D01*
X272260Y45625D01*
X273059Y45164D01*
X273949Y44925D01*
X274870D01*
X275760Y45164D01*
X276558Y45625D01*
X277210Y46276D01*
X277671Y47074D01*
X277909Y47964D01*
Y48886D01*
X277671Y49776D01*
X277210Y50574D01*
X276558Y51226D01*
X276449Y51289D01*
Y51586D01*
X276525Y51772D01*
Y54048D01*
X276761Y54145D01*
X276919Y54528D01*
Y61024D01*
X276761Y61406D01*
X276743Y61414D01*
X276334Y62341D01*
X276321Y62565D01*
X276378Y62648D01*
X276761Y62806D01*
X276919Y63189D01*
Y63697D01*
X277030Y63841D01*
X277188Y64223D01*
X278346D01*
X278729Y64381D01*
X278888Y64764D01*
Y67520D01*
X278729Y67902D01*
X278346Y68061D01*
X277435D01*
Y73622D01*
X277332Y74405D01*
X277030Y75135D01*
X276549Y75762D01*
X276386Y75925D01*
Y77173D01*
X274789D01*
X274405Y77332D01*
X273622Y77435D01*
D02*
G37*
G36*
X16456Y46146D02*
X13692D01*
Y43382D01*
X16456D01*
Y46146D01*
D02*
G37*
G36*
X12692D02*
X9928D01*
Y43382D01*
X12692D01*
Y46146D01*
D02*
G37*
G36*
X37178Y45646D02*
X36450D01*
X35747Y45457D01*
X35117Y45094D01*
X34603Y44579D01*
X34239Y43949D01*
X34050Y43246D01*
Y42518D01*
X34239Y41815D01*
X34603Y41185D01*
X35117Y40670D01*
X35747Y40306D01*
X36450Y40118D01*
X37178D01*
X37881Y40306D01*
X38511Y40670D01*
X39026Y41185D01*
X39390Y41815D01*
X39578Y42518D01*
Y43246D01*
X39390Y43949D01*
X39026Y44579D01*
X38511Y45094D01*
X37881Y45457D01*
X37178Y45646D01*
D02*
G37*
G36*
X21430D02*
X20702D01*
X19999Y45457D01*
X19369Y45094D01*
X18855Y44579D01*
X18491Y43949D01*
X18302Y43246D01*
Y42518D01*
X18491Y41815D01*
X18855Y41185D01*
X19369Y40670D01*
X19999Y40306D01*
X20702Y40118D01*
X21430D01*
X22133Y40306D01*
X22763Y40670D01*
X23278Y41185D01*
X23642Y41815D01*
X23830Y42518D01*
Y43246D01*
X23642Y43949D01*
X23278Y44579D01*
X22763Y45094D01*
X22133Y45457D01*
X21430Y45646D01*
D02*
G37*
G36*
X16456Y42382D02*
X13692D01*
Y39618D01*
X16456D01*
Y42382D01*
D02*
G37*
G36*
X12692D02*
X9928D01*
Y39618D01*
X12692D01*
Y42382D01*
D02*
G37*
G36*
X192049Y37124D02*
X187699D01*
Y34771D01*
X187462Y34462D01*
X187160Y33732D01*
X187057Y32949D01*
Y27135D01*
X186882Y26960D01*
X186355Y26048D01*
X186083Y25030D01*
Y23977D01*
X186355Y22960D01*
X186882Y22048D01*
X187627Y21303D01*
X188539Y20776D01*
X189556Y20504D01*
X190609D01*
X191627Y20776D01*
X192539Y21303D01*
X193283Y22048D01*
X193810Y22960D01*
X194083Y23977D01*
Y25030D01*
X193810Y26048D01*
X193283Y26960D01*
X193109Y27135D01*
Y32949D01*
X193006Y33732D01*
X192703Y34462D01*
X192222Y35089D01*
X192049Y35222D01*
Y37124D01*
D02*
G37*
G36*
X216149Y37016D02*
X211409D01*
Y33418D01*
X211198Y33143D01*
X210896Y32413D01*
X210793Y31630D01*
Y31401D01*
X210753Y31102D01*
Y21480D01*
Y14181D01*
X206882D01*
Y12645D01*
X205882Y12575D01*
X205756Y12701D01*
X204844Y13227D01*
X203827Y13500D01*
X202773D01*
X201756Y13227D01*
X200844Y12701D01*
X200099Y11956D01*
X199573Y11044D01*
X199300Y10027D01*
Y8973D01*
X199573Y7956D01*
X200099Y7044D01*
X200844Y6299D01*
X201756Y5773D01*
X202773Y5500D01*
X203827D01*
X204844Y5773D01*
X205756Y6299D01*
X205882Y6425D01*
X206882Y6355D01*
Y4717D01*
X220677D01*
Y6213D01*
X221677Y6366D01*
X221744Y6299D01*
X222656Y5773D01*
X223673Y5500D01*
X224727D01*
X225744Y5773D01*
X226656Y6299D01*
X227401Y7044D01*
X227927Y7956D01*
X228200Y8973D01*
Y10027D01*
X227927Y11044D01*
X227401Y11956D01*
X226656Y12701D01*
X225744Y13227D01*
X224727Y13500D01*
X223673D01*
X222656Y13227D01*
X221744Y12701D01*
X221677Y12634D01*
X220677Y12787D01*
Y14181D01*
X216805D01*
Y18454D01*
X219897D01*
X220249Y18102D01*
X221161Y17576D01*
X222178Y17303D01*
X223231D01*
X224249Y17576D01*
X225161Y18102D01*
X225905Y18847D01*
X226432Y19759D01*
X226705Y20776D01*
Y21830D01*
X226432Y22847D01*
X225905Y23759D01*
X225161Y24504D01*
X224249Y25031D01*
X223231Y25303D01*
X222178D01*
X221161Y25031D01*
X220253Y24506D01*
X216805D01*
Y28969D01*
X216845Y29268D01*
Y31630D01*
X216742Y32413D01*
X216439Y33143D01*
X216149Y33520D01*
Y37016D01*
D02*
G37*
G36*
X90220Y23154D02*
X89307D01*
X88425Y22917D01*
X87634Y22460D01*
X86988Y21815D01*
X86532Y21024D01*
X86295Y20142D01*
Y19228D01*
X86532Y18346D01*
X86988Y17555D01*
X87634Y16910D01*
X88425Y16453D01*
X89307Y16217D01*
X90220D01*
X91103Y16453D01*
X91894Y16910D01*
X92539Y17555D01*
X92996Y18346D01*
X93232Y19228D01*
Y20142D01*
X92996Y21024D01*
X92539Y21815D01*
X91894Y22460D01*
X91103Y22917D01*
X90220Y23154D01*
D02*
G37*
G36*
X171870Y45896D02*
X171673Y45870D01*
X168579D01*
Y40303D01*
X168844D01*
Y31145D01*
X168750Y30428D01*
Y20840D01*
X168320Y20095D01*
X168047Y19078D01*
Y18025D01*
X168320Y17007D01*
X168846Y16095D01*
X169591Y15350D01*
X170503Y14824D01*
X171521Y14551D01*
X172574D01*
X173591Y14824D01*
X174503Y15350D01*
X175248Y16095D01*
X175775Y17007D01*
X176047Y18025D01*
Y19078D01*
X175775Y20095D01*
X175248Y21007D01*
X174802Y21454D01*
Y29711D01*
X174896Y30428D01*
Y40303D01*
X175366D01*
Y45870D01*
X172067D01*
X171870Y45896D01*
D02*
G37*
G36*
X188021Y13805D02*
X182069D01*
Y10589D01*
X188021D01*
Y13805D01*
D02*
G37*
G36*
X179569D02*
X173617D01*
Y10589D01*
X179569D01*
Y13805D01*
D02*
G37*
G36*
X249788Y35146D02*
X247850D01*
X245936Y34843D01*
X244093Y34244D01*
X242367Y33364D01*
X240799Y32225D01*
X239429Y30855D01*
X238290Y29287D01*
X237410Y27560D01*
X236811Y25717D01*
X236508Y23804D01*
Y21866D01*
X236811Y19952D01*
X237410Y18109D01*
X238290Y16382D01*
X239429Y14815D01*
X240799Y13444D01*
X242367Y12305D01*
X244093Y11426D01*
X245936Y10827D01*
X247850Y10524D01*
X249788D01*
X251702Y10827D01*
X253545Y11426D01*
X255271Y12305D01*
X256839Y13444D01*
X258209Y14815D01*
X259348Y16382D01*
X260228Y18109D01*
X260827Y19952D01*
X261130Y21866D01*
Y23804D01*
X260827Y25717D01*
X260228Y27560D01*
X259348Y29287D01*
X258209Y30855D01*
X256839Y32225D01*
X255271Y33364D01*
X253545Y34244D01*
X251702Y34843D01*
X249788Y35146D01*
D02*
G37*
G36*
X127024Y16602D02*
X126215D01*
X125433Y16393D01*
X124732Y15988D01*
X124159Y15416D01*
X123754Y14714D01*
X123545Y13932D01*
Y13123D01*
X123754Y12341D01*
X124159Y11640D01*
X124732Y11067D01*
X125433Y10662D01*
X126215Y10453D01*
X127024D01*
X127806Y10662D01*
X128508Y11067D01*
X129080Y11640D01*
X129485Y12341D01*
X129694Y13123D01*
Y13932D01*
X129485Y14714D01*
X129080Y15416D01*
X128508Y15988D01*
X127806Y16393D01*
X127024Y16602D01*
D02*
G37*
G36*
X150405Y16461D02*
X149595D01*
X148813Y16251D01*
X148112Y15846D01*
X147540Y15274D01*
X147135Y14573D01*
X146925Y13791D01*
Y12981D01*
X147135Y12199D01*
X147540Y11498D01*
X148112Y10925D01*
X148813Y10521D01*
X149595Y10311D01*
X150405D01*
X151187Y10521D01*
X151888Y10925D01*
X152460Y11498D01*
X152865Y12199D01*
X153075Y12981D01*
Y13791D01*
X152865Y14573D01*
X152460Y15274D01*
X151888Y15846D01*
X151187Y16251D01*
X150405Y16461D01*
D02*
G37*
G36*
X274056Y19004D02*
X272716D01*
X271403Y18743D01*
X270165Y18230D01*
X269052Y17486D01*
X268105Y16539D01*
X267360Y15425D01*
X266848Y14188D01*
X266587Y12874D01*
Y11535D01*
X266848Y10221D01*
X267360Y8984D01*
X268105Y7870D01*
X269052Y6923D01*
X270165Y6179D01*
X271403Y5667D01*
X272716Y5406D01*
X274056D01*
X275369Y5667D01*
X276606Y6179D01*
X277720Y6923D01*
X278667Y7870D01*
X279411Y8984D01*
X279924Y10221D01*
X280185Y11535D01*
Y12874D01*
X279924Y14188D01*
X279411Y15425D01*
X278667Y16539D01*
X277720Y17486D01*
X276606Y18230D01*
X275369Y18743D01*
X274056Y19004D01*
D02*
G37*
G36*
X12874D02*
X11535D01*
X10221Y18743D01*
X8984Y18230D01*
X7870Y17486D01*
X6923Y16539D01*
X6179Y15425D01*
X5667Y14188D01*
X5406Y12874D01*
Y11535D01*
X5667Y10221D01*
X6179Y8984D01*
X6923Y7870D01*
X7870Y6923D01*
X8984Y6179D01*
X10221Y5667D01*
X11535Y5406D01*
X12874D01*
X14188Y5667D01*
X15425Y6179D01*
X16539Y6923D01*
X17486Y7870D01*
X18230Y8984D01*
X18743Y10221D01*
X19004Y11535D01*
Y12874D01*
X18743Y14188D01*
X18230Y15425D01*
X17486Y16539D01*
X16539Y17486D01*
X15425Y18230D01*
X14188Y18743D01*
X12874Y19004D01*
D02*
G37*
G36*
X188021Y8089D02*
X182069D01*
Y4872D01*
X188021D01*
Y8089D01*
D02*
G37*
G36*
X179569D02*
X173617D01*
Y4872D01*
X179569D01*
Y8089D01*
D02*
G37*
%LPD*%
G36*
X139939Y156011D02*
X140190Y155761D01*
X140791Y155414D01*
Y153071D01*
X140869Y152681D01*
X141090Y152350D01*
X144059Y149381D01*
Y144720D01*
X143256Y143924D01*
X142444Y143944D01*
X142033Y144426D01*
Y148750D01*
X141955Y149141D01*
X141734Y149471D01*
X137335Y153871D01*
X137004Y154092D01*
X136614Y154169D01*
X123013D01*
X122833Y154268D01*
X122777Y154364D01*
X122791Y154643D01*
X123202Y155628D01*
X123432Y155761D01*
X123683Y156011D01*
X124311Y156161D01*
X124939Y156011D01*
X125190Y155761D01*
X125792Y155413D01*
X126463Y155234D01*
X127159D01*
X127830Y155413D01*
X128432Y155761D01*
X128683Y156011D01*
X129311Y156161D01*
X129939Y156011D01*
X130190Y155761D01*
X130792Y155413D01*
X131463Y155234D01*
X132159D01*
X132830Y155413D01*
X133432Y155761D01*
X133683Y156011D01*
X134311Y156161D01*
X134939Y156011D01*
X135190Y155761D01*
X135792Y155413D01*
X136463Y155234D01*
X137159D01*
X137830Y155413D01*
X138432Y155761D01*
X138683Y156011D01*
X139311Y156161D01*
X139939Y156011D01*
D02*
G37*
G36*
X138154Y144870D02*
Y138183D01*
X137154Y137769D01*
X133647Y141276D01*
X134061Y142276D01*
X134988D01*
Y146729D01*
X135912Y147111D01*
X138154Y144870D01*
D02*
G37*
G36*
X113968Y119146D02*
X113553Y118146D01*
X111249D01*
X98359Y131036D01*
X98028Y131257D01*
X97638Y131334D01*
X96387D01*
X96188Y132334D01*
X96683Y132540D01*
X97382Y133238D01*
X97698Y134001D01*
X98290Y134258D01*
X98760Y134353D01*
X113968Y119146D01*
D02*
G37*
G36*
X106972Y115209D02*
X106557Y114209D01*
X101800D01*
X99540Y116469D01*
X99209Y116690D01*
X98819Y116768D01*
X98073D01*
X97862Y116988D01*
X97496Y117768D01*
X97760Y118403D01*
Y119392D01*
X97382Y120305D01*
X96683Y121004D01*
X96188Y121209D01*
X96387Y122209D01*
X99971D01*
X106972Y115209D01*
D02*
G37*
G36*
X100263Y110500D02*
X100594Y110279D01*
X100984Y110201D01*
X121091D01*
X121505Y109201D01*
X120804Y108500D01*
X97679D01*
X97265Y109500D01*
X97382Y109616D01*
X97760Y110529D01*
Y111518D01*
X97710Y111639D01*
X98557Y112205D01*
X100263Y110500D01*
D02*
G37*
G36*
X124082Y132153D02*
X124413Y131932D01*
X124803Y131854D01*
X131668D01*
Y129524D01*
X132768D01*
Y132874D01*
X133768D01*
Y129524D01*
X134868D01*
Y130024D01*
X136185D01*
Y122047D01*
X136263Y121657D01*
X136484Y121326D01*
X159807Y98003D01*
Y90448D01*
X158490D01*
Y90948D01*
X157390D01*
Y87599D01*
X156390D01*
Y90948D01*
X155290D01*
Y90448D01*
X138805D01*
Y90948D01*
X137705D01*
Y87599D01*
X136705D01*
Y90948D01*
X135605D01*
Y90448D01*
X132168D01*
Y87104D01*
X130966D01*
X130576Y87026D01*
X130245Y86805D01*
X126429Y82989D01*
X125429Y83403D01*
Y94373D01*
X128244D01*
Y96341D01*
Y99778D01*
X128744D01*
Y100878D01*
X125394D01*
Y101878D01*
X128744D01*
Y102978D01*
X128244D01*
Y108152D01*
Y112089D01*
Y116026D01*
Y119963D01*
Y123400D01*
X128744D01*
Y124500D01*
X125394D01*
Y125000D01*
X124894D01*
Y126600D01*
X123267D01*
X123162Y126705D01*
X122831Y126926D01*
X122441Y127004D01*
X119858D01*
Y129583D01*
X119406D01*
X119358Y130563D01*
X119358Y130583D01*
Y134871D01*
X119358Y135185D01*
X120074Y135871D01*
X120364D01*
X124082Y132153D01*
D02*
G37*
%LPC*%
G36*
X128744Y126600D02*
X125894D01*
Y125500D01*
X128744D01*
Y126600D01*
D02*
G37*
%LPD*%
G36*
X243307Y207087D02*
X240551D01*
Y209055D01*
X238976D01*
Y212992D01*
X240551D01*
Y214961D01*
X243307D01*
Y207087D01*
D02*
G37*
G36*
X236811Y209055D02*
X230315D01*
Y209449D01*
X227559D01*
Y212598D01*
X230315D01*
Y212992D01*
X236811D01*
Y209055D01*
D02*
G37*
G36*
X241780Y137370D02*
Y130977D01*
X236342Y125540D01*
X236041Y125713D01*
X235147Y125953D01*
X234348D01*
X234110Y126259D01*
X233877Y126895D01*
X239945Y132964D01*
X240166Y133295D01*
X240244Y133685D01*
Y137393D01*
X241205Y137820D01*
X241780Y137370D01*
D02*
G37*
G36*
X253665Y133957D02*
Y125803D01*
X253330Y125713D01*
X252529Y125251D01*
X251875Y124597D01*
X251413Y123796D01*
X251173Y122903D01*
Y121979D01*
X251413Y121086D01*
X251587Y120784D01*
X242845Y112043D01*
X237143D01*
X236729Y113043D01*
X243028Y119342D01*
X243330Y119168D01*
X244223Y118929D01*
X245147D01*
X246041Y119168D01*
X246841Y119631D01*
X247495Y120285D01*
X247957Y121086D01*
X248197Y121979D01*
Y122903D01*
X247957Y123796D01*
X247495Y124597D01*
X247425Y124667D01*
X247575Y124818D01*
X247796Y125148D01*
X247874Y125539D01*
Y138334D01*
X248874Y138748D01*
X253665Y133957D01*
D02*
G37*
G36*
X275984Y102953D02*
X276378D01*
Y96457D01*
X272441D01*
Y102953D01*
X272835D01*
Y105709D01*
X275984D01*
Y102953D01*
D02*
G37*
G36*
X276378Y92716D02*
X278346D01*
Y89961D01*
X270472D01*
Y92716D01*
X272441D01*
Y94291D01*
X276378D01*
Y92716D01*
D02*
G37*
G36*
X278346Y64764D02*
X276378D01*
Y63189D01*
X272441D01*
Y64764D01*
X270472D01*
Y67520D01*
X278346D01*
Y64764D01*
D02*
G37*
G36*
X276378Y54528D02*
X275984D01*
Y51772D01*
X272835D01*
Y54528D01*
X272441D01*
Y61024D01*
X276378D01*
Y54528D01*
D02*
G37*
D12*
X41339Y55280D02*
Y117323D01*
X170669Y121063D02*
X174863D01*
X239900Y186100D01*
X242950D01*
X173780Y122992D02*
X175756Y124969D01*
Y134122D01*
X170709Y122992D02*
X173780D01*
X170669Y123032D02*
X170709Y122992D01*
X242950Y186100D02*
X252520Y195669D01*
X162795Y136024D02*
X176272Y149500D01*
X196350D01*
X242520Y195669D01*
X209992Y144882D02*
X215209D01*
X209945Y144835D02*
X209992Y144882D01*
X181454Y165312D02*
Y177123D01*
X152953Y132874D02*
Y147441D01*
X156890Y132874D02*
Y143898D01*
X178347Y165354D02*
Y181890D01*
X152953Y147441D02*
X160397Y154885D01*
X154921Y145289D02*
X174016Y164383D01*
X154921Y132874D02*
Y145289D01*
X158858Y132874D02*
Y142717D01*
X160397Y156460D02*
X161811Y157874D01*
X162795Y132874D02*
Y136024D01*
X181454Y177123D02*
X204724Y200394D01*
X158858Y142717D02*
X181454Y165312D01*
X160397Y154885D02*
Y156460D01*
X178347Y181890D02*
X196850Y200394D01*
X156890Y143898D02*
X178347Y165354D01*
X235984Y136130D02*
X236469Y136614D01*
X169153Y177618D02*
X169291Y177756D01*
X161279Y177618D02*
X169153D01*
X178622Y90847D02*
X178740D01*
X177311Y92158D02*
X178622Y90847D01*
X170965Y125100D02*
Y135433D01*
X170669Y125000D02*
X170865D01*
X170965Y125100D01*
X174114Y95473D02*
X177311Y92276D01*
X170669Y95473D02*
X174114D01*
X177311Y92158D02*
Y92276D01*
X156890Y76477D02*
Y87599D01*
X156791Y68563D02*
Y76378D01*
X145315Y173681D02*
X152106D01*
X145276Y173721D02*
X145315Y173681D01*
X124803Y132874D02*
X133268D01*
X123325Y125100D02*
X125294D01*
X120524Y137153D02*
X124803Y132874D01*
X117717Y125984D02*
X122441D01*
X123325Y125100D01*
X119095Y138465D02*
X120405Y137153D01*
X119095Y138465D02*
Y138583D01*
X120405Y137153D02*
X120524D01*
X116929Y126772D02*
X117717Y125984D01*
X137205Y78051D02*
Y87599D01*
X120853Y101378D02*
X125394D01*
X156791Y76378D02*
X156890Y76477D01*
X156791Y68563D02*
X156850Y68504D01*
X137205Y78051D02*
X137303Y77953D01*
X125294Y125100D02*
X125394Y125000D01*
X119902Y101378D02*
X120853D01*
X120853Y101378D01*
X115866Y97342D02*
X119902Y101378D01*
X112012Y97342D02*
X115748D01*
X107441Y92772D02*
X112012Y97342D01*
X106693Y92772D02*
X107441D01*
X215209Y138779D02*
X222185D01*
X222689Y138276D01*
X228437Y137098D02*
X229685D01*
X227260Y138276D02*
X228437Y137098D01*
X229685D02*
X230654Y136130D01*
X222689Y138276D02*
X227260D01*
X127842Y135991D02*
X129109D01*
X125151Y138682D02*
X127842Y135991D01*
X129109D02*
X129300Y135800D01*
X159391Y164609D02*
X162640D01*
X164961Y166929D01*
X159200Y164800D02*
X159391Y164609D01*
X213728Y9500D02*
X213779Y9449D01*
X213830Y9500D01*
X189874Y33158D02*
X190083Y32949D01*
X254685Y122441D02*
Y134379D01*
X238398Y142429D02*
X242799Y138028D01*
X234685Y122441D02*
X242799Y130555D01*
Y138028D01*
X239224Y133685D02*
Y138694D01*
X229324Y123785D02*
X239224Y133685D01*
X227388Y123785D02*
X229324D01*
X236469Y139764D02*
X236953Y139279D01*
X238639D01*
X239224Y138694D01*
X244685Y122441D02*
Y123369D01*
X237867Y148047D02*
X246854Y139060D01*
X244685Y123369D02*
X246854Y125539D01*
Y139060D01*
X235236Y112992D02*
X244685Y122441D01*
X230170Y142913D02*
X230170Y142913D01*
X232002Y145806D02*
X233319Y144488D01*
X230170Y146063D02*
X230427Y145806D01*
X232002D01*
X215209Y144882D02*
X222295D01*
X233319Y144488D02*
Y149213D01*
X222295Y144882D02*
X222689Y145276D01*
X236953Y142429D02*
X238398D01*
X237634Y148047D02*
X237867D01*
X232925Y142643D02*
Y142913D01*
X223476Y146063D02*
X230170D01*
X222689Y145276D02*
X223476Y146063D01*
X231824Y152836D02*
X236228D01*
X233319Y143578D02*
Y144488D01*
X230170Y149213D02*
Y151181D01*
X232925Y142913D02*
X232925Y142913D01*
X236469Y149213D02*
X237634Y148047D01*
X232925Y143184D02*
X233319Y143578D01*
X236228Y152836D02*
X254685Y134379D01*
X230170Y142913D02*
X232925D01*
X232138Y139764D02*
X233319Y140945D01*
X230170Y151181D02*
X231824Y152836D01*
X233319Y140945D02*
Y142249D01*
X232925Y142913D02*
Y143184D01*
Y142643D02*
X233319Y142249D01*
X230170Y139764D02*
X232138D01*
X233319Y136614D02*
Y140945D01*
X236469Y142913D02*
X236953Y142429D01*
X177168Y135534D02*
X181395D01*
X175756Y134122D02*
X177168Y135534D01*
X125151Y138682D02*
Y138800D01*
X125197Y138583D02*
X131923D01*
X157510Y173526D02*
X159232Y171803D01*
X157510Y173526D02*
Y174559D01*
X159232Y171803D02*
X161189D01*
X161279Y171712D01*
X168976Y184055D02*
X169173Y183858D01*
X165772Y184055D02*
X168976D01*
X232185Y196004D02*
X232520Y195669D01*
X232185Y196004D02*
Y211024D01*
X274386Y109252D02*
X274398Y109240D01*
Y101094D02*
X274410Y101083D01*
X180157Y77165D02*
X185039D01*
X178839Y84646D02*
X183858D01*
X178740Y84744D02*
X178839Y84646D01*
X169173Y183858D02*
X169291D01*
X164902Y179587D02*
X169173Y183858D01*
X161279Y179587D02*
X164902D01*
X161091Y179398D02*
X161279Y179587D01*
X145177Y179921D02*
X145276Y179823D01*
X140945Y179921D02*
X145177D01*
X157480Y177559D02*
X159319Y179398D01*
X161279Y169744D02*
Y171712D01*
X159319Y179398D02*
X161091D01*
X158600Y175650D02*
X161279D01*
X157480Y174559D02*
Y177559D01*
X157510Y174559D02*
X158600Y175650D01*
X30315Y171260D02*
X33563Y168012D01*
X22047Y171260D02*
X30315D01*
X33563Y163779D02*
Y168012D01*
X135136Y132974D02*
Y135370D01*
Y132974D02*
X135236Y132874D01*
X131923Y138583D02*
X135136Y135370D01*
X120079Y145669D02*
X125276D01*
X116732Y133071D02*
X116929Y132874D01*
X111811Y133071D02*
X116732D01*
X162795Y87599D02*
X165650Y84744D01*
X178740D01*
X162894Y76378D02*
Y79810D01*
X158955Y83749D02*
X162894Y79810D01*
X158858Y87599D02*
X158955Y87501D01*
Y83749D02*
Y87501D01*
X152146Y78524D02*
X154921Y81299D01*
Y87599D01*
X163779Y68504D02*
X163779Y68504D01*
X171260D01*
X163779Y68504D02*
Y75492D01*
X162894Y76378D02*
X163779Y75492D01*
X115748Y103445D02*
X125295D01*
X125394Y103347D01*
X115594Y103291D02*
X115748Y103445D01*
X106693Y103291D02*
X115594D01*
X106551Y103150D02*
X106693Y103291D01*
X151909Y78524D02*
X152146D01*
X135236Y82106D02*
Y87599D01*
X131201Y78071D02*
X135236Y82106D01*
X131201Y73721D02*
Y77953D01*
X100787Y103150D02*
X106551D01*
X131811Y198391D02*
Y227874D01*
X141013Y135245D02*
X141042Y135217D01*
Y132974D02*
X141142Y132874D01*
X141013Y135245D02*
Y148750D01*
X141042Y132974D02*
Y135217D01*
X136614Y153150D02*
X141013Y148750D01*
X121653Y153150D02*
X136614D01*
X118110Y156693D02*
X121653Y153150D01*
X118110Y184690D02*
X131811Y198391D01*
X118110Y156693D02*
Y184690D01*
X152106Y163169D02*
Y169744D01*
X146811Y157874D02*
X152106Y163169D01*
X146811Y157874D02*
X147047Y157638D01*
Y132874D02*
Y157638D01*
X8661Y126772D02*
X37008D01*
X39764D02*
X52362Y114173D01*
X37008Y126772D02*
X39764D01*
X100984Y111221D02*
X125394D01*
X52362Y114173D02*
X98032D01*
X100984Y111221D01*
X149016Y67520D02*
Y87599D01*
Y67520D02*
X150787Y65748D01*
X150000Y29134D02*
X150787Y29921D01*
Y65748D01*
X170669Y101378D02*
X175394D01*
X181496Y107480D02*
X232480D01*
X175394Y101378D02*
X181496Y107480D01*
X232480D02*
X240551Y99410D01*
X145079Y53740D02*
X145276Y53543D01*
X145079Y53740D02*
Y87599D01*
X41142Y158268D02*
X83661Y115748D01*
X39567Y158268D02*
X41142D01*
X39567D02*
Y163681D01*
X39665Y163779D01*
Y173130D01*
X10236Y172441D02*
X14567Y176772D01*
X36024D01*
X39665Y173130D01*
X101378Y113189D02*
X125394D01*
X83661Y115748D02*
X98819D01*
X101378Y113189D01*
X137234Y225364D02*
Y227451D01*
Y225364D02*
X167323Y195276D01*
X136811Y227874D02*
X137234Y227451D01*
X151917Y179776D02*
X152106Y179587D01*
X149213Y181184D02*
Y185827D01*
X150621Y179776D02*
X151917D01*
X149213Y181184D02*
X150621Y179776D01*
X170669Y107284D02*
X173824D01*
X179532Y112992D02*
X235236D01*
X173824Y107284D02*
X179532Y112992D01*
X143013Y142126D02*
X143110Y142029D01*
Y132874D02*
Y142029D01*
X141811Y153071D02*
Y157874D01*
X164961Y166929D02*
Y171296D01*
X161279Y173681D02*
X161469Y173492D01*
X162765D02*
X164961Y171296D01*
X161469Y173492D02*
X162765D01*
X141811Y153071D02*
X145079Y149803D01*
Y132874D02*
Y149803D01*
X147047Y65945D02*
X149244Y63748D01*
X147047Y65945D02*
Y87599D01*
X132032Y29276D02*
X149244Y46488D01*
Y63748D01*
X126620Y29276D02*
X132032D01*
X64067Y27165D02*
X119685Y82784D01*
X57874Y27165D02*
X64067D01*
X119685Y82784D02*
Y96250D01*
X122044Y80394D02*
Y96487D01*
X60236Y19685D02*
X61335D01*
X122044Y80394D01*
X124409Y77378D02*
Y95373D01*
X70079Y19685D02*
X70557Y20164D01*
Y23526D01*
X124409Y77378D01*
X126772Y75224D02*
Y81890D01*
X79921Y28374D02*
X126772Y75224D01*
X79921Y19685D02*
Y28374D01*
X85827Y151575D02*
X116339Y121063D01*
X125295Y123130D02*
X125394Y123032D01*
X116339Y121063D02*
X125394D01*
X85827Y151575D02*
Y170866D01*
X117323Y123228D02*
X117421Y123130D01*
X125295D01*
X81496Y153059D02*
Y167323D01*
Y153059D02*
X115460Y119095D01*
X125394D01*
X57874Y198819D02*
X85827Y170866D01*
X57874Y190945D02*
X81496Y167323D01*
X241142Y211024D02*
X248209D01*
X242520Y195669D02*
Y196476D01*
X256083Y210039D01*
Y211024D01*
X78263Y145359D02*
Y162682D01*
X57874Y183071D02*
X78263Y162682D01*
X74410Y141732D02*
Y158268D01*
X57702Y174975D02*
X74410Y158268D01*
X28940Y42882D02*
X41339Y55280D01*
X39764Y118898D02*
X41339Y117323D01*
X51181Y107480D01*
X8661Y118898D02*
X39764D01*
X114173Y153937D02*
X118110Y150000D01*
X114173Y153937D02*
Y162598D01*
X93701Y183071D02*
X114173Y162598D01*
X88976Y183071D02*
X93701D01*
X118110Y150000D02*
X134465D01*
X139173Y145292D01*
Y132874D02*
Y145292D01*
X160927Y85103D02*
Y87498D01*
Y85103D02*
X166471Y79559D01*
X160827Y87599D02*
Y98425D01*
Y87599D02*
X160927Y87498D01*
X173228Y77165D02*
Y77776D01*
X166471Y79559D02*
X171445D01*
X173228Y77776D01*
X137105Y132974D02*
Y136375D01*
X132205Y141276D02*
X137105Y136375D01*
Y132974D02*
X137205Y132874D01*
X132205Y141276D02*
Y145669D01*
X137205Y122047D02*
X160827Y98425D01*
X137205Y122047D02*
Y132874D01*
X220669Y103543D02*
X224803Y99410D01*
X176575Y97441D02*
X182677Y103543D01*
X220669D01*
X170669Y97441D02*
X176575D01*
X226575Y105512D02*
X232677Y99410D01*
X181890Y105512D02*
X226575D01*
X175759Y99381D02*
X181890Y105512D01*
X170698Y99381D02*
X175759D01*
X238386Y109449D02*
X244488Y103347D01*
X174365Y105315D02*
X180074Y111024D01*
X181102Y109449D02*
X238386D01*
X180074Y111024D02*
X243268D01*
X254685Y122441D01*
X175000Y103347D02*
X181102Y109449D01*
X170669Y105315D02*
X174365D01*
X170669Y103347D02*
X175000D01*
X226044Y122441D02*
X227388Y123785D01*
X224685Y122441D02*
X226044D01*
X244488Y103347D02*
X244488D01*
X248425Y99410D01*
X170669Y103347D02*
X170669Y103347D01*
X50394Y19685D02*
X57874Y27165D01*
X126772Y81890D02*
X130966Y86084D01*
X133168D01*
X133268Y86184D02*
Y87599D01*
X133168Y86084D02*
X133268Y86184D01*
X124509Y95473D02*
X125394D01*
X124409Y95373D02*
X124509Y95473D01*
X119685Y96250D02*
X122745Y99310D01*
X122044Y96487D02*
X122898Y97341D01*
X125591Y53543D02*
X141142Y69095D01*
X143110Y66732D02*
Y87599D01*
X141142Y69095D02*
Y87599D01*
X125294Y97341D02*
X125394Y97441D01*
X122898Y97341D02*
X125294D01*
X122745Y99310D02*
X125294D01*
X125394Y99410D01*
X121226Y107480D02*
X122629Y108884D01*
X51181Y107480D02*
X121226D01*
X123644Y109252D02*
X125394D01*
X123275Y108884D02*
X123644Y109252D01*
X122629Y108884D02*
X123275D01*
X108464Y115158D02*
X125394D01*
X100394Y123228D02*
X108464Y115158D01*
X92913Y123228D02*
X100394D01*
X74410Y141732D02*
X92913Y123228D01*
X93307Y130315D02*
X97638D01*
X110827Y117126D02*
X125394D01*
X97638Y130315D02*
X110827Y117126D01*
X78263Y145359D02*
X93307Y130315D01*
X8661Y118898D02*
X8661Y118898D01*
X135433Y59055D02*
X143110Y66732D01*
X135433Y53543D02*
Y59055D01*
X156556Y157619D02*
X156811Y157874D01*
X150984Y149409D02*
X156556Y154981D01*
X150984Y132874D02*
Y149409D01*
X156556Y154981D02*
Y157619D01*
X149016Y155079D02*
X151811Y157874D01*
X149016Y132874D02*
Y155079D01*
X151811Y157874D02*
Y158109D01*
X154268Y170847D02*
Y180690D01*
X153592Y181366D02*
X154268Y180690D01*
X152106Y181555D02*
X152295Y181366D01*
X153592D01*
X151811Y158109D02*
X154268Y160566D01*
Y170847D01*
X153592Y171523D02*
X154268Y170847D01*
X152295Y171523D02*
X153592D01*
X152106Y171712D02*
X152295Y171523D01*
X156752Y157933D02*
X156811Y157874D01*
X156752Y157933D02*
Y168051D01*
X156693Y168110D02*
X156752Y168051D01*
D17*
X189874Y33158D02*
D03*
X180819D02*
D03*
X171764D02*
D03*
D18*
X180819Y9339D02*
D03*
D19*
X222571Y43980D02*
D03*
X171972Y43087D02*
D03*
X222571Y50870D02*
D03*
X171972Y50016D02*
D03*
D20*
X222835Y32283D02*
D03*
X213779D02*
D03*
X204724D02*
D03*
D21*
X266142Y83465D02*
D03*
X274016D02*
D03*
X248209Y211024D02*
D03*
X256083D02*
D03*
D22*
X230170Y136614D02*
D03*
X236469D02*
D03*
X232185Y211024D02*
D03*
X233319Y149213D02*
D03*
Y136614D02*
D03*
X230170Y146063D02*
D03*
Y142913D02*
D03*
Y139764D02*
D03*
X236469Y149213D02*
D03*
X241142Y211024D02*
D03*
X236469Y139764D02*
D03*
Y142913D02*
D03*
X230170Y149213D02*
D03*
X236469Y146063D02*
D03*
D23*
X169291Y177756D02*
D03*
X215209Y138779D02*
D03*
X178740Y90847D02*
D03*
X145276Y173721D02*
D03*
X116929Y126772D02*
D03*
X115748Y97342D02*
D03*
X215209Y144882D02*
D03*
X178740Y84744D02*
D03*
X169291Y183858D02*
D03*
X145276Y179823D02*
D03*
X116929Y132874D02*
D03*
X115748Y103445D02*
D03*
D24*
X161279Y177618D02*
D03*
X152106Y173681D02*
D03*
X161279Y179587D02*
D03*
Y175650D02*
D03*
Y171712D02*
D03*
Y169744D02*
D03*
X152106D02*
D03*
Y179587D02*
D03*
X161279Y173681D02*
D03*
X152106Y181555D02*
D03*
Y171712D02*
D03*
Y175650D02*
D03*
Y177618D02*
D03*
X161279Y181555D02*
D03*
D25*
X222689Y138276D02*
D03*
Y145276D02*
D03*
D26*
X183075Y43402D02*
D03*
X156850Y68504D02*
D03*
X180157Y77165D02*
D03*
X190004Y43402D02*
D03*
X125276Y145669D02*
D03*
X163779Y68504D02*
D03*
X173228Y77165D02*
D03*
X132205Y145669D02*
D03*
D27*
X170965Y135433D02*
D03*
X119049Y138800D02*
D03*
X156791Y76378D02*
D03*
X137303Y77953D02*
D03*
X177067Y135433D02*
D03*
X210925Y53150D02*
D03*
X33563Y163779D02*
D03*
X125151Y138800D02*
D03*
X162894Y76378D02*
D03*
X131201Y77953D02*
D03*
X39665Y163779D02*
D03*
X204823Y53150D02*
D03*
D28*
X170669Y125000D02*
D03*
Y95473D02*
D03*
X125394Y125000D02*
D03*
Y101378D02*
D03*
X170669Y123032D02*
D03*
X125394Y103347D02*
D03*
Y111221D02*
D03*
X170669Y101378D02*
D03*
X125394Y113189D02*
D03*
X170669Y107284D02*
D03*
Y97441D02*
D03*
Y99410D02*
D03*
Y121063D02*
D03*
Y119095D02*
D03*
Y117126D02*
D03*
Y115158D02*
D03*
Y113189D02*
D03*
Y111221D02*
D03*
Y109252D02*
D03*
X125394Y105315D02*
D03*
Y107284D02*
D03*
Y115158D02*
D03*
Y117126D02*
D03*
Y119095D02*
D03*
Y121063D02*
D03*
Y123032D02*
D03*
Y109252D02*
D03*
X170669Y105315D02*
D03*
Y103347D02*
D03*
X125394Y99410D02*
D03*
Y97441D02*
D03*
Y95473D02*
D03*
D29*
X133268Y132874D02*
D03*
X156890Y87599D02*
D03*
X137205D02*
D03*
X162795D02*
D03*
X158858D02*
D03*
X154921D02*
D03*
X135236Y132874D02*
D03*
Y87599D02*
D03*
X141142Y132874D02*
D03*
X147047D02*
D03*
X149016Y87599D02*
D03*
X145079D02*
D03*
X154921Y132874D02*
D03*
X152953D02*
D03*
X143110D02*
D03*
X145079D02*
D03*
X147047Y87599D02*
D03*
X139173Y132874D02*
D03*
X160827Y87599D02*
D03*
X137205Y132874D02*
D03*
X152953Y87599D02*
D03*
X150984D02*
D03*
X143110D02*
D03*
X141142D02*
D03*
X158858Y132874D02*
D03*
X160827D02*
D03*
X162795D02*
D03*
X139173Y87599D02*
D03*
X150984Y132874D02*
D03*
X156890D02*
D03*
X149016D02*
D03*
X133268Y87599D02*
D03*
D30*
X33661Y158268D02*
D03*
X39567D02*
D03*
D31*
X106693Y92772D02*
D03*
Y103291D02*
D03*
D32*
X213779Y9449D02*
D03*
D33*
X22047Y171260D02*
D03*
X39764Y171653D02*
D03*
Y207480D02*
D03*
X22047D02*
D03*
D34*
X273622Y74410D02*
D03*
X264370D02*
D03*
X219685Y70866D02*
D03*
X13192Y42882D02*
D03*
X212598Y200394D02*
D03*
D35*
X156693Y183189D02*
D03*
Y168110D02*
D03*
D66*
X273386Y12205D02*
D03*
Y226535D02*
D03*
X12205Y12205D02*
D03*
Y226535D02*
D03*
X274410Y48425D02*
D03*
D74*
Y56398D02*
D03*
Y101083D02*
D03*
Y92126D02*
D03*
Y65354D02*
D03*
D75*
X204823Y53150D02*
Y61193D01*
X206980Y63350D01*
X274311Y83760D02*
Y85805D01*
X274410Y85903D01*
Y92126D01*
X274016Y83465D02*
X274311Y83760D01*
X274410Y65354D02*
Y73622D01*
X273622Y74410D02*
X274410Y73622D01*
X190083Y24504D02*
Y32949D01*
X222736Y31201D02*
Y43701D01*
Y31201D02*
X222835Y31102D01*
X219685Y70866D02*
X229134D01*
X248819Y51181D01*
X241713Y44075D02*
X248819Y51181D01*
X223594Y44075D02*
X241713D01*
X222476Y44075D02*
X222571Y43980D01*
X213799Y44075D02*
X222476D01*
X213705Y44169D02*
X213799Y44075D01*
X171776Y18823D02*
Y30428D01*
X171870D02*
Y42870D01*
X180831Y33067D02*
Y40980D01*
X183075Y43224D02*
Y43402D01*
X180831Y40980D02*
X183075Y43224D01*
X203300Y9500D02*
X213728D01*
X213830D02*
X224200D01*
X215185Y57410D02*
X228453D01*
X210925Y53150D02*
X215185Y57410D01*
X225649Y53771D02*
Y54064D01*
X228453Y56868D02*
Y57410D01*
X225649Y54064D02*
X228453Y56868D01*
X222748Y50870D02*
X225649Y53771D01*
X154410Y21260D02*
X163098Y29949D01*
Y53118D01*
X126761Y21260D02*
X154410D01*
X183028Y50016D02*
Y56870D01*
X222571Y50870D02*
X222748D01*
X190004Y43402D02*
Y47087D01*
X187075Y50016D02*
X190004Y47087D01*
X183028Y50016D02*
X187075D01*
X171972D02*
X183028D01*
X222528Y21480D02*
X222705Y21303D01*
X213819Y29268D02*
Y31630D01*
X213779Y21480D02*
X222528D01*
X213779D02*
Y31102D01*
Y9449D02*
Y21480D01*
X163098Y53118D02*
X173350Y63370D01*
X204823D02*
X206961D01*
X173350D02*
X204823D01*
X206961D02*
X206980Y63350D01*
X211811Y68181D01*
X240551Y74410D02*
X264370D01*
X236221Y78740D02*
X240551Y74410D01*
X216142Y78740D02*
X236221D01*
X211811Y68181D02*
Y70866D01*
X204724Y32283D02*
Y53051D01*
X211822Y70877D02*
Y74420D01*
X216142Y78740D01*
D76*
X274398Y101094D02*
Y109240D01*
D77*
X274410Y48425D02*
Y56398D01*
D78*
X248819Y51181D02*
D03*
D79*
X204685Y122441D02*
D03*
X214685D02*
D03*
X244685D02*
D03*
X254685D02*
D03*
X234685D02*
D03*
X224685D02*
D03*
D80*
X115748Y53543D02*
D03*
X50394Y19685D02*
D03*
D81*
X188976Y200394D02*
D03*
X203937Y70866D02*
D03*
X196063D02*
D03*
X88976Y198819D02*
D03*
X36814Y42882D02*
D03*
X21066D02*
D03*
X88976Y190945D02*
D03*
X196850Y200394D02*
D03*
X204724D02*
D03*
X57874Y190945D02*
D03*
Y183071D02*
D03*
Y175197D02*
D03*
X88976Y183071D02*
D03*
X211811Y70866D02*
D03*
X28940Y42882D02*
D03*
D82*
X161811Y227874D02*
D03*
D83*
X209055Y99410D02*
D03*
D84*
X156811Y227874D02*
D03*
X151811D02*
D03*
X131811D02*
D03*
X136811D02*
D03*
X141811D02*
D03*
X146811D02*
D03*
D85*
X88976Y175197D02*
D03*
X57874Y198819D02*
D03*
D86*
X8661Y134646D02*
D03*
D87*
X232520Y195669D02*
D03*
X242520D02*
D03*
D88*
X216929Y99410D02*
D03*
X150000Y13386D02*
D03*
X126620Y13528D02*
D03*
X240551Y99410D02*
D03*
X224803D02*
D03*
X232677D02*
D03*
X248425D02*
D03*
X126620Y21402D02*
D03*
X150000Y21260D02*
D03*
D89*
X248819Y22835D02*
D03*
D90*
X121811Y157874D02*
D03*
X136811D02*
D03*
X146811D02*
D03*
X141811D02*
D03*
X151811D02*
D03*
X126811D02*
D03*
X131811D02*
D03*
X156811D02*
D03*
D91*
X155118Y53543D02*
D03*
X89764Y19685D02*
D03*
X145276Y53543D02*
D03*
X125591D02*
D03*
X135433D02*
D03*
X79921Y19685D02*
D03*
X60236D02*
D03*
X70079D02*
D03*
D92*
X8661Y63779D02*
D03*
Y126772D02*
D03*
Y118898D02*
D03*
Y111024D02*
D03*
Y103150D02*
D03*
Y95276D02*
D03*
Y87402D02*
D03*
Y79528D02*
D03*
Y71653D02*
D03*
X95276Y134646D02*
D03*
Y126772D02*
D03*
Y118898D02*
D03*
Y111024D02*
D03*
Y103150D02*
D03*
Y95276D02*
D03*
Y87402D02*
D03*
Y79528D02*
D03*
Y71653D02*
D03*
Y63779D02*
D03*
D93*
X150000Y29134D02*
D03*
X126620Y29276D02*
D03*
D94*
X10236Y172441D02*
D03*
D95*
X161811Y157874D02*
D03*
D96*
X252520Y195669D02*
D03*
D97*
X269685Y172441D02*
D03*
X189764D02*
D03*
Y122441D02*
D03*
X269685D02*
D03*
D98*
X208968Y144862D02*
D03*
X274386Y109252D02*
D03*
X30315Y171260D02*
D03*
D99*
X174156Y165052D02*
D03*
X129300Y135800D02*
D03*
X159200Y164800D02*
D03*
X181395Y135534D02*
D03*
X165772Y184055D02*
D03*
X232925Y142913D02*
D03*
X185039Y77165D02*
D03*
X183858Y84646D02*
D03*
X140945Y179921D02*
D03*
X120079Y145669D02*
D03*
X171260Y68504D02*
D03*
X151909Y78524D02*
D03*
X111811Y133071D02*
D03*
X100787Y103150D02*
D03*
X131201Y73721D02*
D03*
X37008Y126772D02*
D03*
X167323Y195276D02*
D03*
X149213Y185827D02*
D03*
X143013Y142126D02*
D03*
X117323Y123228D02*
D03*
D100*
X190083Y24504D02*
D03*
X213705Y44169D02*
D03*
X172047Y18551D02*
D03*
X224200Y9500D02*
D03*
X203300D02*
D03*
X228453Y57410D02*
D03*
X183028Y56870D02*
D03*
X222705Y21303D02*
D03*
M02*
